<?xml version="1.0" encoding="UTF-8" standalone="no"?><!DOCTYPE svg PUBLIC "-//W3C//DTD SVG 1.1//EN" "http://www.w3.org/Graphics/SVG/1.1/DTD/svg11.dtd"><svg width="100%" height="100%" viewBox="0 0 8534 8534" version="1.1" xmlns="http://www.w3.org/2000/svg" xmlns:xlink="http://www.w3.org/1999/xlink" xml:space="preserve" xmlns:serif="http://www.serif.com/" style="fill-rule:evenodd;clip-rule:evenodd;stroke-linejoin:round;stroke-miterlimit:2;"><g transform="matrix(4.16667,0,0,4.16667,0,0)"><g id="ActorComponent"><g id="NTextRenderComponent"><g id="Highlight" transform="matrix(64.906,0,0,64.906,1575.7,270.012)"><path d="M0,22l-1,0c-0.276,0 -0.5,0.224 -0.5,0.5l0,1c0,0.276 0.224,0.5 0.5,0.5l1,0c0.276,0 0.5,-0.224 0.5,-0.5l0,-1c0,-0.276 -0.224,-0.5 -0.5,-0.5m0,-24l-1,0c-0.276,0 -0.5,0.224 -0.5,0.5l0,1c0,0.276 0.224,0.5 0.5,0.5l1,0c0.276,0 0.5,-0.224 0.5,-0.5l0,-1c0,-0.276 -0.224,-0.5 -0.5,-0.5m-8,24l-1,0c-0.276,0 -0.5,0.224 -0.5,0.5l0,1c0,0.276 0.224,0.5 0.5,0.5l1,0c0.276,0 0.5,-0.224 0.5,-0.5l0,-1c0,-0.276 -0.224,-0.5 -0.5,-0.5m12,0l-1,0c-0.276,0 -0.5,0.224 -0.5,0.5l0,1c0,0.276 0.224,0.5 0.5,0.5l1,0c0.276,0 0.5,-0.224 0.5,-0.5l0,-1c0,-0.276 -0.224,-0.5 -0.5,-0.5m-8,0l-1,0c-0.276,0 -0.5,0.224 -0.5,0.5l0,1c0,0.276 0.224,0.5 0.5,0.5l1,0c0.276,0 0.5,-0.224 0.5,-0.5l0,-1c0,-0.276 -0.224,-0.5 -0.5,-0.5m-8,0l-1,0c-0.276,0 -0.5,0.224 -0.5,0.5l0,1c0,0.276 0.224,0.5 0.5,0.5l1,0c0.276,0 0.5,-0.224 0.5,-0.5l0,-1c0,-0.276 -0.224,-0.5 -0.5,-0.5m16,-4l-1,0c-0.276,0 -0.5,0.224 -0.5,0.5l0,1c0,0.276 0.224,0.5 0.5,0.5l1,0c0.276,0 0.5,-0.224 0.5,-0.5l0,-1c0,-0.276 -0.224,-0.5 -0.5,-0.5m0,-20l-1,0c-0.276,0 -0.5,0.224 -0.5,0.5l0,1c0,0.276 0.224,0.5 0.5,0.5l1,0c0.276,0 0.5,-0.224 0.5,-0.5l0,-1c0,-0.276 -0.224,-0.5 -0.5,-0.5m0,4l-1,0c-0.276,0 -0.5,0.224 -0.5,0.5l0,1c0,0.276 0.224,0.5 0.5,0.5l1,0c0.276,0 0.5,-0.224 0.5,-0.5l0,-1c0,-0.276 -0.224,-0.5 -0.5,-0.5m0,12l-1,0c-0.276,0 -0.5,0.224 -0.5,0.5l0,1c0,0.276 0.224,0.5 0.5,0.5l1,0c0.276,0 0.5,-0.224 0.5,-0.5l0,-1c0,-0.276 -0.224,-0.5 -0.5,-0.5m0,-8l-1,0c-0.276,0 -0.5,0.224 -0.5,0.5l0,1c0,0.276 0.224,0.5 0.5,0.5l1,0c0.276,0 0.5,-0.224 0.5,-0.5l0,-1c0,-0.276 -0.224,-0.5 -0.5,-0.5m0,4l-1,0c-0.276,0 -0.5,0.224 -0.5,0.5l0,1c0,0.276 0.224,0.5 0.5,0.5l1,0c0.276,0 0.5,-0.224 0.5,-0.5l0,-1c0,-0.276 -0.224,-0.5 -0.5,-0.5m-24,4l-1,0c-0.276,0 -0.5,0.224 -0.5,0.5l0,1c0,0.276 0.224,0.5 0.5,0.5l1,0c0.276,0 0.5,-0.224 0.5,-0.5l0,-1c0,-0.276 -0.224,-0.5 -0.5,-0.5m0,4l-1,0c-0.276,0 -0.5,0.224 -0.5,0.5l0,1c0,0.276 0.224,0.5 0.5,0.5l1,0c0.276,0 0.5,-0.224 0.5,-0.5l0,-1c0,-0.276 -0.224,-0.5 -0.5,-0.5m0,4l-1,0c-0.276,0 -0.5,0.224 -0.5,0.5l0,1c0,0.276 0.224,0.5 0.5,0.5l1,0c0.276,0 0.5,-0.224 0.5,-0.5l0,-1c0,-0.276 -0.224,-0.5 -0.5,-0.5m4,0l-1,0c-0.276,0 -0.5,0.224 -0.5,0.5l0,1c0,0.276 0.224,0.5 0.5,0.5l1,0c0.276,0 0.5,-0.224 0.5,-0.5l0,-1c0,-0.276 -0.224,-0.5 -0.5,-0.5m3,-22l1,0c0.276,0 0.5,-0.224 0.5,-0.5l0,-1c0,-0.276 -0.224,-0.5 -0.5,-0.5l-1,0c-0.276,0 -0.5,0.224 -0.5,0.5l0,1c0,0.276 0.224,0.5 0.5,0.5m8,0l1,0c0.276,0 0.5,-0.224 0.5,-0.5l0,-1c0,-0.276 -0.224,-0.5 -0.5,-0.5l-1,0c-0.276,0 -0.5,0.224 -0.5,0.5l0,1c0,0.276 0.224,0.5 0.5,0.5m-4,0l1,0c0.276,0 0.5,-0.224 0.5,-0.5l0,-1c0,-0.276 -0.224,-0.5 -0.5,-0.5l-1,0c-0.276,0 -0.5,0.224 -0.5,0.5l0,1c0,0.276 0.224,0.5 0.5,0.5m-8,0l1,0c0.276,0 0.5,-0.224 0.5,-0.5l0,-1c0,-0.276 -0.224,-0.5 -0.5,-0.5l-1,0c-0.276,0 -0.5,0.224 -0.5,0.5l0,1c0,0.276 0.224,0.5 0.5,0.5m-3,-2l-1,0c-0.276,0 -0.5,0.224 -0.5,0.5l0,1c0,0.276 0.224,0.5 0.5,0.5l1,0c0.276,0 0.5,-0.224 0.5,-0.5l0,-1c0,-0.276 -0.224,-0.5 -0.5,-0.5m0,4l-1,0c-0.276,0 -0.5,0.224 -0.5,0.5l0,1c0,0.276 0.224,0.5 0.5,0.5l1,0c0.276,0 0.5,-0.224 0.5,-0.5l0,-1c0,-0.276 -0.224,-0.5 -0.5,-0.5m0,4l-1,0c-0.276,0 -0.5,0.224 -0.5,0.5l0,1c0,0.276 0.224,0.5 0.5,0.5l1,0c0.276,0 0.5,-0.224 0.5,-0.5l0,-1c0,-0.276 -0.224,-0.5 -0.5,-0.5m0,4l-1,0c-0.276,0 -0.5,0.224 -0.5,0.5l0,1c0,0.276 0.224,0.5 0.5,0.5l1,0c0.276,0 0.5,-0.224 0.5,-0.5l0,-1c0,-0.276 -0.224,-0.5 -0.5,-0.5m20.5,-7l0,3c0,0.552 -0.447,1 -0.999,1l-1,0c-0.553,0 -1,-0.448 -1,-1l0,-1l-4.001,0l0,12l1,0c0.553,0 1,0.448 1,1l0,1c0,0.552 -0.447,1 -1,1l-6,0c-0.553,0 -1,-0.448 -1,-1l0,-1c0,-0.552 0.447,-1 1,-1l1,0l0,-12l-3.999,0l0,1c0,0.552 -0.448,1 -1,1l-1,0c-0.553,0 -1,-0.448 -1,-1l-0.001,-3c0,-0.552 0.447,-1 1,-1l16.001,0c0.552,0 0.999,0.448 0.999,1" style="fill:#fff;fill-rule:nonzero;"/></g><g id="Shadow" transform="matrix(64.906,0,0,64.906,1575.7,350.012)"><path d="M0,22l-1,0c-0.276,0 -0.5,0.224 -0.5,0.5l0,1c0,0.276 0.224,0.5 0.5,0.5l1,0c0.276,0 0.5,-0.224 0.5,-0.5l0,-1c0,-0.276 -0.224,-0.5 -0.5,-0.5m0,-24l-1,0c-0.276,0 -0.5,0.224 -0.5,0.5l0,1c0,0.276 0.224,0.5 0.5,0.5l1,0c0.276,0 0.5,-0.224 0.5,-0.5l0,-1c0,-0.276 -0.224,-0.5 -0.5,-0.5m-8,24l-1,0c-0.276,0 -0.5,0.224 -0.5,0.5l0,1c0,0.276 0.224,0.5 0.5,0.5l1,0c0.276,0 0.5,-0.224 0.5,-0.5l0,-1c0,-0.276 -0.224,-0.5 -0.5,-0.5m12,0l-1,0c-0.276,0 -0.5,0.224 -0.5,0.5l0,1c0,0.276 0.224,0.5 0.5,0.5l1,0c0.276,0 0.5,-0.224 0.5,-0.5l0,-1c0,-0.276 -0.224,-0.5 -0.5,-0.5m-8,0l-1,0c-0.276,0 -0.5,0.224 -0.5,0.5l0,1c0,0.276 0.224,0.5 0.5,0.5l1,0c0.276,0 0.5,-0.224 0.5,-0.5l0,-1c0,-0.276 -0.224,-0.5 -0.5,-0.5m-8,0l-1,0c-0.276,0 -0.5,0.224 -0.5,0.5l0,1c0,0.276 0.224,0.5 0.5,0.5l1,0c0.276,0 0.5,-0.224 0.5,-0.5l0,-1c0,-0.276 -0.224,-0.5 -0.5,-0.5m16,-4l-1,0c-0.276,0 -0.5,0.224 -0.5,0.5l0,1c0,0.276 0.224,0.5 0.5,0.5l1,0c0.276,0 0.5,-0.224 0.5,-0.5l0,-1c0,-0.276 -0.224,-0.5 -0.5,-0.5m0,-20l-1,0c-0.276,0 -0.5,0.224 -0.5,0.5l0,1c0,0.276 0.224,0.5 0.5,0.5l1,0c0.276,0 0.5,-0.224 0.5,-0.5l0,-1c0,-0.276 -0.224,-0.5 -0.5,-0.5m0,4l-1,0c-0.276,0 -0.5,0.224 -0.5,0.5l0,1c0,0.276 0.224,0.5 0.5,0.5l1,0c0.276,0 0.5,-0.224 0.5,-0.5l0,-1c0,-0.276 -0.224,-0.5 -0.5,-0.5m0,12l-1,0c-0.276,0 -0.5,0.224 -0.5,0.5l0,1c0,0.276 0.224,0.5 0.5,0.5l1,0c0.276,0 0.5,-0.224 0.5,-0.5l0,-1c0,-0.276 -0.224,-0.5 -0.5,-0.5m0,-8l-1,0c-0.276,0 -0.5,0.224 -0.5,0.5l0,1c0,0.276 0.224,0.5 0.5,0.5l1,0c0.276,0 0.5,-0.224 0.5,-0.5l0,-1c0,-0.276 -0.224,-0.5 -0.5,-0.5m0,4l-1,0c-0.276,0 -0.5,0.224 -0.5,0.5l0,1c0,0.276 0.224,0.5 0.5,0.5l1,0c0.276,0 0.5,-0.224 0.5,-0.5l0,-1c0,-0.276 -0.224,-0.5 -0.5,-0.5m-24,4l-1,0c-0.276,0 -0.5,0.224 -0.5,0.5l0,1c0,0.276 0.224,0.5 0.5,0.5l1,0c0.276,0 0.5,-0.224 0.5,-0.5l0,-1c0,-0.276 -0.224,-0.5 -0.5,-0.5m0,4l-1,0c-0.276,0 -0.5,0.224 -0.5,0.5l0,1c0,0.276 0.224,0.5 0.5,0.5l1,0c0.276,0 0.5,-0.224 0.5,-0.5l0,-1c0,-0.276 -0.224,-0.5 -0.5,-0.5m0,4l-1,0c-0.276,0 -0.5,0.224 -0.5,0.5l0,1c0,0.276 0.224,0.5 0.5,0.5l1,0c0.276,0 0.5,-0.224 0.5,-0.5l0,-1c0,-0.276 -0.224,-0.5 -0.5,-0.5m4,0l-1,0c-0.276,0 -0.5,0.224 -0.5,0.5l0,1c0,0.276 0.224,0.5 0.5,0.5l1,0c0.276,0 0.5,-0.224 0.5,-0.5l0,-1c0,-0.276 -0.224,-0.5 -0.5,-0.5m3,-22l1,0c0.276,0 0.5,-0.224 0.5,-0.5l0,-1c0,-0.276 -0.224,-0.5 -0.5,-0.5l-1,0c-0.276,0 -0.5,0.224 -0.5,0.5l0,1c0,0.276 0.224,0.5 0.5,0.5m8,0l1,0c0.276,0 0.5,-0.224 0.5,-0.5l0,-1c0,-0.276 -0.224,-0.5 -0.5,-0.5l-1,0c-0.276,0 -0.5,0.224 -0.5,0.5l0,1c0,0.276 0.224,0.5 0.5,0.5m-4,0l1,0c0.276,0 0.5,-0.224 0.5,-0.5l0,-1c0,-0.276 -0.224,-0.5 -0.5,-0.5l-1,0c-0.276,0 -0.5,0.224 -0.5,0.5l0,1c0,0.276 0.224,0.5 0.5,0.5m-8,0l1,0c0.276,0 0.5,-0.224 0.5,-0.5l0,-1c0,-0.276 -0.224,-0.5 -0.5,-0.5l-1,0c-0.276,0 -0.5,0.224 -0.5,0.5l0,1c0,0.276 0.224,0.5 0.5,0.5m-3,-2l-1,0c-0.276,0 -0.5,0.224 -0.5,0.5l0,1c0,0.276 0.224,0.5 0.5,0.5l1,0c0.276,0 0.5,-0.224 0.5,-0.5l0,-1c0,-0.276 -0.224,-0.5 -0.5,-0.5m0,4l-1,0c-0.276,0 -0.5,0.224 -0.5,0.5l0,1c0,0.276 0.224,0.5 0.5,0.5l1,0c0.276,0 0.5,-0.224 0.5,-0.5l0,-1c0,-0.276 -0.224,-0.5 -0.5,-0.5m0,4l-1,0c-0.276,0 -0.5,0.224 -0.5,0.5l0,1c0,0.276 0.224,0.5 0.5,0.5l1,0c0.276,0 0.5,-0.224 0.5,-0.5l0,-1c0,-0.276 -0.224,-0.5 -0.5,-0.5m0,4l-1,0c-0.276,0 -0.5,0.224 -0.5,0.5l0,1c0,0.276 0.224,0.5 0.5,0.5l1,0c0.276,0 0.5,-0.224 0.5,-0.5l0,-1c0,-0.276 -0.224,-0.5 -0.5,-0.5m20.5,-7l0,3c0,0.552 -0.447,1 -0.999,1l-1,0c-0.553,0 -1,-0.448 -1,-1l0,-1l-4.001,0l0,12l1,0c0.553,0 1,0.448 1,1l0,1c0,0.552 -0.447,1 -1,1l-6,0c-0.553,0 -1,-0.448 -1,-1l0,-1c0,-0.552 0.447,-1 1,-1l1,0l0,-12l-3.999,0l0,1c0,0.552 -0.448,1 -1,1l-1,0c-0.553,0 -1,-0.448 -1,-1l-0.001,-3c0,-0.552 0.447,-1 1,-1l16.001,0c0.552,0 0.999,0.448 0.999,1" style="fill:#363636;fill-rule:nonzero;"/></g><g id="Icon" transform="matrix(64.906,0,0,64.906,1575.7,310.034)"><path d="M0,22l-1,0c-0.276,0 -0.5,0.224 -0.5,0.5l0,1c0,0.276 0.224,0.5 0.5,0.5l1,0c0.276,0 0.5,-0.224 0.5,-0.5l0,-1c0,-0.276 -0.224,-0.5 -0.5,-0.5m0,-24l-1,0c-0.276,0 -0.5,0.224 -0.5,0.5l0,1c0,0.276 0.224,0.5 0.5,0.5l1,0c0.276,0 0.5,-0.224 0.5,-0.5l0,-1c0,-0.276 -0.224,-0.5 -0.5,-0.5m-8,24l-1,0c-0.276,0 -0.5,0.224 -0.5,0.5l0,1c0,0.276 0.224,0.5 0.5,0.5l1,0c0.276,0 0.5,-0.224 0.5,-0.5l0,-1c0,-0.276 -0.224,-0.5 -0.5,-0.5m12,0l-1,0c-0.276,0 -0.5,0.224 -0.5,0.5l0,1c0,0.276 0.224,0.5 0.5,0.5l1,0c0.276,0 0.5,-0.224 0.5,-0.5l0,-1c0,-0.276 -0.224,-0.5 -0.5,-0.5m-8,0l-1,0c-0.276,0 -0.5,0.224 -0.5,0.5l0,1c0,0.276 0.224,0.5 0.5,0.5l1,0c0.276,0 0.5,-0.224 0.5,-0.5l0,-1c0,-0.276 -0.224,-0.5 -0.5,-0.5m-8,0l-1,0c-0.276,0 -0.5,0.224 -0.5,0.5l0,1c0,0.276 0.224,0.5 0.5,0.5l1,0c0.276,0 0.5,-0.224 0.5,-0.5l0,-1c0,-0.276 -0.224,-0.5 -0.5,-0.5m16,-4l-1,0c-0.276,0 -0.5,0.224 -0.5,0.5l0,1c0,0.276 0.224,0.5 0.5,0.5l1,0c0.276,0 0.5,-0.224 0.5,-0.5l0,-1c0,-0.276 -0.224,-0.5 -0.5,-0.5m0,-20l-1,0c-0.276,0 -0.5,0.224 -0.5,0.5l0,1c0,0.276 0.224,0.5 0.5,0.5l1,0c0.276,0 0.5,-0.224 0.5,-0.5l0,-1c0,-0.276 -0.224,-0.5 -0.5,-0.5m0,4l-1,0c-0.276,0 -0.5,0.224 -0.5,0.5l0,1c0,0.276 0.224,0.5 0.5,0.5l1,0c0.276,0 0.5,-0.224 0.5,-0.5l0,-1c0,-0.276 -0.224,-0.5 -0.5,-0.5m0,12l-1,0c-0.276,0 -0.5,0.224 -0.5,0.5l0,1c0,0.276 0.224,0.5 0.5,0.5l1,0c0.276,0 0.5,-0.224 0.5,-0.5l0,-1c0,-0.276 -0.224,-0.5 -0.5,-0.5m0,-8l-1,0c-0.276,0 -0.5,0.224 -0.5,0.5l0,1c0,0.276 0.224,0.5 0.5,0.5l1,0c0.276,0 0.5,-0.224 0.5,-0.5l0,-1c0,-0.276 -0.224,-0.5 -0.5,-0.5m0,4l-1,0c-0.276,0 -0.5,0.224 -0.5,0.5l0,1c0,0.276 0.224,0.5 0.5,0.5l1,0c0.276,0 0.5,-0.224 0.5,-0.5l0,-1c0,-0.276 -0.224,-0.5 -0.5,-0.5m-24,4l-1,0c-0.276,0 -0.5,0.224 -0.5,0.5l0,1c0,0.276 0.224,0.5 0.5,0.5l1,0c0.276,0 0.5,-0.224 0.5,-0.5l0,-1c0,-0.276 -0.224,-0.5 -0.5,-0.5m0,4l-1,0c-0.276,0 -0.5,0.224 -0.5,0.5l0,1c0,0.276 0.224,0.5 0.5,0.5l1,0c0.276,0 0.5,-0.224 0.5,-0.5l0,-1c0,-0.276 -0.224,-0.5 -0.5,-0.5m0,4l-1,0c-0.276,0 -0.5,0.224 -0.5,0.5l0,1c0,0.276 0.224,0.5 0.5,0.5l1,0c0.276,0 0.5,-0.224 0.5,-0.5l0,-1c0,-0.276 -0.224,-0.5 -0.5,-0.5m4,0l-1,0c-0.276,0 -0.5,0.224 -0.5,0.5l0,1c0,0.276 0.224,0.5 0.5,0.5l1,0c0.276,0 0.5,-0.224 0.5,-0.5l0,-1c0,-0.276 -0.224,-0.5 -0.5,-0.5m3,-22l1,0c0.276,0 0.5,-0.224 0.5,-0.5l0,-1c0,-0.276 -0.224,-0.5 -0.5,-0.5l-1,0c-0.276,0 -0.5,0.224 -0.5,0.5l0,1c0,0.276 0.224,0.5 0.5,0.5m8,0l1,0c0.276,0 0.5,-0.224 0.5,-0.5l0,-1c0,-0.276 -0.224,-0.5 -0.5,-0.5l-1,0c-0.276,0 -0.5,0.224 -0.5,0.5l0,1c0,0.276 0.224,0.5 0.5,0.5m-4,0l1,0c0.276,0 0.5,-0.224 0.5,-0.5l0,-1c0,-0.276 -0.224,-0.5 -0.5,-0.5l-1,0c-0.276,0 -0.5,0.224 -0.5,0.5l0,1c0,0.276 0.224,0.5 0.5,0.5m-8,0l1,0c0.276,0 0.5,-0.224 0.5,-0.5l0,-1c0,-0.276 -0.224,-0.5 -0.5,-0.5l-1,0c-0.276,0 -0.5,0.224 -0.5,0.5l0,1c0,0.276 0.224,0.5 0.5,0.5m-3,-2l-1,0c-0.276,0 -0.5,0.224 -0.5,0.5l0,1c0,0.276 0.224,0.5 0.5,0.5l1,0c0.276,0 0.5,-0.224 0.5,-0.5l0,-1c0,-0.276 -0.224,-0.5 -0.5,-0.5m0,4l-1,0c-0.276,0 -0.5,0.224 -0.5,0.5l0,1c0,0.276 0.224,0.5 0.5,0.5l1,0c0.276,0 0.5,-0.224 0.5,-0.5l0,-1c0,-0.276 -0.224,-0.5 -0.5,-0.5m0,4l-1,0c-0.276,0 -0.5,0.224 -0.5,0.5l0,1c0,0.276 0.224,0.5 0.5,0.5l1,0c0.276,0 0.5,-0.224 0.5,-0.5l0,-1c0,-0.276 -0.224,-0.5 -0.5,-0.5m0,4l-1,0c-0.276,0 -0.5,0.224 -0.5,0.5l0,1c0,0.276 0.224,0.5 0.5,0.5l1,0c0.276,0 0.5,-0.224 0.5,-0.5l0,-1c0,-0.276 -0.224,-0.5 -0.5,-0.5m20.5,-7l0,3c0,0.552 -0.447,1 -0.999,1l-1,0c-0.553,0 -1,-0.448 -1,-1l0,-1l-4.001,0l0,12l1,0c0.553,0 1,0.448 1,1l0,1c0,0.552 -0.447,1 -1,1l-6,0c-0.553,0 -1,-0.448 -1,-1l0,-1c0,-0.552 0.447,-1 1,-1l1,0l0,-12l-3.999,0l0,1c0,0.552 -0.448,1 -1,1l-1,0c-0.553,0 -1,-0.448 -1,-1l-0.001,-3c0,-0.552 0.447,-1 1,-1l16.001,0c0.552,0 0.999,0.448 0.999,1" style="fill:url(#_Linear1);fill-rule:nonzero;"/></g></g></g></g><defs><linearGradient id="_Linear1" x1="0" y1="0" x2="1" y2="0" gradientUnits="userSpaceOnUse" gradientTransform="matrix(26,0,0,26,-21.5,11)"><stop offset="0" style="stop-color:#25e2f5;stop-opacity:1"/><stop offset="0.5" style="stop-color:#1c9aff;stop-opacity:1"/><stop offset="1" style="stop-color:#e062e9;stop-opacity:1"/></linearGradient></defs></svg>