<?xml version="1.0" encoding="UTF-8" standalone="no"?><!DOCTYPE svg PUBLIC "-//W3C//DTD SVG 1.1//EN" "http://www.w3.org/Graphics/SVG/1.1/DTD/svg11.dtd"><svg width="8534px" height="8534px" version="1.1" xmlns="http://www.w3.org/2000/svg" xmlns:xlink="http://www.w3.org/1999/xlink" xml:space="preserve" xmlns:serif="http://www.serif.com/" style="fill-rule:evenodd;clip-rule:evenodd;stroke-linejoin:round;stroke-miterlimit:2;"><g transform="matrix(4.16667,0,0,4.16667,0,0)"><g id="UI"><g id="SelectActor"><g id="Shadow" transform="matrix(64.2857,0,0,64.2857,1542.66,493.657)"><path d="M0,17.744L-5.136,15.039C-5.959,16.726 -7.687,17.872 -9.621,17.872L-11.516,17.872C-13.449,17.872 -15.178,16.726 -16.001,15.039L-21.137,17.744C-21.651,17.945 -22.068,18.556 -22.068,19.109L-22.068,21.872C-22.068,22.424 -21.621,22.872 -21.068,22.872L-0.068,22.872C0.484,22.872 0.932,22.424 0.932,21.872L0.932,19.109C0.932,18.556 0.515,17.945 0,17.744M0.185,3.751L2.475,-1.461C2.575,-1.646 2.489,-1.785 2.261,-1.672L-2.911,0.6C-3.1,0.667 -3.1,0.841 -2.921,0.872L-0.675,1.478L-0.064,3.746C-0.022,3.919 0.156,3.866 0.185,3.751ZM5.932,0.872C5.932,4.185 3.245,6.872 -0.068,6.872C-3.382,6.872 -6.068,4.185 -6.068,0.872C-6.068,-2.442 -3.382,-5.128 -0.068,-5.128C3.245,-5.128 5.932,-2.442 5.932,0.872M-16.703,8.246C-16.999,7.452 -16.716,6.773 -16.068,6.502L-16.068,3.872C-16.068,0.872 -14.068,-1.128 -10.568,-1.128C-9.55,-1.128 -8.675,-0.941 -7.923,-0.627C-8.016,-0.141 -8.068,0.359 -8.068,0.872C-8.068,3.719 -6.569,6.216 -4.323,7.634C-4.322,7.827 -4.353,8.031 -4.434,8.246L-4.713,8.997C-4.934,9.591 -5.434,10.116 -6.023,10.46L-6.689,13.512C-6.99,14.89 -8.21,15.872 -9.621,15.872L-11.516,15.872C-12.927,15.872 -14.146,14.89 -14.447,13.512L-15.113,10.46C-15.703,10.116 -16.203,9.591 -16.424,8.997L-16.703,8.246Z" style="fill:#363636;fill-rule:nonzero;"/></g><g id="Icon" transform="matrix(64.2857,0,0,64.2857,1542.66,453.657)"><path d="M0,17.744L-5.136,15.039C-5.959,16.726 -7.687,17.872 -9.621,17.872L-11.516,17.872C-13.449,17.872 -15.178,16.726 -16.001,15.039L-21.137,17.744C-21.651,17.945 -22.068,18.556 -22.068,19.109L-22.068,21.872C-22.068,22.424 -21.621,22.872 -21.068,22.872L-0.068,22.872C0.484,22.872 0.932,22.424 0.932,21.872L0.932,19.109C0.932,18.556 0.515,17.945 0,17.744M0.185,3.751L2.475,-1.461C2.575,-1.646 2.489,-1.785 2.261,-1.672L-2.911,0.6C-3.1,0.667 -3.1,0.841 -2.921,0.872L-0.675,1.478L-0.064,3.746C-0.022,3.919 0.156,3.866 0.185,3.751ZM5.932,0.872C5.932,4.185 3.245,6.872 -0.068,6.872C-3.382,6.872 -6.068,4.185 -6.068,0.872C-6.068,-2.442 -3.382,-5.128 -0.068,-5.128C3.245,-5.128 5.932,-2.442 5.932,0.872M-16.703,8.246C-16.999,7.452 -16.716,6.773 -16.068,6.502L-16.068,3.872C-16.068,0.872 -14.068,-1.128 -10.568,-1.128C-9.55,-1.128 -8.675,-0.941 -7.923,-0.627C-8.016,-0.141 -8.068,0.359 -8.068,0.872C-8.068,3.719 -6.569,6.216 -4.323,7.634C-4.322,7.827 -4.353,8.031 -4.434,8.246L-4.713,8.997C-4.934,9.591 -5.434,10.116 -6.023,10.46L-6.689,13.512C-6.99,14.89 -8.21,15.872 -9.621,15.872L-11.516,15.872C-12.927,15.872 -14.146,14.89 -14.447,13.512L-15.113,10.46C-15.703,10.116 -16.203,9.591 -16.424,8.997L-16.703,8.246Z" style="fill:#ccc;fill-rule:nonzero;"/></g></g></g><g id="ProcGenEd"></g></g></svg>