<?xml version="1.0" encoding="UTF-8" standalone="no"?><!DOCTYPE svg PUBLIC "-//W3C//DTD SVG 1.1//EN" "http://www.w3.org/Graphics/SVG/1.1/DTD/svg11.dtd"><svg width="8534px" height="8534px" version="1.1" xmlns="http://www.w3.org/2000/svg" xmlns:xlink="http://www.w3.org/1999/xlink" xml:space="preserve" xmlns:serif="http://www.serif.com/" style="fill-rule:evenodd;clip-rule:evenodd;stroke-linejoin:round;stroke-miterlimit:2;"><g transform="matrix(4.16667,0,0,4.16667,0,0)"><g id="UI"><g id="Reset"><g id="Shadow" transform="matrix(70.3771,0,0,70.4598,1905.16,712.459)"><path d="M0,10.118L-2.427,5.914C-2.703,5.436 -3.314,5.272 -3.793,5.548L-5.524,6.548C-6.003,6.824 -6.167,7.436 -5.891,7.914L-3.984,11.216L-7.521,11.216L-7.521,9.17C-7.521,8.766 -7.974,8.529 -8.305,8.759L-14.149,12.805C-14.437,13.004 -14.437,13.428 -14.149,13.627L-8.305,17.673C-7.974,17.902 -7.521,17.665 -7.521,17.262L-7.521,15.216L-2.943,15.216C-2.229,15.216 -1.568,14.835 -1.212,14.216L0,12.118C0.357,11.499 0.357,10.736 0,10.118M-12.521,-3.57L-10.891,-0.746L-12.774,0.342C-13.123,0.543 -13.103,1.054 -12.738,1.226L-6.312,4.264C-5.997,4.414 -5.629,4.202 -5.601,3.853L-5.019,-3.231C-4.985,-3.632 -5.417,-3.905 -5.767,-3.704L-7.427,-2.746L-9.758,-6.784C-10.115,-7.403 -10.775,-7.784 -11.49,-7.784L-13.551,-7.784C-14.266,-7.784 -14.926,-7.403 -15.283,-6.784L-17.798,-2.429C-18.073,-1.95 -17.909,-1.339 -17.432,-1.063L-15.699,-0.063C-15.221,0.213 -14.609,0.05 -14.333,-0.429L-12.521,-3.57ZM-16.521,12.216L-16.521,14.216C-16.521,14.768 -16.968,15.216 -17.521,15.216L-22.098,15.216C-22.812,15.216 -23.473,14.835 -23.829,14.216L-25.041,12.118C-25.398,11.499 -25.398,10.736 -25.041,10.118L-22.797,6.231L-24.774,5.09C-25.123,4.889 -25.103,4.378 -24.738,4.205L-18.312,1.167C-17.996,1.017 -17.629,1.229 -17.601,1.578L-17.019,8.662C-16.985,9.063 -17.417,9.337 -17.767,9.136L-19.333,8.231L-21.057,11.216L-17.521,11.216C-16.968,11.216 -16.521,11.663 -16.521,12.216" style="fill:#363636;fill-rule:nonzero;"/></g><g id="Icon" transform="matrix(70.3771,0,0,70.4598,1905.16,672.459)"><path d="M0,10.118L-2.427,5.914C-2.703,5.436 -3.314,5.272 -3.793,5.548L-5.524,6.548C-6.003,6.824 -6.167,7.436 -5.891,7.914L-3.984,11.216L-7.521,11.216L-7.521,9.17C-7.521,8.766 -7.974,8.529 -8.305,8.759L-14.149,12.805C-14.437,13.004 -14.437,13.428 -14.149,13.627L-8.305,17.673C-7.974,17.902 -7.521,17.665 -7.521,17.262L-7.521,15.216L-2.943,15.216C-2.229,15.216 -1.568,14.835 -1.212,14.216L0,12.118C0.357,11.499 0.357,10.736 0,10.118M-12.521,-3.57L-10.891,-0.746L-12.774,0.342C-13.123,0.543 -13.103,1.054 -12.738,1.226L-6.312,4.264C-5.997,4.414 -5.629,4.202 -5.601,3.853L-5.019,-3.231C-4.985,-3.632 -5.417,-3.905 -5.767,-3.704L-7.427,-2.746L-9.758,-6.784C-10.115,-7.403 -10.775,-7.784 -11.49,-7.784L-13.551,-7.784C-14.266,-7.784 -14.926,-7.403 -15.283,-6.784L-17.798,-2.429C-18.073,-1.95 -17.909,-1.339 -17.432,-1.063L-15.699,-0.063C-15.221,0.213 -14.609,0.05 -14.333,-0.429L-12.521,-3.57ZM-16.521,12.216L-16.521,14.216C-16.521,14.768 -16.968,15.216 -17.521,15.216L-22.098,15.216C-22.812,15.216 -23.473,14.835 -23.829,14.216L-25.041,12.118C-25.398,11.499 -25.398,10.736 -25.041,10.118L-22.797,6.231L-24.774,5.09C-25.123,4.889 -25.103,4.378 -24.738,4.205L-18.312,1.167C-17.996,1.017 -17.629,1.229 -17.601,1.578L-17.019,8.662C-16.985,9.063 -17.417,9.337 -17.767,9.136L-19.333,8.231L-21.057,11.216L-17.521,11.216C-16.968,11.216 -16.521,11.663 -16.521,12.216" style="fill:#ccc;fill-rule:nonzero;"/></g></g></g><g id="ProcGenEd"></g></g></svg>