<?xml version="1.0" encoding="UTF-8" standalone="no"?><!DOCTYPE svg PUBLIC "-//W3C//DTD SVG 1.1//EN" "http://www.w3.org/Graphics/SVG/1.1/DTD/svg11.dtd"><svg width="8534px" height="8534px" version="1.1" xmlns="http://www.w3.org/2000/svg" xmlns:xlink="http://www.w3.org/1999/xlink" xml:space="preserve" xmlns:serif="http://www.serif.com/" style="fill-rule:evenodd;clip-rule:evenodd;stroke-linejoin:round;stroke-miterlimit:2;"><g transform="matrix(4.16667,0,0,4.16667,0,0)"><g id="UI"><g id="Build"><g id="Shadow" transform="matrix(81.8182,0,0,72,164.909,1172)"><path d="M0,-3L4,-3C4.276,-3 4.5,-3.224 4.5,-3.5L4.5,-6L20.5,-6C21.052,-6 21.5,-6.358 21.5,-6.8L21.5,-9.2C21.5,-9.642 21.053,-10 20.5,-10L4.5,-10L4.5,-13.5C4.5,-13.776 4.276,-14 4,-14L2.75,-14C2.593,-14 2.444,-13.926 2.35,-13.8L-0.5,-10L-0.5,-3.5C-0.5,-3.224 -0.276,-3 0,-3M21.5,-2.5L21.5,-0.931C21.5,-0.431 21.129,-0.008 20.632,0.053C17.176,0.48 14.5,3.428 14.5,7L14.5,8L16.5,8C17.053,8 17.5,8.448 17.5,9L17.5,11L3.5,11L3.5,9C3.5,8.448 3.947,8 4.5,8L6.5,8L6.5,5C6.5,4.448 6.053,4 5.5,4L4.5,4C1.934,4 -0.182,2.066 -0.467,-0.424C-0.502,-0.728 -0.276,-1 0.03,-1L7,-1C7.276,-1 7.5,-1.224 7.5,-1.5L7.5,-2.5C7.5,-2.776 7.724,-3 8,-3L21,-3C21.276,-3 21.5,-2.776 21.5,-2.5" style="fill:#363636;fill-rule:nonzero;"/></g><g id="Build1" serif:id="Build" transform="matrix(81.8182,0,0,72,164.909,1132)"><path d="M0,-3L4,-3C4.276,-3 4.5,-3.224 4.5,-3.5L4.5,-6L20.5,-6C21.052,-6 21.5,-6.358 21.5,-6.8L21.5,-9.2C21.5,-9.642 21.053,-10 20.5,-10L4.5,-10L4.5,-13.5C4.5,-13.776 4.276,-14 4,-14L2.75,-14C2.593,-14 2.444,-13.926 2.35,-13.8L-0.5,-10L-0.5,-3.5C-0.5,-3.224 -0.276,-3 0,-3M21.5,-2.5L21.5,-0.931C21.5,-0.431 21.129,-0.008 20.632,0.053C17.176,0.48 14.5,3.428 14.5,7L14.5,8L16.5,8C17.053,8 17.5,8.448 17.5,9L17.5,11L3.5,11L3.5,9C3.5,8.448 3.947,8 4.5,8L6.5,8L6.5,5C6.5,4.448 6.053,4 5.5,4L4.5,4C1.934,4 -0.182,2.066 -0.467,-0.424C-0.502,-0.728 -0.276,-1 0.03,-1L7,-1C7.276,-1 7.5,-1.224 7.5,-1.5L7.5,-2.5C7.5,-2.776 7.724,-3 8,-3L21,-3C21.276,-3 21.5,-2.776 21.5,-2.5" style="fill:#ccc;fill-rule:nonzero;"/></g></g></g><g id="ProcGenEd"></g></g></svg>