<?xml version="1.0" encoding="UTF-8" standalone="no"?><!DOCTYPE svg PUBLIC "-//W3C//DTD SVG 1.1//EN" "http://www.w3.org/Graphics/SVG/1.1/DTD/svg11.dtd"><svg width="8534px" height="8534px" version="1.1" xmlns="http://www.w3.org/2000/svg" xmlns:xlink="http://www.w3.org/1999/xlink" xml:space="preserve" xmlns:serif="http://www.serif.com/" style="fill-rule:evenodd;clip-rule:evenodd;stroke-linejoin:round;stroke-miterlimit:2;"><g transform="matrix(4.16667,0,0,4.16667,0,0)"><g id="UI"></g><g id="Calculate" transform="matrix(3.33319,0,0,3.33319,-4369.55,-4230.97)"><g id="ProcGenEd"><g id="Calculate1" serif:id="Calculate"><g id="Shadow" transform="matrix(20.8333,0,0,20.8333,1753.55,1697.14)"><path d="M0,-11C0,-10.724 -0.224,-10.5 -0.5,-10.5L-12.5,-10.5C-12.776,-10.5 -13,-10.724 -13,-11L-13,-14C-13,-14.276 -12.776,-14.5 -12.5,-14.5L-0.5,-14.5C-0.224,-14.5 0,-14.276 0,-14L0,-11ZM-1.5,-5.5C-2.328,-5.5 -3,-6.171 -3,-7C-3,-7.829 -2.328,-8.5 -1.5,-8.5C-0.672,-8.5 0,-7.829 0,-7C0,-6.171 -0.672,-5.5 -1.5,-5.5M-1.5,-0.5C-2.328,-0.5 -3,-1.171 -3,-2C-3,-2.829 -2.328,-3.5 -1.5,-3.5C-0.672,-3.5 0,-2.829 0,-2C0,-1.171 -0.672,-0.5 -1.5,-0.5M-1.5,4.5C-2.328,4.5 -3,3.829 -3,3C-3,2.171 -2.328,1.5 -1.5,1.5C-0.672,1.5 0,2.171 0,3C0,3.829 -0.672,4.5 -1.5,4.5M-6.5,-5.5C-7.328,-5.5 -8,-6.171 -8,-7C-8,-7.829 -7.328,-8.5 -6.5,-8.5C-5.672,-8.5 -5,-7.829 -5,-7C-5,-6.171 -5.672,-5.5 -6.5,-5.5M-6.5,-0.5C-7.328,-0.5 -8,-1.171 -8,-2C-8,-2.829 -7.328,-3.5 -6.5,-3.5C-5.672,-3.5 -5,-2.829 -5,-2C-5,-1.171 -5.672,-0.5 -6.5,-0.5M-6.5,4.5C-7.328,4.5 -8,3.829 -8,3C-8,2.171 -7.328,1.5 -6.5,1.5C-5.672,1.5 -5,2.171 -5,3C-5,3.829 -5.672,4.5 -6.5,4.5M-11.5,-5.5C-12.328,-5.5 -13,-6.171 -13,-7C-13,-7.829 -12.328,-8.5 -11.5,-8.5C-10.672,-8.5 -10,-7.829 -10,-7C-10,-6.171 -10.672,-5.5 -11.5,-5.5M-11.5,-0.5C-12.328,-0.5 -13,-1.171 -13,-2C-13,-2.829 -12.328,-3.5 -11.5,-3.5C-10.672,-3.5 -10,-2.829 -10,-2C-10,-1.171 -10.672,-0.5 -11.5,-0.5M-11.5,4.5C-12.328,4.5 -13,3.829 -13,3C-13,2.171 -12.328,1.5 -11.5,1.5C-10.672,1.5 -10,2.171 -10,3C-10,3.829 -10.672,4.5 -11.5,4.5M1,-17.5L-14,-17.5C-15.104,-17.5 -16,-16.604 -16,-15.5L-16,4.5C-16,5.604 -15.104,6.5 -14,6.5L1,6.5C2.104,6.5 3,5.604 3,4.5L3,-15.5C3,-16.604 2.104,-17.5 1,-17.5" style="fill:#363636;fill-rule:nonzero;"/></g><g id="Icon" transform="matrix(20.8333,0,0,20.8333,1753.55,1685.14)"><path d="M0,-11C0,-10.724 -0.224,-10.5 -0.5,-10.5L-12.5,-10.5C-12.776,-10.5 -13,-10.724 -13,-11L-13,-14C-13,-14.276 -12.776,-14.5 -12.5,-14.5L-0.5,-14.5C-0.224,-14.5 0,-14.276 0,-14L0,-11ZM-1.5,-5.5C-2.328,-5.5 -3,-6.171 -3,-7C-3,-7.829 -2.328,-8.5 -1.5,-8.5C-0.672,-8.5 0,-7.829 0,-7C0,-6.171 -0.672,-5.5 -1.5,-5.5M-1.5,-0.5C-2.328,-0.5 -3,-1.171 -3,-2C-3,-2.829 -2.328,-3.5 -1.5,-3.5C-0.672,-3.5 0,-2.829 0,-2C0,-1.171 -0.672,-0.5 -1.5,-0.5M-1.5,4.5C-2.328,4.5 -3,3.829 -3,3C-3,2.171 -2.328,1.5 -1.5,1.5C-0.672,1.5 0,2.171 0,3C0,3.829 -0.672,4.5 -1.5,4.5M-6.5,-5.5C-7.328,-5.5 -8,-6.171 -8,-7C-8,-7.829 -7.328,-8.5 -6.5,-8.5C-5.672,-8.5 -5,-7.829 -5,-7C-5,-6.171 -5.672,-5.5 -6.5,-5.5M-6.5,-0.5C-7.328,-0.5 -8,-1.171 -8,-2C-8,-2.829 -7.328,-3.5 -6.5,-3.5C-5.672,-3.5 -5,-2.829 -5,-2C-5,-1.171 -5.672,-0.5 -6.5,-0.5M-6.5,4.5C-7.328,4.5 -8,3.829 -8,3C-8,2.171 -7.328,1.5 -6.5,1.5C-5.672,1.5 -5,2.171 -5,3C-5,3.829 -5.672,4.5 -6.5,4.5M-11.5,-5.5C-12.328,-5.5 -13,-6.171 -13,-7C-13,-7.829 -12.328,-8.5 -11.5,-8.5C-10.672,-8.5 -10,-7.829 -10,-7C-10,-6.171 -10.672,-5.5 -11.5,-5.5M-11.5,-0.5C-12.328,-0.5 -13,-1.171 -13,-2C-13,-2.829 -12.328,-3.5 -11.5,-3.5C-10.672,-3.5 -10,-2.829 -10,-2C-10,-1.171 -10.672,-0.5 -11.5,-0.5M-11.5,4.5C-12.328,4.5 -13,3.829 -13,3C-13,2.171 -12.328,1.5 -11.5,1.5C-10.672,1.5 -10,2.171 -10,3C-10,3.829 -10.672,4.5 -11.5,4.5M1,-17.5L-14,-17.5C-15.104,-17.5 -16,-16.604 -16,-15.5L-16,4.5C-16,5.604 -15.104,6.5 -14,6.5L1,6.5C2.104,6.5 3,5.604 3,4.5L3,-15.5C3,-16.604 2.104,-17.5 1,-17.5" style="fill:#ccc;fill-rule:nonzero;"/></g></g></g></g></g></svg>