<?xml version="1.0" encoding="UTF-8" standalone="no"?><!DOCTYPE svg PUBLIC "-//W3C//DTD SVG 1.1//EN" "http://www.w3.org/Graphics/SVG/1.1/DTD/svg11.dtd"><svg width="100%" height="100%" viewBox="0 0 8534 8534" version="1.1" xmlns="http://www.w3.org/2000/svg" xmlns:xlink="http://www.w3.org/1999/xlink" xml:space="preserve" xmlns:serif="http://www.serif.com/" style="fill-rule:evenodd;clip-rule:evenodd;stroke-linejoin:round;stroke-miterlimit:2;"><g id="Exported"><g id="DataAsset"><g id="NCell"><path id="Shadow" d="M7736.69,4995.45l-946.37,532.964l-946.369,-532.964l-0,-1052.03l946.369,-533.28l946.37,533.28l0,1052.03Zm-1261.83,2211.47l-946.37,533.28l-946.37,-533.28l0,-1052.03l946.37,-533.279l946.37,533.279l-0,1052.03Zm-3470.02,533.28l-946.369,-533.28l-0,-1052.03l946.369,-533.279l946.37,533.279l0,1052.03l-946.37,533.28Zm-2208.2,-3796.77l946.37,-533.28l946.37,533.28l-0,1052.03l-946.37,532.964l-946.37,-532.964l0,-1052.03Zm1261.83,-2211.47l946.369,-533.28l946.37,533.28l0,1052.03l-946.37,533.279l-946.369,-533.279l-0,-1052.03Zm3470.02,-533.28l946.37,533.28l-0,1052.03l-946.37,533.279l-946.37,-533.279l0,-1052.03l946.37,-533.28Zm-315.457,3796.77l-946.369,532.964l-946.37,-532.964l-0,-1052.03l946.37,-533.28l946.369,533.28l0,1052.03Zm2993.68,-1512.01l-1100.94,-620.158l0,-1316.14c0,-114.049 -61.514,-219.252 -160.883,-275.17l-1261.83,-710.829c-95.899,-54.339 -213.249,-54.339 -309.148,-0l-1107.25,623.634l-1107.25,-623.634c-95.899,-54.339 -213.249,-54.339 -309.147,-0l-1261.83,710.829c-99.369,55.918 -160.883,161.121 -160.883,275.17l0,1316.14l-1100.94,620.158c-99.369,55.919 -160.883,161.122 -160.883,275.17l-0,1421.66c-0,114.048 61.514,219.251 160.883,275.17l1100.94,620.158l0,1316.14c0,114.049 61.514,219.252 160.883,275.17l1261.83,710.829c47.949,27.169 101.261,40.754 154.573,40.754c53.312,0 106.625,-13.585 154.574,-40.754l1107.25,-623.95l1107.25,623.95c47.95,27.169 101.262,40.754 154.574,40.754c53.312,0 106.624,-13.585 154.574,-40.754l1261.83,-710.829c99.369,-55.918 160.883,-161.121 160.883,-275.17l0,-1316.14l1100.94,-620.158c99.368,-55.919 160.882,-161.122 160.882,-275.17l0,-1421.66c0,-114.048 -61.514,-219.251 -160.882,-275.17" style="fill:#363636;fill-rule:nonzero;"/><path id="Icon" d="M7736.69,4589.9l-946.37,532.963l-946.369,-532.963l-0,-1052.03l946.369,-533.28l946.37,533.28l0,1052.03Zm-1261.83,2211.47l-946.37,533.28l-946.37,-533.28l0,-1052.03l946.37,-533.28l946.37,533.28l-0,1052.03Zm-3470.02,533.28l-946.369,-533.28l-0,-1052.03l946.369,-533.28l946.37,533.28l0,1052.03l-946.37,533.28Zm-2208.2,-3796.77l946.37,-533.28l946.37,533.28l-0,1052.03l-946.37,532.963l-946.37,-532.963l0,-1052.03Zm1261.83,-2211.47l946.369,-533.279l946.37,533.279l0,1052.03l-946.37,533.28l-946.369,-533.28l-0,-1052.03Zm3470.02,-533.279l946.37,533.279l-0,1052.03l-946.37,533.28l-946.37,-533.28l0,-1052.03l946.37,-533.279Zm-315.457,3796.77l-946.369,532.963l-946.37,-532.963l-0,-1052.03l946.37,-533.28l946.369,533.28l0,1052.03Zm2993.68,-1512.01l-1100.94,-620.159l0,-1316.14c0,-114.049 -61.514,-219.251 -160.883,-275.17l-1261.83,-710.829c-95.899,-54.339 -213.249,-54.339 -309.148,0l-1107.25,623.634l-1107.25,-623.634c-95.899,-54.339 -213.249,-54.339 -309.147,0l-1261.83,710.829c-99.369,55.919 -160.883,161.121 -160.883,275.17l0,1316.14l-1100.94,620.159c-99.369,55.918 -160.883,161.121 -160.883,275.169l-0,1421.66c-0,114.049 61.514,219.251 160.883,275.17l1100.94,620.159l0,1316.14c0,114.048 61.514,219.251 160.883,275.17l1261.83,710.828c47.949,27.17 101.261,40.755 154.573,40.755c53.312,-0 106.625,-13.585 154.574,-40.755l1107.25,-623.949l1107.25,623.949c47.95,27.17 101.262,40.755 154.574,40.755c53.312,-0 106.624,-13.585 154.574,-40.755l1261.83,-710.828c99.369,-55.919 160.883,-161.122 160.883,-275.17l0,-1316.14l1100.94,-620.159c99.368,-55.919 160.882,-161.121 160.882,-275.17l0,-1421.66c0,-114.048 -61.514,-219.251 -160.882,-275.169" style="fill:#fff;fill-rule:nonzero;"/></g></g></g></svg>