<?xml version="1.0" encoding="UTF-8" standalone="no"?><!DOCTYPE svg PUBLIC "-//W3C//DTD SVG 1.1//EN" "http://www.w3.org/Graphics/SVG/1.1/DTD/svg11.dtd"><svg width="100%" height="100%" viewBox="0 0 8534 8534" version="1.1" xmlns="http://www.w3.org/2000/svg" xmlns:xlink="http://www.w3.org/1999/xlink" xml:space="preserve" xmlns:serif="http://www.serif.com/" style="fill-rule:evenodd;clip-rule:evenodd;stroke-linejoin:round;stroke-miterlimit:2;"><g transform="matrix(4.16667,0,0,4.16667,0,0)"><g id="NOrganComponent"><g id="Shadow" transform="matrix(74.5974,0,0,74.5974,1098.6,964.747)"><path d="M0,2.613L0,13.613L9.515,7.904C9.815,7.723 10,7.398 10,7.047L10,-3.387L0,2.613ZM-0.485,-10.811C-0.802,-11 -1.198,-11 -1.515,-10.811L-11,-5.119L-1,0.881L9,-5.119L-0.485,-10.811ZM-12,-3.387L-2,2.613L-2,13.613L-11.515,7.904C-11.815,7.723 -12,7.398 -12,7.047L-12,-3.387Z" style="fill:#363636;fill-rule:nonzero;"/></g><g id="Icon" transform="matrix(74.5974,0,0,74.5974,1098.6,924.776)"><path d="M0,2.613L0,13.613L9.515,7.904C9.815,7.723 10,7.398 10,7.047L10,-3.387L0,2.613ZM-0.485,-10.811C-0.802,-11 -1.198,-11 -1.515,-10.811L-11,-5.119L-1,0.881L9,-5.119L-0.485,-10.811ZM-12,-3.387L-2,2.613L-2,13.613L-11.515,7.904C-11.815,7.723 -12,7.398 -12,7.047L-12,-3.387Z" style="fill:#ccc;fill-rule:nonzero;"/></g></g></g></svg>