<?xml version="1.0" encoding="UTF-8" standalone="no"?><!DOCTYPE svg PUBLIC "-//W3C//DTD SVG 1.1//EN" "http://www.w3.org/Graphics/SVG/1.1/DTD/svg11.dtd"><svg width="100%" height="100%" viewBox="0 0 8534 8534" version="1.1" xmlns="http://www.w3.org/2000/svg" xmlns:xlink="http://www.w3.org/1999/xlink" xml:space="preserve" xmlns:serif="http://www.serif.com/" style="fill-rule:evenodd;clip-rule:evenodd;stroke-linejoin:round;stroke-miterlimit:2;"><g id="Command_EdMode_WorldCollisionIgnore_NotIgnored"><path id="Highlight" d="M2241.42,467.327c879.717,0 1593.93,714.219 1593.93,1593.94c0,879.717 -714.218,1593.93 -1593.93,1593.93c-879.717,0 -1593.94,-714.218 -1593.94,-1593.93c0,-879.717 714.219,-1593.94 1593.94,-1593.94Zm4633.53,2313.06l-1823.76,733.952l1593.93,1449.37l-2272.28,-396.63l-607.919,2201.86l-967.482,-1653.25l-2224.1,856.277l1252.91,-1871.95c175.639,52.191 357.969,78.417 541.197,77.844c1094.03,-0 1994.27,-900.247 1994.27,-1994.27c-2.961,-93.114 -11.626,-185.959 -25.948,-278.012l2016.51,-1453.08l-1112.05,1994.27l1634.71,333.614Zm-2409.44,4073.8l596.799,-834.036l834.036,834.036l1256.61,-1905.31l648.695,474.474l-1905.31,2383.49l-1430.84,-952.654Z" style="fill:#fff;"/><path id="Shadow" d="M2241.42,800.661c879.717,-0 1593.93,714.218 1593.93,1593.93c0,879.717 -714.218,1593.94 -1593.93,1593.94c-879.717,-0 -1593.94,-714.219 -1593.94,-1593.94c0,-879.717 714.219,-1593.93 1593.94,-1593.93Zm4633.53,2313.06l-1823.76,733.951l1593.93,1449.37l-2272.28,-396.63l-607.919,2201.86l-967.482,-1653.25l-2224.1,856.277l1252.91,-1871.95c175.639,52.191 357.969,78.416 541.197,77.843c1094.03,0 1994.27,-900.247 1994.27,-1994.27c-2.961,-93.113 -11.626,-185.958 -25.948,-278.012l2016.51,-1453.08l-1112.05,1994.27l1634.71,333.615Zm-2409.44,4073.8l596.799,-834.036l834.036,834.036l1256.61,-1905.31l648.695,474.474l-1905.31,2383.49l-1430.84,-952.655Z" style="fill:#363636;"/><path id="Icon" d="M2241.42,633.976c879.717,0 1593.93,714.219 1593.93,1593.94c0,879.717 -714.218,1593.93 -1593.93,1593.93c-879.717,0 -1593.94,-714.218 -1593.94,-1593.93c0,-879.717 714.219,-1593.94 1593.94,-1593.94Zm4633.53,2313.06l-1823.76,733.952l1593.93,1449.37l-2272.28,-396.63l-607.919,2201.86l-967.482,-1653.25l-2224.1,856.277l1252.91,-1871.95c175.639,52.191 357.969,78.416 541.197,77.843c1094.03,0 1994.27,-900.247 1994.27,-1994.27c-2.961,-93.114 -11.626,-185.958 -25.948,-278.012l2016.51,-1453.08l-1112.05,1994.27l1634.71,333.614Zm-2409.44,4073.8l596.799,-834.036l834.036,834.036l1256.61,-1905.31l648.695,474.474l-1905.31,2383.49l-1430.84,-952.654Z" style="fill:url(#_Linear1);"/></g><defs><linearGradient id="_Linear1" x1="0" y1="0" x2="1" y2="0" gradientUnits="userSpaceOnUse" gradientTransform="matrix(7228.31,0,0,7354.34,573.344,4296.32)"><stop offset="0" style="stop-color:#25e2f5;stop-opacity:1"/><stop offset="0.5" style="stop-color:#1c9aff;stop-opacity:1"/><stop offset="1" style="stop-color:#e062e9;stop-opacity:1"/></linearGradient></defs></svg>