<?xml version="1.0" encoding="UTF-8" standalone="no"?><!DOCTYPE svg PUBLIC "-//W3C//DTD SVG 1.1//EN" "http://www.w3.org/Graphics/SVG/1.1/DTD/svg11.dtd"><svg width="100%" height="100%" viewBox="0 0 8534 8534" version="1.1" xmlns="http://www.w3.org/2000/svg" xmlns:xlink="http://www.w3.org/1999/xlink" xml:space="preserve" xmlns:serif="http://www.serif.com/" style="fill-rule:evenodd;clip-rule:evenodd;stroke-linejoin:round;stroke-miterlimit:2;"><g id="Command_EdMode_WorldCollisionIgnore_Ignored"><path id="Highlight" d="M6490.76,4841.38c813.402,-0 1482.73,669.329 1482.73,1482.73c0,813.401 -669.328,1482.73 -1482.73,1482.73c-813.402,0 -1482.73,-669.329 -1482.73,-1482.73c0,-813.402 669.329,-1482.73 1482.73,-1482.73Zm-0,2594.78c610.051,-0 1112.05,-501.997 1112.05,-1112.05c-0.599,-222.15 -67.752,-439.104 -192.755,-622.747l-1534.63,1530.92l-289.132,-289.132l1534.63,-1534.63c-185.582,-127.929 -405.747,-196.461 -631.151,-196.461c-610.052,-0 -1112.05,501.996 -1112.05,1112.05c-0,610.051 501.996,1112.05 1112.05,1112.05l0.991,-0Zm796.967,-1883.07c-6.663,-10.43 -15.518,-19.285 -25.947,-25.948l25.947,25.948Zm-5059.82,-5085.77c879.717,0 1593.93,714.219 1593.93,1593.94c0,879.717 -714.218,1593.93 -1593.93,1593.93c-879.717,0 -1593.94,-714.218 -1593.94,-1593.93c0,-879.717 714.219,-1593.94 1593.94,-1593.94Zm4633.53,2313.06l-1823.76,733.952l1082.39,982.309l-774.727,240.944l-986.016,-170.514l-607.919,2201.86l-967.482,-1653.25l-2224.1,856.277l1252.91,-1871.95c175.639,52.191 357.969,78.417 541.197,77.844c1094.03,-0 1994.27,-900.247 1994.27,-1994.27c-2.961,-93.114 -11.626,-185.959 -25.948,-278.012l2016.51,-1453.08l-1112.05,1994.27l1634.71,333.614Z" style="fill:#fff;"/><path id="Shadow" d="M6490.76,5174.72c813.402,0 1482.73,669.329 1482.73,1482.73c0,813.402 -669.328,1482.73 -1482.73,1482.73c-813.402,-0 -1482.73,-669.329 -1482.73,-1482.73c0,-813.402 669.329,-1482.73 1482.73,-1482.73Zm-0,2594.78c610.051,-0 1112.05,-501.997 1112.05,-1112.05c-0.599,-222.149 -67.752,-439.104 -192.755,-622.747l-1534.63,1530.92l-289.132,-289.132l1534.63,-1534.63c-185.582,-127.93 -405.747,-196.462 -631.151,-196.462c-610.052,0 -1112.05,501.997 -1112.05,1112.05c-0,610.052 501.996,1112.05 1112.05,1112.05l0.991,-0Zm796.967,-1883.07c-6.663,-10.43 -15.518,-19.285 -25.947,-25.948l25.947,25.948Zm-5059.82,-5085.77c879.717,-0 1593.93,714.218 1593.93,1593.93c0,879.717 -714.218,1593.94 -1593.93,1593.94c-879.717,-0 -1593.94,-714.219 -1593.94,-1593.94c0,-879.717 714.219,-1593.93 1593.94,-1593.93Zm4633.53,2313.06l-1823.76,733.951l1082.39,982.309l-774.727,240.944l-986.016,-170.514l-607.919,2201.86l-967.482,-1653.25l-2224.1,856.277l1252.91,-1871.95c175.639,52.191 357.969,78.416 541.197,77.843c1094.03,0 1994.27,-900.247 1994.27,-1994.27c-2.961,-93.113 -11.626,-185.958 -25.948,-278.012l2016.51,-1453.08l-1112.05,1994.27l1634.71,333.615Z" style="fill:#363636;"/><path id="Icon" d="M6490.76,5008.03c813.402,0 1482.73,669.329 1482.73,1482.73c0,813.402 -669.328,1482.73 -1482.73,1482.73c-813.402,0 -1482.73,-669.328 -1482.73,-1482.73c0,-813.402 669.329,-1482.73 1482.73,-1482.73Zm-0,2594.78c610.051,-0 1112.05,-501.997 1112.05,-1112.05c-0.599,-222.149 -67.752,-439.104 -192.755,-622.747l-1534.63,1530.92l-289.132,-289.132l1534.63,-1534.63c-185.582,-127.929 -405.747,-196.461 -631.151,-196.461c-610.052,0 -1112.05,501.997 -1112.05,1112.05c-0,610.052 501.996,1112.05 1112.05,1112.05l0.991,-0Zm796.967,-1883.07c-6.663,-10.43 -15.518,-19.285 -25.947,-25.948l25.947,25.948Zm-5059.82,-5085.77c879.717,0 1593.93,714.219 1593.93,1593.94c0,879.717 -714.218,1593.93 -1593.93,1593.93c-879.717,0 -1593.94,-714.218 -1593.94,-1593.93c0,-879.717 714.219,-1593.94 1593.94,-1593.94Zm4633.53,2313.06l-1823.76,733.952l1082.39,982.309l-774.727,240.944l-986.016,-170.514l-607.919,2201.86l-967.482,-1653.25l-2224.1,856.277l1252.91,-1871.95c175.639,52.191 357.969,78.416 541.197,77.843c1094.03,0 1994.27,-900.247 1994.27,-1994.27c-2.961,-93.114 -11.626,-185.958 -25.948,-278.012l2016.51,-1453.08l-1112.05,1994.27l1634.71,333.614Z" style="fill:url(#_Linear1);"/></g><defs><linearGradient id="_Linear1" x1="0" y1="0" x2="1" y2="0" gradientUnits="userSpaceOnUse" gradientTransform="matrix(7413.65,0,0,7354.34,559.84,4296.32)"><stop offset="0" style="stop-color:#25e2f5;stop-opacity:1"/><stop offset="0.5" style="stop-color:#1c9aff;stop-opacity:1"/><stop offset="1" style="stop-color:#e062e9;stop-opacity:1"/></linearGradient></defs></svg>