<?xml version="1.0" encoding="UTF-8" standalone="no"?><!DOCTYPE svg PUBLIC "-//W3C//DTD SVG 1.1//EN" "http://www.w3.org/Graphics/SVG/1.1/DTD/svg11.dtd"><svg width="8534px" height="8534px" version="1.1" xmlns="http://www.w3.org/2000/svg" xmlns:xlink="http://www.w3.org/1999/xlink" xml:space="preserve" xmlns:serif="http://www.serif.com/" style="fill-rule:evenodd;clip-rule:evenodd;stroke-linejoin:round;stroke-miterlimit:2;"><g transform="matrix(4.16667,0,0,4.16667,0,0)"><g id="Bounds" transform="matrix(0.993596,0,0,0.996403,6.55772,-36.1725)"><g id="ProcGenEd"><g id="Bounds1" serif:id="Bounds"><g id="Highlight" transform="matrix(72.0036,0,0,72.0036,1672.03,625.251)"><path d="M0,9.914L-8,14.714L-8,6.047L0,1.247L0,9.914ZM-9,4.314L-17.057,-0.52L-9,-5.354L-0.943,-0.52L-9,4.314ZM-10,14.714L-18,9.914L-18,1.247L-10,6.047L-10,14.714ZM1.965,-0.779C1.957,-0.811 1.939,-0.839 1.929,-0.869C1.909,-0.92 1.894,-0.971 1.867,-1.017C1.848,-1.05 1.821,-1.077 1.799,-1.108C1.77,-1.147 1.744,-1.188 1.711,-1.222C1.683,-1.25 1.648,-1.271 1.618,-1.295C1.583,-1.322 1.553,-1.354 1.515,-1.377L-8.485,-7.377C-8.802,-7.566 -9.198,-7.566 -9.515,-7.377L-19.515,-1.377C-19.553,-1.354 -19.583,-1.322 -19.617,-1.296C-19.648,-1.271 -19.683,-1.25 -19.711,-1.222C-19.744,-1.188 -19.77,-1.148 -19.797,-1.109C-19.82,-1.078 -19.848,-1.051 -19.867,-1.017C-19.893,-0.972 -19.908,-0.922 -19.927,-0.873C-19.939,-0.842 -19.956,-0.813 -19.966,-0.779C-19.988,-0.695 -20,-0.608 -20,-0.52L-20,10.48C-20,10.832 -19.815,11.157 -19.515,11.338L-9.515,17.338C-9.512,17.34 -9.507,17.341 -9.504,17.343C-9.5,17.345 -9.497,17.349 -9.493,17.351C-9.441,17.38 -9.385,17.397 -9.329,17.417C-9.306,17.426 -9.283,17.439 -9.26,17.445C-9.175,17.469 -9.087,17.48 -9,17.48C-8.913,17.48 -8.825,17.469 -8.74,17.445C-8.717,17.439 -8.694,17.426 -8.671,17.417C-8.615,17.397 -8.559,17.38 -8.507,17.351C-8.503,17.349 -8.5,17.345 -8.496,17.343C-8.493,17.341 -8.488,17.34 -8.485,17.338L1.515,11.338C1.815,11.157 2,10.832 2,10.48L2,-0.52C2,-0.608 1.988,-0.695 1.965,-0.779" style="fill:#fff;fill-rule:nonzero;"/></g><g id="Shadow" transform="matrix(72.0036,0,0,72.0036,1672.03,705.54)"><path d="M0,9.914L-8,14.714L-8,6.047L0,1.247L0,9.914ZM-9,4.314L-17.057,-0.52L-9,-5.354L-0.943,-0.52L-9,4.314ZM-10,14.714L-18,9.914L-18,1.247L-10,6.047L-10,14.714ZM1.965,-0.779C1.957,-0.811 1.939,-0.839 1.929,-0.869C1.909,-0.92 1.894,-0.971 1.867,-1.017C1.848,-1.05 1.821,-1.077 1.799,-1.108C1.77,-1.147 1.744,-1.188 1.711,-1.222C1.683,-1.25 1.648,-1.271 1.618,-1.295C1.583,-1.322 1.553,-1.354 1.515,-1.377L-8.485,-7.377C-8.802,-7.566 -9.198,-7.566 -9.515,-7.377L-19.515,-1.377C-19.553,-1.354 -19.583,-1.322 -19.617,-1.296C-19.648,-1.271 -19.683,-1.25 -19.711,-1.222C-19.744,-1.188 -19.77,-1.148 -19.797,-1.109C-19.82,-1.078 -19.848,-1.051 -19.867,-1.017C-19.893,-0.972 -19.908,-0.922 -19.927,-0.873C-19.939,-0.842 -19.956,-0.813 -19.966,-0.779C-19.988,-0.695 -20,-0.608 -20,-0.52L-20,10.48C-20,10.832 -19.815,11.157 -19.515,11.338L-9.515,17.338C-9.512,17.34 -9.507,17.341 -9.504,17.343C-9.5,17.345 -9.497,17.349 -9.493,17.351C-9.441,17.38 -9.385,17.397 -9.329,17.417C-9.306,17.426 -9.283,17.439 -9.26,17.445C-9.175,17.469 -9.087,17.48 -9,17.48C-8.913,17.48 -8.825,17.469 -8.74,17.445C-8.717,17.439 -8.694,17.426 -8.671,17.417C-8.615,17.397 -8.559,17.38 -8.507,17.351C-8.503,17.349 -8.5,17.345 -8.496,17.343C-8.493,17.341 -8.488,17.34 -8.485,17.338L1.515,11.338C1.815,11.157 2,10.832 2,10.48L2,-0.52C2,-0.608 1.988,-0.695 1.965,-0.779" style="fill:#363636;fill-rule:nonzero;"/></g><g id="Bounds2" serif:id="Bounds" transform="matrix(72.0036,0,0,72.0036,1672.03,665.377)"><path d="M0,9.914L-8,14.714L-8,6.047L0,1.247L0,9.914ZM-9,4.314L-17.057,-0.52L-9,-5.354L-0.943,-0.52L-9,4.314ZM-10,14.714L-18,9.914L-18,1.247L-10,6.047L-10,14.714ZM1.965,-0.779C1.957,-0.811 1.939,-0.839 1.929,-0.869C1.909,-0.92 1.894,-0.971 1.867,-1.017C1.848,-1.05 1.821,-1.077 1.799,-1.108C1.77,-1.147 1.744,-1.188 1.711,-1.222C1.683,-1.25 1.648,-1.271 1.618,-1.295C1.583,-1.322 1.553,-1.354 1.515,-1.377L-8.485,-7.377C-8.802,-7.566 -9.198,-7.566 -9.515,-7.377L-19.515,-1.377C-19.553,-1.354 -19.583,-1.322 -19.617,-1.296C-19.648,-1.271 -19.683,-1.25 -19.711,-1.222C-19.744,-1.188 -19.77,-1.148 -19.797,-1.109C-19.82,-1.078 -19.848,-1.051 -19.867,-1.017C-19.893,-0.972 -19.908,-0.922 -19.927,-0.873C-19.939,-0.842 -19.956,-0.813 -19.966,-0.779C-19.988,-0.695 -20,-0.608 -20,-0.52L-20,10.48C-20,10.832 -19.815,11.157 -19.515,11.338L-9.515,17.338C-9.512,17.34 -9.507,17.341 -9.504,17.343C-9.5,17.345 -9.497,17.349 -9.493,17.351C-9.441,17.38 -9.385,17.397 -9.329,17.417C-9.306,17.426 -9.283,17.439 -9.26,17.445C-9.175,17.469 -9.087,17.48 -9,17.48C-8.913,17.48 -8.825,17.469 -8.74,17.445C-8.717,17.439 -8.694,17.426 -8.671,17.417C-8.615,17.397 -8.559,17.38 -8.507,17.351C-8.503,17.349 -8.5,17.345 -8.496,17.343C-8.493,17.341 -8.488,17.34 -8.485,17.338L1.515,11.338C1.815,11.157 2,10.832 2,10.48L2,-0.52C2,-0.608 1.988,-0.695 1.965,-0.779" style="fill:url(#_Linear1);fill-rule:nonzero;"/></g></g></g></g></g><defs><linearGradient id="_Linear1" x1="0" y1="0" x2="1" y2="0" gradientUnits="userSpaceOnUse" gradientTransform="matrix(22,0,0,24.9987,-20,4.98063)"><stop offset="0" style="stop-color:#e062e9;stop-opacity:1"/><stop offset="0.5" style="stop-color:#1c9aff;stop-opacity:1"/><stop offset="1" style="stop-color:#25e2f5;stop-opacity:1"/></linearGradient></defs></svg>