<?xml version="1.0" encoding="UTF-8" standalone="no"?><!DOCTYPE svg PUBLIC "-//W3C//DTD SVG 1.1//EN" "http://www.w3.org/Graphics/SVG/1.1/DTD/svg11.dtd"><svg width="100%" height="100%" viewBox="0 0 8534 8534" version="1.1" xmlns="http://www.w3.org/2000/svg" xmlns:xlink="http://www.w3.org/1999/xlink" xml:space="preserve" xmlns:serif="http://www.serif.com/" style="fill-rule:evenodd;clip-rule:evenodd;stroke-linejoin:round;stroke-miterlimit:2;"><g id="Command_EdMode_CancelQuickAssemblyOperation"><path id="Highlight" d="M6411.1,1517.47l986.109,-986c135.243,-135.244 354.265,-135.244 489.508,0c135.244,135.244 135.244,354.496 0,489.509l-6750.59,6711.22c-67.622,67.622 -156.246,101.317 -244.87,101.317c-88.624,0 -177.017,-33.695 -244.639,-101.317c-135.244,-135.244 -135.244,-354.496 0,-489.509l1717.69,-1696.04c-732.021,-7.167 -1333.66,-561.197 -1415.15,-1273.17c-10.074,-87.493 54.97,-165.775 143.038,-165.775l2005.99,-0c79.434,-0 143.903,-64.468 143.903,-143.902l-0,-287.804c-0,-79.434 64.468,-143.902 143.902,-143.902l1010.46,-0l863.304,-863.413l-2881.08,0l0,719.511c0,79.434 -64.468,143.902 -143.902,143.902l-1151.22,-0c-79.434,-0 -143.902,-64.468 -143.902,-143.902l0,-1870.73l820.242,-1093.65c27.053,-36.263 69.936,-57.561 115.121,-57.561l359.755,0c79.434,0 143.902,64.468 143.902,143.902l0,1007.31l4032.41,0Zm-141.185,2014.63l857.539,-0c79.434,-0 143.902,64.468 143.902,143.902l0,451.564c0,143.902 -106.775,265.643 -249.814,283.199c-994.65,122.893 -1764.81,971.339 -1764.81,1999.38l-0,287.804l575.608,0c159.156,0 287.804,128.937 287.804,287.804l0,575.609l-3904.53,-0l4054.3,-4029.26Z" style="fill:#fff;"/><path id="Shadow" d="M6411.1,1850.8l986.109,-986.001c135.243,-135.243 354.265,-135.243 489.508,0c135.244,135.244 135.244,354.496 0,489.509l-6750.59,6711.22c-67.622,67.622 -156.246,101.318 -244.87,101.318c-88.624,-0 -177.017,-33.696 -244.639,-101.318c-135.244,-135.244 -135.244,-354.496 0,-489.509l1717.69,-1696.04c-732.021,-7.166 -1333.66,-561.197 -1415.15,-1273.17c-10.074,-87.492 54.97,-165.775 143.038,-165.775l2005.99,0c79.434,0 143.903,-64.468 143.903,-143.902l-0,-287.804c-0,-79.434 64.468,-143.902 143.902,-143.902l1010.46,-0l863.304,-863.412l-2881.08,-0l0,719.51c0,79.434 -64.468,143.902 -143.902,143.902l-1151.22,-0c-79.434,-0 -143.902,-64.468 -143.902,-143.902l0,-1870.73l820.242,-1093.66c27.053,-36.263 69.936,-57.561 115.121,-57.561l359.755,0c79.434,0 143.902,64.468 143.902,143.902l0,1007.32l4032.41,-0Zm-141.185,2014.63l857.539,-0c79.434,-0 143.902,64.468 143.902,143.902l0,451.565c0,143.902 -106.775,265.643 -249.814,283.199c-994.65,122.892 -1764.81,971.338 -1764.81,1999.38l-0,287.804l575.608,-0c159.156,-0 287.804,128.936 287.804,287.804l0,575.608l-3904.53,-0l4054.3,-4029.26Z" style="fill:#363636;"/><path id="Icon" d="M6411.1,1684.25l986.109,-986c135.243,-135.244 354.265,-135.244 489.508,0c135.244,135.244 135.244,354.496 0,489.509l-6750.59,6711.22c-67.622,67.622 -156.246,101.317 -244.87,101.317c-88.624,0 -177.017,-33.695 -244.639,-101.317c-135.244,-135.244 -135.244,-354.496 0,-489.509l1717.69,-1696.04c-732.021,-7.167 -1333.66,-561.197 -1415.15,-1273.17c-10.074,-87.493 54.97,-165.775 143.038,-165.775l2005.99,-0c79.434,-0 143.903,-64.468 143.903,-143.902l-0,-287.804c-0,-79.434 64.468,-143.902 143.902,-143.902l1010.46,-0l863.304,-863.413l-2881.08,0l0,719.511c0,79.434 -64.468,143.902 -143.902,143.902l-1151.22,-0c-79.434,-0 -143.902,-64.468 -143.902,-143.902l0,-1870.73l820.242,-1093.65c27.053,-36.264 69.936,-57.561 115.121,-57.561l359.755,-0c79.434,-0 143.902,64.468 143.902,143.902l0,1007.31l4032.41,0Zm-141.185,2014.63l857.539,-0c79.434,-0 143.902,64.468 143.902,143.902l0,451.564c0,143.902 -106.775,265.643 -249.814,283.199c-994.65,122.893 -1764.81,971.339 -1764.81,1999.38l-0,287.804l575.608,0c159.156,0 287.804,128.937 287.804,287.804l0,575.608l-3904.53,0l4054.3,-4029.26Z" style="fill:url(#_Linear1);"/></g><defs><linearGradient id="_Linear1" x1="0" y1="0" x2="1" y2="0" gradientUnits="userSpaceOnUse" gradientTransform="matrix(7442.96,0,0,7467.27,545.185,4266.67)"><stop offset="0" style="stop-color:#25e2f5;stop-opacity:1"/><stop offset="0.5" style="stop-color:#1c9aff;stop-opacity:1"/><stop offset="1" style="stop-color:#e062e9;stop-opacity:1"/></linearGradient></defs></svg>