<?xml version="1.0" encoding="UTF-8" standalone="no"?><!DOCTYPE svg PUBLIC "-//W3C//DTD SVG 1.1//EN" "http://www.w3.org/Graphics/SVG/1.1/DTD/svg11.dtd"><svg width="2048px" height="2048px" version="1.1" xmlns="http://www.w3.org/2000/svg" xmlns:xlink="http://www.w3.org/1999/xlink" xml:space="preserve" xmlns:serif="http://www.serif.com/" style="fill-rule:evenodd;clip-rule:evenodd;stroke-linejoin:round;stroke-miterlimit:2;"><g id="ProcGenEd"><g id="VoxelPoints"><g id="Hightlight" transform="matrix(1,0,0,1,-32,-53.7425)"><path d="M1579.69,1204.49l0,307.17l-307.17,0l0,-307.17l307.17,0Zm-740,0l0,307.17l-307.17,0l0,-307.17l307.17,0Zm370.799,-637.55l-0,307.17l-307.17,0l0,-307.17l307.17,0Z" style="fill:#fff;"/></g><g id="Shadow" transform="matrix(1,0,0,1,-32,26.2575)"><path d="M1579.69,1204.49l0,307.17l-307.17,0l0,-307.17l307.17,0Zm-740,0l0,307.17l-307.17,0l0,-307.17l307.17,0Zm370.799,-637.55l-0,307.17l-307.17,0l0,-307.17l307.17,0Z" style="fill:#363636;"/></g><g id="VoxelPoints1" serif:id="VoxelPoints" transform="matrix(1,0,0,1,-32,-13.6974)"><path d="M1579.69,1204.49l0,307.17l-307.17,0l0,-307.17l307.17,0Zm-740,0l0,307.17l-307.17,0l0,-307.17l307.17,0Zm370.799,-637.55l-0,307.17l-307.17,0l0,-307.17l307.17,0Z" style="fill:url(#_Linear1);"/></g></g></g><defs><linearGradient id="_Linear1" x1="0" y1="0" x2="1" y2="0" gradientUnits="userSpaceOnUse" gradientTransform="matrix(1047.17,0,0,944.72,532.517,1039.3)"><stop offset="0" style="stop-color:#25e2f5;stop-opacity:1"/><stop offset="0.5" style="stop-color:#1c9aff;stop-opacity:1"/><stop offset="1" style="stop-color:#e062e9;stop-opacity:1"/></linearGradient></defs></svg>