<?xml version="1.0" encoding="UTF-8" standalone="no"?><!DOCTYPE svg PUBLIC "-//W3C//DTD SVG 1.1//EN" "http://www.w3.org/Graphics/SVG/1.1/DTD/svg11.dtd"><svg width="100%" height="100%" viewBox="0 0 8534 8534" version="1.1" xmlns="http://www.w3.org/2000/svg" xmlns:xlink="http://www.w3.org/1999/xlink" xml:space="preserve" xmlns:serif="http://www.serif.com/" style="fill-rule:evenodd;clip-rule:evenodd;stroke-linejoin:round;stroke-miterlimit:2;"><g id="Command_EdMode_CellIgnore_Unknown"><path id="Highlight" d="M6861.44,2780.39l-1823.76,733.952l1249.06,1136.48l-528.894,157.61l-1398.52,-241.347l-607.919,2201.86l-967.482,-1653.25l-2224.1,856.277l1252.91,-1871.95c175.639,52.191 357.969,78.417 541.197,77.844c1094.03,-0 1994.27,-900.247 1994.27,-1994.27c-2.961,-93.114 -11.626,-185.959 -25.948,-278.012l2016.51,-1453.08l-1112.05,1994.27l1634.71,333.614Zm-683.201,3325.2l-708.44,-77.214c108.1,-603.557 458.781,-905.335 1052.04,-905.335c298.561,-0 534.064,78.822 706.509,236.468c172.445,157.645 258.667,352.933 258.667,585.862c0,102.952 -17.051,196.896 -51.154,281.831c-34.103,84.936 -77.857,154.75 -131.264,209.443c-53.406,54.694 -139.95,125.795 -259.632,213.304c-91.37,66.919 -149.603,115.5 -174.697,145.742c-25.095,30.242 -42.146,74.318 -51.154,132.229l-640.877,0c-0,-155.715 13.834,-267.997 41.502,-336.846c27.669,-68.85 84.614,-141.881 170.836,-219.095c129.977,-117.108 211.052,-204.296 243.225,-261.563c32.172,-57.267 48.259,-123.864 48.259,-199.792c-0,-79.788 -21.234,-141.237 -63.702,-184.348c-42.468,-43.111 -95.231,-64.667 -158.289,-64.667c-186.601,-0 -280.545,147.994 -281.831,443.981Zm714.23,988.34l-0,704.579l-739.325,-0l0,-704.579l739.325,0Zm-3146.27,-5420.27c38.242,21.52 61.915,62.006 61.915,105.898l0,547.119c0,43.891 -23.673,84.378 -61.915,105.898l-423.694,238.666l0,506.511c0,43.891 -23.673,84.378 -61.915,105.898l-485.609,273.56c-18.453,10.456 -38.97,15.684 -59.487,15.684c-20.517,-0 -41.034,-5.228 -59.487,-15.684l-426.122,-240.125l-426.122,240.125c-18.453,10.456 -38.97,15.684 -59.487,15.684c-20.517,-0 -41.034,-5.228 -59.487,-15.684l-485.609,-273.56c-38.242,-21.52 -61.915,-62.007 -61.915,-105.898l-0,-506.511l-423.694,-238.666c-38.242,-21.52 -61.915,-62.007 -61.915,-105.898l-0,-547.119c-0,-43.892 23.673,-84.378 61.915,-105.898l423.694,-238.666l-0,-506.511c-0,-43.891 23.673,-84.378 61.915,-105.898l485.609,-273.56c36.906,-20.912 82.068,-20.912 118.974,0l426.122,240.003l426.122,-240.003c36.906,-20.912 82.068,-20.912 118.974,0l485.609,273.56c38.242,21.52 61.915,62.007 61.915,105.898l0,506.511l423.694,238.666Zm-666.498,1432.97l-0,-404.868l-364.207,-205.231l-364.207,205.231l0,404.868l364.207,205.231l364.207,-205.231Zm-485.609,-851.074l-0,-404.869l-364.207,-205.23l-364.207,205.23l0,404.869l364.207,205.109l364.207,-205.109Zm-1214.02,-1255.94l0,404.869l364.207,205.23l364.207,-205.23l-0,-404.869l-364.207,-205.23l-364.207,205.23Zm2185.24,1255.94l-0,-404.869l-364.207,-205.23l-364.207,205.23l0,404.869l364.207,205.109l364.207,-205.109Zm-849.816,-1461.17l-364.207,205.23l0,404.869l364.207,205.23l364.207,-205.23l-0,-404.869l-364.207,-205.23Zm-971.218,2517.48l364.207,-205.231l-0,-404.868l-364.207,-205.231l-364.207,205.231l0,404.868l364.207,205.231Zm-849.816,-1461.17l0,404.869l364.207,205.109l364.207,-205.109l-0,-404.869l-364.207,-205.23l-364.207,205.23Z" style="fill:#fff;"/><path id="Shadow" d="M6861.44,3113.72l-1823.76,733.951l1249.06,1136.48l-528.894,157.61l-1398.52,-241.347l-607.919,2201.86l-967.482,-1653.25l-2224.1,856.277l1252.91,-1871.95c175.639,52.191 357.969,78.416 541.197,77.843c1094.03,0 1994.27,-900.247 1994.27,-1994.27c-2.961,-93.113 -11.626,-185.958 -25.948,-278.012l2016.51,-1453.08l-1112.05,1994.27l1634.71,333.615Zm-683.201,3325.2l-708.44,-77.214c108.1,-603.557 458.781,-905.335 1052.04,-905.335c298.561,0 534.064,78.823 706.509,236.468c172.445,157.646 258.667,352.933 258.667,585.862c0,102.952 -17.051,196.896 -51.154,281.831c-34.103,84.936 -77.857,154.75 -131.264,209.444c-53.406,54.693 -139.95,125.794 -259.632,213.304c-91.37,66.918 -149.603,115.499 -174.697,145.741c-25.095,30.242 -42.146,74.319 -51.154,132.229l-640.877,0c-0,-155.715 13.834,-267.997 41.502,-336.846c27.669,-68.849 84.614,-141.881 170.836,-219.095c129.977,-117.108 211.052,-204.296 243.225,-261.563c32.172,-57.267 48.259,-123.864 48.259,-199.791c-0,-79.788 -21.234,-141.238 -63.702,-184.349c-42.468,-43.111 -95.231,-64.667 -158.289,-64.667c-186.601,0 -280.545,147.994 -281.831,443.981Zm714.23,988.341l-0,704.578l-739.325,0l0,-704.578l739.325,-0Zm-3146.27,-5420.27c38.242,21.52 61.915,62.007 61.915,105.898l0,547.119c0,43.892 -23.673,84.378 -61.915,105.898l-423.694,238.666l0,506.511c0,43.891 -23.673,84.378 -61.915,105.898l-485.609,273.56c-18.453,10.456 -38.97,15.684 -59.487,15.684c-20.517,0 -41.034,-5.228 -59.487,-15.684l-426.122,-240.125l-426.122,240.125c-18.453,10.456 -38.97,15.684 -59.487,15.684c-20.517,0 -41.034,-5.228 -59.487,-15.684l-485.609,-273.56c-38.242,-21.52 -61.915,-62.007 -61.915,-105.898l-0,-506.511l-423.694,-238.666c-38.242,-21.52 -61.915,-62.006 -61.915,-105.898l-0,-547.119c-0,-43.891 23.673,-84.378 61.915,-105.898l423.694,-238.666l-0,-506.511c-0,-43.891 23.673,-84.378 61.915,-105.898l485.609,-273.56c36.906,-20.912 82.068,-20.912 118.974,0l426.122,240.003l426.122,-240.003c36.906,-20.912 82.068,-20.912 118.974,0l485.609,273.56c38.242,21.52 61.915,62.007 61.915,105.898l0,506.511l423.694,238.666Zm-666.498,1432.97l-0,-404.869l-364.207,-205.23l-364.207,205.23l0,404.869l364.207,205.23l364.207,-205.23Zm-485.609,-851.075l-0,-404.869l-364.207,-205.23l-364.207,205.23l0,404.869l364.207,205.109l364.207,-205.109Zm-1214.02,-1255.94l0,404.868l364.207,205.231l364.207,-205.231l-0,-404.868l-364.207,-205.231l-364.207,205.231Zm2185.24,1255.94l-0,-404.869l-364.207,-205.23l-364.207,205.23l0,404.869l364.207,205.109l364.207,-205.109Zm-849.816,-1461.17l-364.207,205.231l0,404.868l364.207,205.231l364.207,-205.231l-0,-404.868l-364.207,-205.231Zm-971.218,2517.48l364.207,-205.23l-0,-404.869l-364.207,-205.23l-364.207,205.23l0,404.869l364.207,205.23Zm-849.816,-1461.17l0,404.869l364.207,205.109l364.207,-205.109l-0,-404.869l-364.207,-205.23l-364.207,205.23Z" style="fill:#363636;"/><path id="Icon" d="M6861.44,2947.04l-1823.76,733.952l1249.06,1136.48l-528.894,157.61l-1398.52,-241.347l-607.919,2201.86l-967.482,-1653.25l-2224.1,856.277l1252.91,-1871.95c175.639,52.191 357.969,78.416 541.197,77.843c1094.03,0 1994.27,-900.247 1994.27,-1994.27c-2.961,-93.114 -11.626,-185.958 -25.948,-278.012l2016.51,-1453.08l-1112.05,1994.27l1634.71,333.614Zm-683.201,3325.2l-708.44,-77.214c108.1,-603.557 458.781,-905.335 1052.04,-905.335c298.561,-0 534.064,78.823 706.509,236.468c172.445,157.645 258.667,352.933 258.667,585.862c0,102.952 -17.051,196.896 -51.154,281.831c-34.103,84.936 -77.857,154.75 -131.264,209.444c-53.406,54.693 -139.95,125.794 -259.632,213.303c-91.37,66.919 -149.603,115.5 -174.697,145.742c-25.095,30.242 -42.146,74.319 -51.154,132.229l-640.877,0c-0,-155.715 13.834,-267.997 41.502,-336.846c27.669,-68.85 84.614,-141.881 170.836,-219.095c129.977,-117.108 211.052,-204.296 243.225,-261.563c32.172,-57.267 48.259,-123.864 48.259,-199.791c-0,-79.788 -21.234,-141.238 -63.702,-184.349c-42.468,-43.111 -95.231,-64.667 -158.289,-64.667c-186.601,0 -280.545,147.994 -281.831,443.981Zm714.23,988.34l-0,704.579l-739.325,0l0,-704.579l739.325,0Zm-3146.27,-5420.27c38.242,21.52 61.915,62.007 61.915,105.898l0,547.119c0,43.891 -23.673,84.378 -61.915,105.898l-423.694,238.666l0,506.511c0,43.891 -23.673,84.378 -61.915,105.898l-485.609,273.56c-18.453,10.456 -38.97,15.684 -59.487,15.684c-20.517,-0 -41.034,-5.228 -59.487,-15.684l-426.122,-240.125l-426.122,240.125c-18.453,10.456 -38.97,15.684 -59.487,15.684c-20.517,-0 -41.034,-5.228 -59.487,-15.684l-485.609,-273.56c-38.242,-21.52 -61.915,-62.007 -61.915,-105.898l-0,-506.511l-423.694,-238.666c-38.242,-21.52 -61.915,-62.007 -61.915,-105.898l-0,-547.119c-0,-43.891 23.673,-84.378 61.915,-105.898l423.694,-238.666l-0,-506.511c-0,-43.891 23.673,-84.378 61.915,-105.898l485.609,-273.56c36.906,-20.912 82.068,-20.912 118.974,0l426.122,240.003l426.122,-240.003c36.906,-20.912 82.068,-20.912 118.974,0l485.609,273.56c38.242,21.52 61.915,62.007 61.915,105.898l0,506.511l423.694,238.666Zm-666.498,1432.97l-0,-404.869l-364.207,-205.23l-364.207,205.23l0,404.869l364.207,205.23l364.207,-205.23Zm-485.609,-851.075l-0,-404.869l-364.207,-205.23l-364.207,205.23l0,404.869l364.207,205.109l364.207,-205.109Zm-1214.02,-1255.94l0,404.868l364.207,205.231l364.207,-205.231l-0,-404.868l-364.207,-205.231l-364.207,205.231Zm2185.24,1255.94l-0,-404.869l-364.207,-205.23l-364.207,205.23l0,404.869l364.207,205.109l364.207,-205.109Zm-849.816,-1461.17l-364.207,205.231l0,404.868l364.207,205.231l364.207,-205.231l-0,-404.868l-364.207,-205.231Zm-971.218,2517.48l364.207,-205.23l-0,-404.869l-364.207,-205.23l-364.207,205.23l0,404.869l364.207,205.23Zm-849.816,-1461.17l0,404.869l364.207,205.109l364.207,-205.109l-0,-404.869l-364.207,-205.23l-364.207,205.23Z" style="fill:url(#_Linear1);"/></g><defs><linearGradient id="_Linear1" x1="0" y1="0" x2="1" y2="0" gradientUnits="userSpaceOnUse" gradientTransform="matrix(6568.85,0,0,7354.34,559.84,4296.32)"><stop offset="0" style="stop-color:#25e2f5;stop-opacity:1"/><stop offset="0.5" style="stop-color:#1c9aff;stop-opacity:1"/><stop offset="1" style="stop-color:#e062e9;stop-opacity:1"/></linearGradient></defs></svg>