<?xml version="1.0" encoding="UTF-8" standalone="no"?><!DOCTYPE svg PUBLIC "-//W3C//DTD SVG 1.1//EN" "http://www.w3.org/Graphics/SVG/1.1/DTD/svg11.dtd"><svg width="8534px" height="8534px" version="1.1" xmlns="http://www.w3.org/2000/svg" xmlns:xlink="http://www.w3.org/1999/xlink" xml:space="preserve" xmlns:serif="http://www.serif.com/" style="fill-rule:evenodd;clip-rule:evenodd;stroke-linejoin:round;stroke-miterlimit:2;"><g transform="matrix(4.16667,0,0,4.16667,0,0)"><g id="Bounds" transform="matrix(0.993596,0,0,0.996403,6.55772,-36.1725)"><g id="ProcGenEd"><g id="Bounds1" serif:id="Bounds"><g id="Shadow" transform="matrix(72.0036,0,0,72.0036,1672.03,705.54)"><path d="M0,9.914L-8,14.714L-8,6.047L0,1.247L0,9.914ZM-9,4.314L-17.057,-0.52L-9,-5.354L-0.943,-0.52L-9,4.314ZM-10,14.714L-18,9.914L-18,1.247L-10,6.047L-10,14.714ZM1.965,-0.779C1.957,-0.811 1.939,-0.839 1.929,-0.869C1.909,-0.92 1.894,-0.971 1.867,-1.017C1.848,-1.05 1.821,-1.077 1.799,-1.108C1.77,-1.147 1.744,-1.188 1.711,-1.222C1.683,-1.25 1.648,-1.271 1.618,-1.295C1.583,-1.322 1.553,-1.354 1.515,-1.377L-8.485,-7.377C-8.802,-7.566 -9.198,-7.566 -9.515,-7.377L-19.515,-1.377C-19.553,-1.354 -19.583,-1.322 -19.617,-1.296C-19.648,-1.271 -19.683,-1.25 -19.711,-1.222C-19.744,-1.188 -19.77,-1.148 -19.797,-1.109C-19.82,-1.078 -19.848,-1.051 -19.867,-1.017C-19.893,-0.972 -19.908,-0.922 -19.927,-0.873C-19.939,-0.842 -19.956,-0.813 -19.966,-0.779C-19.988,-0.695 -20,-0.608 -20,-0.52L-20,10.48C-20,10.832 -19.815,11.157 -19.515,11.338L-9.515,17.338C-9.512,17.34 -9.507,17.341 -9.504,17.343C-9.5,17.345 -9.497,17.349 -9.493,17.351C-9.441,17.38 -9.385,17.397 -9.329,17.417C-9.306,17.426 -9.283,17.439 -9.26,17.445C-9.175,17.469 -9.087,17.48 -9,17.48C-8.913,17.48 -8.825,17.469 -8.74,17.445C-8.717,17.439 -8.694,17.426 -8.671,17.417C-8.615,17.397 -8.559,17.38 -8.507,17.351C-8.503,17.349 -8.5,17.345 -8.496,17.343C-8.493,17.341 -8.488,17.34 -8.485,17.338L1.515,11.338C1.815,11.157 2,10.832 2,10.48L2,-0.52C2,-0.608 1.988,-0.695 1.965,-0.779" style="fill:#363636;fill-rule:nonzero;"/></g><g id="Bounds2" serif:id="Bounds" transform="matrix(72.0036,0,0,72.0036,1672.03,665.377)"><path d="M0,9.914L-8,14.714L-8,6.047L0,1.247L0,9.914ZM-9,4.314L-17.057,-0.52L-9,-5.354L-0.943,-0.52L-9,4.314ZM-10,14.714L-18,9.914L-18,1.247L-10,6.047L-10,14.714ZM1.965,-0.779C1.957,-0.811 1.939,-0.839 1.929,-0.869C1.909,-0.92 1.894,-0.971 1.867,-1.017C1.848,-1.05 1.821,-1.077 1.799,-1.108C1.77,-1.147 1.744,-1.188 1.711,-1.222C1.683,-1.25 1.648,-1.271 1.618,-1.295C1.583,-1.322 1.553,-1.354 1.515,-1.377L-8.485,-7.377C-8.802,-7.566 -9.198,-7.566 -9.515,-7.377L-19.515,-1.377C-19.553,-1.354 -19.583,-1.322 -19.617,-1.296C-19.648,-1.271 -19.683,-1.25 -19.711,-1.222C-19.744,-1.188 -19.77,-1.148 -19.797,-1.109C-19.82,-1.078 -19.848,-1.051 -19.867,-1.017C-19.893,-0.972 -19.908,-0.922 -19.927,-0.873C-19.939,-0.842 -19.956,-0.813 -19.966,-0.779C-19.988,-0.695 -20,-0.608 -20,-0.52L-20,10.48C-20,10.832 -19.815,11.157 -19.515,11.338L-9.515,17.338C-9.512,17.34 -9.507,17.341 -9.504,17.343C-9.5,17.345 -9.497,17.349 -9.493,17.351C-9.441,17.38 -9.385,17.397 -9.329,17.417C-9.306,17.426 -9.283,17.439 -9.26,17.445C-9.175,17.469 -9.087,17.48 -9,17.48C-8.913,17.48 -8.825,17.469 -8.74,17.445C-8.717,17.439 -8.694,17.426 -8.671,17.417C-8.615,17.397 -8.559,17.38 -8.507,17.351C-8.503,17.349 -8.5,17.345 -8.496,17.343C-8.493,17.341 -8.488,17.34 -8.485,17.338L1.515,11.338C1.815,11.157 2,10.832 2,10.48L2,-0.52C2,-0.608 1.988,-0.695 1.965,-0.779" style="fill:#ccc;fill-rule:nonzero;"/></g><g id="Calculate" transform="matrix(1.00645,0,0,1.00361,183.644,150.433)"><g id="Shadow1" serif:id="Shadow" transform="matrix(20.8333,0,0,20.8333,1753.55,1725.16)"><path d="M0,-11C0,-10.724 -0.224,-10.5 -0.5,-10.5L-12.5,-10.5C-12.776,-10.5 -13,-10.724 -13,-11L-13,-14C-13,-14.276 -12.776,-14.5 -12.5,-14.5L-0.5,-14.5C-0.224,-14.5 0,-14.276 0,-14L0,-11ZM-1.5,-5.5C-2.328,-5.5 -3,-6.171 -3,-7C-3,-7.829 -2.328,-8.5 -1.5,-8.5C-0.672,-8.5 0,-7.829 0,-7C0,-6.171 -0.672,-5.5 -1.5,-5.5M-1.5,-0.5C-2.328,-0.5 -3,-1.171 -3,-2C-3,-2.829 -2.328,-3.5 -1.5,-3.5C-0.672,-3.5 0,-2.829 0,-2C0,-1.171 -0.672,-0.5 -1.5,-0.5M-1.5,4.5C-2.328,4.5 -3,3.829 -3,3C-3,2.171 -2.328,1.5 -1.5,1.5C-0.672,1.5 0,2.171 0,3C0,3.829 -0.672,4.5 -1.5,4.5M-6.5,-5.5C-7.328,-5.5 -8,-6.171 -8,-7C-8,-7.829 -7.328,-8.5 -6.5,-8.5C-5.672,-8.5 -5,-7.829 -5,-7C-5,-6.171 -5.672,-5.5 -6.5,-5.5M-6.5,-0.5C-7.328,-0.5 -8,-1.171 -8,-2C-8,-2.829 -7.328,-3.5 -6.5,-3.5C-5.672,-3.5 -5,-2.829 -5,-2C-5,-1.171 -5.672,-0.5 -6.5,-0.5M-6.5,4.5C-7.328,4.5 -8,3.829 -8,3C-8,2.171 -7.328,1.5 -6.5,1.5C-5.672,1.5 -5,2.171 -5,3C-5,3.829 -5.672,4.5 -6.5,4.5M-11.5,-5.5C-12.328,-5.5 -13,-6.171 -13,-7C-13,-7.829 -12.328,-8.5 -11.5,-8.5C-10.672,-8.5 -10,-7.829 -10,-7C-10,-6.171 -10.672,-5.5 -11.5,-5.5M-11.5,-0.5C-12.328,-0.5 -13,-1.171 -13,-2C-13,-2.829 -12.328,-3.5 -11.5,-3.5C-10.672,-3.5 -10,-2.829 -10,-2C-10,-1.171 -10.672,-0.5 -11.5,-0.5M-11.5,4.5C-12.328,4.5 -13,3.829 -13,3C-13,2.171 -12.328,1.5 -11.5,1.5C-10.672,1.5 -10,2.171 -10,3C-10,3.829 -10.672,4.5 -11.5,4.5M1,-17.5L-14,-17.5C-15.104,-17.5 -16,-16.604 -16,-15.5L-16,4.5C-16,5.604 -15.104,6.5 -14,6.5L1,6.5C2.104,6.5 3,5.604 3,4.5L3,-15.5C3,-16.604 2.104,-17.5 1,-17.5" style="fill:#363636;fill-rule:nonzero;"/></g><g id="Icon" transform="matrix(20.8333,0,0,20.8333,1753.55,1685.14)"><path d="M0,-11C0,-10.724 -0.224,-10.5 -0.5,-10.5L-12.5,-10.5C-12.776,-10.5 -13,-10.724 -13,-11L-13,-14C-13,-14.276 -12.776,-14.5 -12.5,-14.5L-0.5,-14.5C-0.224,-14.5 0,-14.276 0,-14L0,-11ZM-1.5,-5.5C-2.328,-5.5 -3,-6.171 -3,-7C-3,-7.829 -2.328,-8.5 -1.5,-8.5C-0.672,-8.5 0,-7.829 0,-7C0,-6.171 -0.672,-5.5 -1.5,-5.5M-1.5,-0.5C-2.328,-0.5 -3,-1.171 -3,-2C-3,-2.829 -2.328,-3.5 -1.5,-3.5C-0.672,-3.5 0,-2.829 0,-2C0,-1.171 -0.672,-0.5 -1.5,-0.5M-1.5,4.5C-2.328,4.5 -3,3.829 -3,3C-3,2.171 -2.328,1.5 -1.5,1.5C-0.672,1.5 0,2.171 0,3C0,3.829 -0.672,4.5 -1.5,4.5M-6.5,-5.5C-7.328,-5.5 -8,-6.171 -8,-7C-8,-7.829 -7.328,-8.5 -6.5,-8.5C-5.672,-8.5 -5,-7.829 -5,-7C-5,-6.171 -5.672,-5.5 -6.5,-5.5M-6.5,-0.5C-7.328,-0.5 -8,-1.171 -8,-2C-8,-2.829 -7.328,-3.5 -6.5,-3.5C-5.672,-3.5 -5,-2.829 -5,-2C-5,-1.171 -5.672,-0.5 -6.5,-0.5M-6.5,4.5C-7.328,4.5 -8,3.829 -8,3C-8,2.171 -7.328,1.5 -6.5,1.5C-5.672,1.5 -5,2.171 -5,3C-5,3.829 -5.672,4.5 -6.5,4.5M-11.5,-5.5C-12.328,-5.5 -13,-6.171 -13,-7C-13,-7.829 -12.328,-8.5 -11.5,-8.5C-10.672,-8.5 -10,-7.829 -10,-7C-10,-6.171 -10.672,-5.5 -11.5,-5.5M-11.5,-0.5C-12.328,-0.5 -13,-1.171 -13,-2C-13,-2.829 -12.328,-3.5 -11.5,-3.5C-10.672,-3.5 -10,-2.829 -10,-2C-10,-1.171 -10.672,-0.5 -11.5,-0.5M-11.5,4.5C-12.328,4.5 -13,3.829 -13,3C-13,2.171 -12.328,1.5 -11.5,1.5C-10.672,1.5 -10,2.171 -10,3C-10,3.829 -10.672,4.5 -11.5,4.5M1,-17.5L-14,-17.5C-15.104,-17.5 -16,-16.604 -16,-15.5L-16,4.5C-16,5.604 -15.104,6.5 -14,6.5L1,6.5C2.104,6.5 3,5.604 3,4.5L3,-15.5C3,-16.604 2.104,-17.5 1,-17.5" style="fill:#1c9aff;fill-rule:nonzero;"/></g></g></g></g></g></g></svg>