<?xml version="1.0" encoding="UTF-8" standalone="no"?><!DOCTYPE svg PUBLIC "-//W3C//DTD SVG 1.1//EN" "http://www.w3.org/Graphics/SVG/1.1/DTD/svg11.dtd"><svg width="100%" height="100%" viewBox="0 0 8534 8534" version="1.1" xmlns="http://www.w3.org/2000/svg" xmlns:xlink="http://www.w3.org/1999/xlink" xml:space="preserve" xmlns:serif="http://www.serif.com/" style="fill-rule:evenodd;clip-rule:evenodd;stroke-linejoin:round;stroke-miterlimit:2;"><g id="Command_EdMode_CellIgnore_NotIgnored"><path id="Highlight" d="M6874.95,2780.39l-1823.76,733.952l1593.93,1449.37l-2272.28,-396.63l-607.919,2201.86l-967.482,-1653.25l-2224.1,856.277l1252.91,-1871.95c175.639,52.191 357.969,78.417 541.197,77.844c1094.03,-0 1994.27,-900.247 1994.27,-1994.27c-2.961,-93.114 -11.626,-185.959 -25.948,-278.012l2016.51,-1453.08l-1112.05,1994.27l1634.71,333.614Zm-2409.44,4073.8l596.799,-834.036l834.036,834.036l1256.61,-1905.31l648.695,474.474l-1905.31,2383.49l-1430.84,-952.654Zm-719.307,-5180.53c38.242,21.52 61.915,62.006 61.915,105.898l0,547.119c0,43.891 -23.673,84.378 -61.915,105.898l-423.694,238.666l0,506.511c0,43.891 -23.673,84.378 -61.915,105.898l-485.609,273.56c-18.453,10.456 -38.97,15.684 -59.487,15.684c-20.517,-0 -41.034,-5.228 -59.487,-15.684l-426.122,-240.125l-426.122,240.125c-18.453,10.456 -38.97,15.684 -59.487,15.684c-20.517,-0 -41.034,-5.228 -59.487,-15.684l-485.609,-273.56c-38.242,-21.52 -61.915,-62.007 -61.915,-105.898l-0,-506.511l-423.694,-238.666c-38.242,-21.52 -61.915,-62.007 -61.915,-105.898l-0,-547.119c-0,-43.892 23.673,-84.378 61.915,-105.898l423.694,-238.666l-0,-506.511c-0,-43.891 23.673,-84.378 61.915,-105.898l485.609,-273.56c36.906,-20.912 82.068,-20.912 118.974,0l426.122,240.003l426.122,-240.003c36.906,-20.912 82.068,-20.912 118.974,0l485.609,273.56c38.242,21.52 61.915,62.007 61.915,105.898l0,506.511l423.694,238.666Zm-2366.13,-674.052l0,404.869l364.207,205.23l364.207,-205.23l-0,-404.869l-364.207,-205.23l-364.207,205.23Zm364.207,2312.25l364.207,-205.231l-0,-404.868l-364.207,-205.231l-364.207,205.231l0,404.868l364.207,205.231Zm1821.03,-1056.31l-0,-404.869l-364.207,-205.23l-364.207,205.23l0,404.869l364.207,205.109l364.207,-205.109Zm-2670.85,-404.869l0,404.869l364.207,205.109l364.207,-205.109l-0,-404.869l-364.207,-205.23l-364.207,205.23Zm1699.63,404.869l-0,-404.869l-364.207,-205.23l-364.207,205.23l0,404.869l364.207,205.109l364.207,-205.109Zm121.402,-1461.17l-364.207,205.23l0,404.869l364.207,205.23l364.207,-205.23l-0,-404.869l-364.207,-205.23Zm364.207,2312.25l-0,-404.868l-364.207,-205.231l-364.207,205.231l0,404.868l364.207,205.231l364.207,-205.231Z" style="fill:#fff;"/><path id="Shadow" d="M6874.95,3113.72l-1823.76,733.951l1593.93,1449.37l-2272.28,-396.63l-607.919,2201.86l-967.482,-1653.25l-2224.1,856.277l1252.91,-1871.95c175.639,52.191 357.969,78.416 541.197,77.843c1094.03,0 1994.27,-900.247 1994.27,-1994.27c-2.961,-93.113 -11.626,-185.958 -25.948,-278.012l2016.51,-1453.08l-1112.05,1994.27l1634.71,333.615Zm-2409.44,4073.8l596.799,-834.036l834.036,834.036l1256.61,-1905.31l648.695,474.474l-1905.31,2383.49l-1430.84,-952.655Zm-719.307,-5180.53c38.242,21.52 61.915,62.007 61.915,105.898l0,547.119c0,43.892 -23.673,84.378 -61.915,105.898l-423.694,238.666l0,506.511c0,43.891 -23.673,84.378 -61.915,105.898l-485.609,273.56c-18.453,10.456 -38.97,15.684 -59.487,15.684c-20.517,0 -41.034,-5.228 -59.487,-15.684l-426.122,-240.125l-426.122,240.125c-18.453,10.456 -38.97,15.684 -59.487,15.684c-20.517,0 -41.034,-5.228 -59.487,-15.684l-485.609,-273.56c-38.242,-21.52 -61.915,-62.007 -61.915,-105.898l-0,-506.511l-423.694,-238.666c-38.242,-21.52 -61.915,-62.006 -61.915,-105.898l-0,-547.119c-0,-43.891 23.673,-84.378 61.915,-105.898l423.694,-238.666l-0,-506.511c-0,-43.891 23.673,-84.378 61.915,-105.898l485.609,-273.56c36.906,-20.912 82.068,-20.912 118.974,0l426.122,240.003l426.122,-240.003c36.906,-20.912 82.068,-20.912 118.974,0l485.609,273.56c38.242,21.52 61.915,62.007 61.915,105.898l0,506.511l423.694,238.666Zm-2366.13,-674.051l0,404.868l364.207,205.231l364.207,-205.231l-0,-404.868l-364.207,-205.231l-364.207,205.231Zm364.207,2312.25l364.207,-205.23l-0,-404.869l-364.207,-205.23l-364.207,205.23l0,404.869l364.207,205.23Zm1821.03,-1056.31l-0,-404.869l-364.207,-205.23l-364.207,205.23l0,404.869l364.207,205.109l364.207,-205.109Zm-2670.85,-404.869l0,404.869l364.207,205.109l364.207,-205.109l-0,-404.869l-364.207,-205.23l-364.207,205.23Zm1699.63,404.869l-0,-404.869l-364.207,-205.23l-364.207,205.23l0,404.869l364.207,205.109l364.207,-205.109Zm121.402,-1461.17l-364.207,205.231l0,404.868l364.207,205.231l364.207,-205.231l-0,-404.868l-364.207,-205.231Zm364.207,2312.25l-0,-404.869l-364.207,-205.23l-364.207,205.23l0,404.869l364.207,205.23l364.207,-205.23Z" style="fill:#363636;"/><path id="Icon" d="M6874.95,2947.04l-1823.76,733.952l1593.93,1449.37l-2272.28,-396.63l-607.919,2201.86l-967.482,-1653.25l-2224.1,856.277l1252.91,-1871.95c175.639,52.191 357.969,78.416 541.197,77.843c1094.03,0 1994.27,-900.247 1994.27,-1994.27c-2.961,-93.114 -11.626,-185.958 -25.948,-278.012l2016.51,-1453.08l-1112.05,1994.27l1634.71,333.614Zm-2409.44,4073.8l596.799,-834.036l834.036,834.036l1256.61,-1905.31l648.695,474.474l-1905.31,2383.49l-1430.84,-952.654Zm-719.307,-5180.53c38.242,21.52 61.915,62.007 61.915,105.898l0,547.119c0,43.891 -23.673,84.378 -61.915,105.898l-423.694,238.666l0,506.511c0,43.891 -23.673,84.378 -61.915,105.898l-485.609,273.56c-18.453,10.456 -38.97,15.684 -59.487,15.684c-20.517,-0 -41.034,-5.228 -59.487,-15.684l-426.122,-240.125l-426.122,240.125c-18.453,10.456 -38.97,15.684 -59.487,15.684c-20.517,-0 -41.034,-5.228 -59.487,-15.684l-485.609,-273.56c-38.242,-21.52 -61.915,-62.007 -61.915,-105.898l-0,-506.511l-423.694,-238.666c-38.242,-21.52 -61.915,-62.007 -61.915,-105.898l-0,-547.119c-0,-43.891 23.673,-84.378 61.915,-105.898l423.694,-238.666l-0,-506.511c-0,-43.891 23.673,-84.378 61.915,-105.898l485.609,-273.56c36.906,-20.912 82.068,-20.912 118.974,0l426.122,240.003l426.122,-240.003c36.906,-20.912 82.068,-20.912 118.974,0l485.609,273.56c38.242,21.52 61.915,62.007 61.915,105.898l0,506.511l423.694,238.666Zm-2366.13,-674.051l0,404.868l364.207,205.231l364.207,-205.231l-0,-404.868l-364.207,-205.231l-364.207,205.231Zm364.207,2312.25l364.207,-205.23l-0,-404.869l-364.207,-205.23l-364.207,205.23l0,404.869l364.207,205.23Zm1821.03,-1056.31l-0,-404.869l-364.207,-205.23l-364.207,205.23l0,404.869l364.207,205.109l364.207,-205.109Zm-2670.85,-404.869l0,404.869l364.207,205.109l364.207,-205.109l-0,-404.869l-364.207,-205.23l-364.207,205.23Zm1699.63,404.869l-0,-404.869l-364.207,-205.23l-364.207,205.23l0,404.869l364.207,205.109l364.207,-205.109Zm121.402,-1461.17l-364.207,205.231l0,404.868l364.207,205.231l364.207,-205.231l-0,-404.868l-364.207,-205.231Zm364.207,2312.25l-0,-404.869l-364.207,-205.23l-364.207,205.23l0,404.869l364.207,205.23l364.207,-205.23Z" style="fill:url(#_Linear1);"/></g><defs><linearGradient id="_Linear1" x1="0" y1="0" x2="1" y2="0" gradientUnits="userSpaceOnUse" gradientTransform="matrix(7228.31,0,0,7354.34,573.344,4296.32)"><stop offset="0" style="stop-color:#25e2f5;stop-opacity:1"/><stop offset="0.5" style="stop-color:#1c9aff;stop-opacity:1"/><stop offset="1" style="stop-color:#e062e9;stop-opacity:1"/></linearGradient></defs></svg>