<?xml version="1.0" encoding="UTF-8" standalone="no"?><!DOCTYPE svg PUBLIC "-//W3C//DTD SVG 1.1//EN" "http://www.w3.org/Graphics/SVG/1.1/DTD/svg11.dtd"><svg width="100%" height="100%" viewBox="0 0 8534 8534" version="1.1" xmlns="http://www.w3.org/2000/svg" xmlns:xlink="http://www.w3.org/1999/xlink" xml:space="preserve" xmlns:serif="http://www.serif.com/" style="fill-rule:evenodd;clip-rule:evenodd;stroke-linejoin:round;stroke-miterlimit:2;"><g id="Command_EdMode_WorldCollisionIgnore_Ignored"><path id="Highlight" d="M6490.76,4841.38c813.402,-0 1482.73,669.329 1482.73,1482.73c0,813.401 -669.328,1482.73 -1482.73,1482.73c-813.402,0 -1482.73,-669.329 -1482.73,-1482.73c0,-813.402 669.329,-1482.73 1482.73,-1482.73Zm796.967,711.711c-6.663,-10.43 -15.518,-19.285 -25.947,-25.948l25.947,25.948Zm-796.967,1883.07c610.051,-0 1112.05,-501.997 1112.05,-1112.05c-0.599,-222.15 -67.752,-439.104 -192.755,-622.747l-1534.63,1530.92l-289.132,-289.132l1534.63,-1534.63c-185.582,-127.929 -405.747,-196.461 -631.151,-196.461c-610.052,-0 -1112.05,501.996 -1112.05,1112.05c-0,610.051 501.996,1112.05 1112.05,1112.05l0.991,-0Zm370.682,-4655.78l-1823.76,733.952l1082.39,982.309l-774.727,240.944l-986.016,-170.514l-607.919,2201.86l-967.482,-1653.25l-2224.1,856.277l1252.91,-1871.95c175.639,52.191 357.969,78.417 541.197,77.844c1094.03,-0 1994.27,-900.247 1994.27,-1994.27c-2.961,-93.114 -11.626,-185.959 -25.948,-278.012l2016.51,-1453.08l-1112.05,1994.27l1634.71,333.614Zm-3017.56,-707.087c0,887.456 -719.526,1606.98 -1606.98,1606.98c-887.456,-0 -1606.98,-719.527 -1606.98,-1606.98c-0,-887.457 719.527,-1606.98 1606.98,-1606.98c887.457,0 1606.98,719.527 1606.98,1606.98Zm-380.453,535.661c54.905,-125.211 91.732,-260.064 105.793,-401.746l-398.398,-0c-6.428,149.717 -23.569,282.561 -49.816,401.746l342.421,-0Zm-1092.62,677.611c155.61,-114.096 283.901,-238.503 375.633,-409.781l-375.633,0l0,409.781Zm-267.83,-2016.76l-0,-409.915c-155.61,114.23 -283.901,238.503 -375.766,409.915l375.766,-0Zm-1092.62,267.83c-54.905,125.211 -91.732,260.064 -105.793,401.746l398.398,0c6.428,-149.717 23.569,-282.561 49.816,-401.746l-342.421,0Zm709.885,-699.573c-220.425,92.536 -410.049,243.19 -551.999,431.743l267.161,-0c72.314,-175.429 169.805,-314.299 284.838,-431.743Zm1033.16,2470.6c220.559,-92.669 410.183,-243.324 552.133,-431.877l-267.161,0c-72.314,175.429 -169.939,314.299 -284.972,431.877Zm-382.596,-1771.03l0,401.746l532.581,0c-6.829,-154.538 -25.711,-286.712 -55.307,-401.746l-477.274,0Zm-267.83,1071.32l-0,-401.746l-532.581,-0c6.829,154.538 25.712,286.712 55.307,401.746l477.274,-0Zm-1092.62,-0l342.421,-0c-26.247,-119.185 -43.388,-252.029 -49.816,-401.746l-398.398,-0c14.061,141.682 50.888,276.535 105.793,401.746Zm2160.45,-669.577l398.398,0c-14.061,-141.682 -50.888,-276.535 -105.793,-401.746l-342.421,0c26.247,119.185 43.388,252.029 49.816,401.746Zm-800.01,267.831l0,401.746l477.274,-0c29.596,-115.034 48.478,-247.208 55.307,-401.746l-532.581,-0Zm934.729,-937.407c-141.95,-188.553 -331.574,-339.207 -552.133,-431.877c115.033,117.578 212.658,256.448 284.972,431.877l267.161,-0Zm-934.729,-409.781l0,409.781l375.633,-0c-91.732,-171.278 -220.023,-295.685 -375.633,-409.781Zm-267.83,1079.36l-0,-401.746l-477.274,0c-29.595,115.034 -48.478,247.208 -55.307,401.746l532.581,0Zm-934.729,937.407c141.95,188.553 331.574,339.208 551.999,431.743c-115.033,-117.444 -212.524,-256.314 -284.838,-431.743l-267.161,0Zm934.729,409.915l-0,-409.915l-375.766,0c91.865,171.412 220.156,295.685 375.766,409.915Z" style="fill:#fff;"/><path id="Shadow" d="M6490.76,5174.72c813.402,0 1482.73,669.329 1482.73,1482.73c0,813.402 -669.328,1482.73 -1482.73,1482.73c-813.402,-0 -1482.73,-669.329 -1482.73,-1482.73c0,-813.402 669.329,-1482.73 1482.73,-1482.73Zm796.967,711.711c-6.663,-10.43 -15.518,-19.285 -25.947,-25.948l25.947,25.948Zm-796.967,1883.07c610.051,-0 1112.05,-501.997 1112.05,-1112.05c-0.599,-222.149 -67.752,-439.104 -192.755,-622.747l-1534.63,1530.92l-289.132,-289.132l1534.63,-1534.63c-185.582,-127.93 -405.747,-196.462 -631.151,-196.462c-610.052,0 -1112.05,501.997 -1112.05,1112.05c-0,610.052 501.996,1112.05 1112.05,1112.05l0.991,-0Zm370.682,-4655.77l-1823.76,733.951l1082.39,982.309l-774.727,240.944l-986.016,-170.514l-607.919,2201.86l-967.482,-1653.25l-2224.1,856.277l1252.91,-1871.95c175.639,52.191 357.969,78.416 541.197,77.843c1094.03,0 1994.27,-900.247 1994.27,-1994.27c-2.961,-93.113 -11.626,-185.958 -25.948,-278.012l2016.51,-1453.08l-1112.05,1994.27l1634.71,333.615Zm-3017.56,-707.088c0,887.456 -719.526,1606.98 -1606.98,1606.98c-887.456,0 -1606.98,-719.527 -1606.98,-1606.98c-0,-887.457 719.527,-1606.98 1606.98,-1606.98c887.457,-0 1606.98,719.526 1606.98,1606.98Zm-380.453,535.661c54.905,-125.211 91.732,-260.063 105.793,-401.746l-398.398,0c-6.428,149.717 -23.569,282.561 -49.816,401.746l342.421,-0Zm-1092.62,677.611c155.61,-114.096 283.901,-238.503 375.633,-409.78l-375.633,-0l0,409.78Zm-267.83,-2016.76l-0,-409.914c-155.61,114.229 -283.901,238.503 -375.766,409.914l375.766,0Zm-1092.62,267.831c-54.905,125.211 -91.732,260.063 -105.793,401.746l398.398,-0c6.428,-149.718 23.569,-282.562 49.816,-401.746l-342.421,-0Zm709.885,-699.574c-220.425,92.536 -410.049,243.191 -551.999,431.743l267.161,0c72.314,-175.429 169.805,-314.299 284.838,-431.743Zm1033.16,2470.6c220.559,-92.669 410.183,-243.324 552.133,-431.876l-267.161,-0c-72.314,175.429 -169.939,314.299 -284.972,431.876Zm-382.596,-1771.03l0,401.746l532.581,-0c-6.829,-154.539 -25.711,-286.713 -55.307,-401.746l-477.274,-0Zm-267.83,1071.32l-0,-401.746l-532.581,0c6.829,154.538 25.712,286.713 55.307,401.746l477.274,-0Zm-1092.62,-0l342.421,-0c-26.247,-119.185 -43.388,-252.029 -49.816,-401.746l-398.398,0c14.061,141.683 50.888,276.535 105.793,401.746Zm2160.45,-669.576l398.398,-0c-14.061,-141.683 -50.888,-276.535 -105.793,-401.746l-342.421,-0c26.247,119.184 43.388,252.028 49.816,401.746Zm-800.01,267.83l0,401.746l477.274,-0c29.596,-115.033 48.478,-247.208 55.307,-401.746l-532.581,0Zm934.729,-937.407c-141.95,-188.552 -331.574,-339.207 -552.133,-431.876c115.033,117.577 212.658,256.447 284.972,431.876l267.161,0Zm-934.729,-409.78l0,409.78l375.633,0c-91.732,-171.277 -220.023,-295.685 -375.633,-409.78Zm-267.83,1079.36l-0,-401.746l-477.274,-0c-29.595,115.033 -48.478,247.207 -55.307,401.746l532.581,-0Zm-934.729,937.407c141.95,188.552 331.574,339.207 551.999,431.742c-115.033,-117.443 -212.524,-256.313 -284.838,-431.742l-267.161,-0Zm934.729,409.914l-0,-409.914l-375.766,-0c91.865,171.411 220.156,295.684 375.766,409.914Z" style="fill:#363636;"/><path id="Icon" d="M6490.76,5008.03c813.402,0 1482.73,669.329 1482.73,1482.73c0,813.402 -669.328,1482.73 -1482.73,1482.73c-813.402,0 -1482.73,-669.328 -1482.73,-1482.73c0,-813.402 669.329,-1482.73 1482.73,-1482.73Zm796.967,711.711c-6.663,-10.43 -15.518,-19.285 -25.947,-25.948l25.947,25.948Zm-796.967,1883.07c610.051,-0 1112.05,-501.997 1112.05,-1112.05c-0.599,-222.149 -67.752,-439.104 -192.755,-622.747l-1534.63,1530.92l-289.132,-289.132l1534.63,-1534.63c-185.582,-127.929 -405.747,-196.461 -631.151,-196.461c-610.052,0 -1112.05,501.997 -1112.05,1112.05c-0,610.052 501.996,1112.05 1112.05,1112.05l0.991,-0Zm370.682,-4655.78l-1823.76,733.952l1082.39,982.309l-774.727,240.944l-986.016,-170.514l-607.919,2201.86l-967.482,-1653.25l-2224.1,856.277l1252.91,-1871.95c175.639,52.191 357.969,78.416 541.197,77.843c1094.03,0 1994.27,-900.247 1994.27,-1994.27c-2.961,-93.114 -11.626,-185.958 -25.948,-278.012l2016.51,-1453.08l-1112.05,1994.27l1634.71,333.614Zm-3017.56,-707.087c0,887.456 -719.526,1606.98 -1606.98,1606.98c-887.456,-0 -1606.98,-719.527 -1606.98,-1606.98c-0,-887.457 719.527,-1606.98 1606.98,-1606.98c887.457,-0 1606.98,719.526 1606.98,1606.98Zm-380.453,535.661c54.905,-125.211 91.732,-260.064 105.793,-401.746l-398.398,0c-6.428,149.717 -23.569,282.561 -49.816,401.746l342.421,-0Zm-1092.62,677.611c155.61,-114.096 283.901,-238.503 375.633,-409.781l-375.633,0l0,409.781Zm-267.83,-2016.76l-0,-409.914c-155.61,114.229 -283.901,238.503 -375.766,409.914l375.766,0Zm-1092.62,267.831c-54.905,125.21 -91.732,260.063 -105.793,401.745l398.398,0c6.428,-149.717 23.569,-282.561 49.816,-401.745l-342.421,-0Zm709.885,-699.574c-220.425,92.536 -410.049,243.19 -551.999,431.743l267.161,0c72.314,-175.429 169.805,-314.299 284.838,-431.743Zm1033.16,2470.6c220.559,-92.669 410.183,-243.324 552.133,-431.877l-267.161,0c-72.314,175.429 -169.939,314.299 -284.972,431.877Zm-382.596,-1771.03l0,401.745l532.581,0c-6.829,-154.538 -25.711,-286.712 -55.307,-401.745l-477.274,-0Zm-267.83,1071.32l-0,-401.746l-532.581,0c6.829,154.538 25.712,286.713 55.307,401.746l477.274,-0Zm-1092.62,-0l342.421,-0c-26.247,-119.185 -43.388,-252.029 -49.816,-401.746l-398.398,0c14.061,141.682 50.888,276.535 105.793,401.746Zm2160.45,-669.577l398.398,0c-14.061,-141.682 -50.888,-276.535 -105.793,-401.745l-342.421,-0c26.247,119.184 43.388,252.028 49.816,401.745Zm-800.01,267.831l0,401.746l477.274,-0c29.596,-115.033 48.478,-247.208 55.307,-401.746l-532.581,0Zm934.729,-937.407c-141.95,-188.553 -331.574,-339.207 -552.133,-431.877c115.033,117.578 212.658,256.448 284.972,431.877l267.161,0Zm-934.729,-409.781l0,409.781l375.633,0c-91.732,-171.277 -220.023,-295.685 -375.633,-409.781Zm-267.83,1079.36l-0,-401.745l-477.274,-0c-29.595,115.033 -48.478,247.207 -55.307,401.745l532.581,0Zm-934.729,937.407c141.95,188.553 331.574,339.208 551.999,431.743c-115.033,-117.444 -212.524,-256.314 -284.838,-431.743l-267.161,0Zm934.729,409.915l-0,-409.915l-375.766,0c91.865,171.412 220.156,295.685 375.766,409.915Z" style="fill:url(#_Linear1);"/></g><defs><linearGradient id="_Linear1" x1="0" y1="0" x2="1" y2="0" gradientUnits="userSpaceOnUse" gradientTransform="matrix(7413.65,0,0,7354.34,559.84,4296.32)"><stop offset="0" style="stop-color:#25e2f5;stop-opacity:1"/><stop offset="0.5" style="stop-color:#1c9aff;stop-opacity:1"/><stop offset="1" style="stop-color:#e062e9;stop-opacity:1"/></linearGradient></defs></svg>