<?xml version="1.0" encoding="UTF-8" standalone="no"?><!DOCTYPE svg PUBLIC "-//W3C//DTD SVG 1.1//EN" "http://www.w3.org/Graphics/SVG/1.1/DTD/svg11.dtd"><svg width="100%" height="100%" viewBox="0 0 8534 8534" version="1.1" xmlns="http://www.w3.org/2000/svg" xmlns:xlink="http://www.w3.org/1999/xlink" xml:space="preserve" xmlns:serif="http://www.serif.com/" style="fill-rule:evenodd;clip-rule:evenodd;stroke-linejoin:round;stroke-miterlimit:2;"><g id="Command_EdMode_Hull_SplitEdge"><path id="Highlight" d="M6551.82,2490.71l-5255.86,2431.82l1345.7,-2422.27l-660.157,0l0,-1371.09l1371.09,-0l0,914.062l3199.22,0l-0,-914.062l1371.09,-0l-0,1371.09l-1371.09,0l-0,-9.549Zm-3656.25,-447.482l-0,-457.031l-457.031,-0l-0,457.031l457.031,0Zm4113.28,0l457.031,0l0,-457.031l-457.031,-0l0,457.031Zm-6398.44,5027.34l-0,-1371.09l829.942,0l5979.82,-2787.89l39.266,2787.89l463.469,0l-0,1371.09l-1371.09,-0l-0,-914.063l-4570.31,0l0,914.063l-1371.09,-0Zm6398.44,-914.063l0,457.032l457.031,-0l0,-457.032l-457.031,0Zm-5941.41,0l-0,457.032l457.031,-0l0,-457.032l-457.031,0Z" style="fill:#fff;"/><path id="Shadow" d="M6551.82,2824.04l-5255.86,2431.82l1345.7,-2422.26l-660.157,-0l0,-1371.09l1371.09,-0l0,914.062l3199.22,0l-0,-914.062l1371.09,-0l-0,1371.09l-1371.09,-0l-0,-9.55Zm-3656.25,-447.482l-0,-457.031l-457.031,0l-0,457.031l457.031,0Zm4113.28,0l457.031,0l0,-457.031l-457.031,0l0,457.031Zm-6398.44,5027.34l-0,-1371.09l829.942,0l5979.82,-2787.89l39.266,2787.89l463.469,0l-0,1371.09l-1371.09,0l-0,-914.062l-4570.31,-0l0,914.062l-1371.09,0Zm6398.44,-914.062l0,457.031l457.031,-0l0,-457.031l-457.031,-0Zm-5941.41,-0l-0,457.031l457.031,-0l0,-457.031l-457.031,-0Z" style="fill:#363636;"/><path id="Icon" d="M6551.82,2657.51l-5255.86,2431.82l1345.7,-2422.27l-660.157,0l0,-1371.09l1371.09,-0l0,914.062l3199.22,0l-0,-914.062l1371.09,-0l-0,1371.09l-1371.09,0l-0,-9.55Zm-3656.25,-447.481l-0,-457.031l-457.031,-0l-0,457.031l457.031,0Zm4113.28,0l457.031,0l0,-457.031l-457.031,-0l0,457.031Zm-6398.44,5027.34l-0,-1371.09l829.942,0l5979.82,-2787.89l39.266,2787.89l463.469,0l-0,1371.09l-1371.09,-0l-0,-914.063l-4570.31,0l0,914.063l-1371.09,-0Zm6398.44,-914.063l0,457.032l457.031,-0l0,-457.032l-457.031,0Zm-5941.41,0l-0,457.032l457.031,-0l0,-457.032l-457.031,0Z" style="fill:url(#_Linear1);"/></g><defs><linearGradient id="_Linear1" x1="0" y1="0" x2="1" y2="0" gradientUnits="userSpaceOnUse" gradientTransform="matrix(7312.5,0,0,5941.41,610.417,4266.67)"><stop offset="0" style="stop-color:#25e2f5;stop-opacity:1"/><stop offset="0.5" style="stop-color:#1c9aff;stop-opacity:1"/><stop offset="1" style="stop-color:#e062e9;stop-opacity:1"/></linearGradient></defs></svg>