<?xml version="1.0" encoding="UTF-8" standalone="no"?><!DOCTYPE svg PUBLIC "-//W3C//DTD SVG 1.1//EN" "http://www.w3.org/Graphics/SVG/1.1/DTD/svg11.dtd"><svg width="100%" height="100%" viewBox="0 0 8534 8534" version="1.1" xmlns="http://www.w3.org/2000/svg" xmlns:xlink="http://www.w3.org/1999/xlink" xml:space="preserve" xmlns:serif="http://www.serif.com/" style="fill-rule:evenodd;clip-rule:evenodd;stroke-linejoin:round;stroke-miterlimit:2;"><g id="Command_EdMode_WorldCollisionIgnore_NotIgnored"><path id="Highlight" d="M6874.95,2780.39l-1823.76,733.952l1593.93,1449.37l-2272.28,-396.63l-607.919,2201.86l-967.482,-1653.25l-2224.1,856.277l1252.91,-1871.95c175.639,52.191 357.969,78.417 541.197,77.844c1094.03,-0 1994.27,-900.247 1994.27,-1994.27c-2.961,-93.114 -11.626,-185.959 -25.948,-278.012l2016.51,-1453.08l-1112.05,1994.27l1634.71,333.614Zm-2409.44,4073.8l596.799,-834.036l834.036,834.036l1256.61,-1905.31l648.695,474.474l-1905.31,2383.49l-1430.84,-952.654Zm-621.63,-4780.89c0,887.456 -719.526,1606.98 -1606.98,1606.98c-887.456,-0 -1606.98,-719.527 -1606.98,-1606.98c-0,-887.457 719.527,-1606.98 1606.98,-1606.98c887.457,0 1606.98,719.527 1606.98,1606.98Zm-2123.63,-1235.24c-220.425,92.536 -410.049,243.19 -551.999,431.743l267.161,-0c72.314,-175.429 169.805,-314.299 284.838,-431.743Zm-709.885,1770.9l342.421,-0c-26.247,-119.185 -43.388,-252.029 -49.816,-401.746l-398.398,-0c14.061,141.682 50.888,276.535 105.793,401.746Zm157.886,267.83c141.95,188.553 331.574,339.208 551.999,431.743c-115.033,-117.444 -212.524,-256.314 -284.838,-431.743l-267.161,0Zm-157.886,-1339.15c-54.905,125.211 -91.732,260.064 -105.793,401.746l398.398,0c6.428,-149.717 23.569,-282.561 49.816,-401.746l-342.421,0Zm1092.62,401.746l-0,-401.746l-477.274,0c-29.595,115.034 -48.478,247.208 -55.307,401.746l532.581,0Zm-0,-669.576l-0,-409.915c-155.61,114.23 -283.901,238.503 -375.766,409.915l375.766,-0Zm-0,2016.9l-0,-409.915l-375.766,0c91.865,171.412 220.156,295.685 375.766,409.915Zm267.83,-1749.07l0,401.746l532.581,0c-6.829,-154.538 -25.711,-286.712 -55.307,-401.746l-477.274,0Zm1092.62,1071.32c54.905,-125.211 91.732,-260.064 105.793,-401.746l-398.398,-0c-6.428,149.717 -23.569,282.561 -49.816,401.746l342.421,-0Zm-292.605,-669.577l398.398,0c-14.061,-141.682 -50.888,-276.535 -105.793,-401.746l-342.421,0c26.247,119.185 43.388,252.029 49.816,401.746Zm-800.01,-1079.36l0,409.781l375.633,-0c-91.732,-171.278 -220.023,-295.685 -375.633,-409.781Zm934.729,409.781c-141.95,-188.553 -331.574,-339.207 -552.133,-431.877c115.033,117.578 212.658,256.448 284.972,431.877l267.161,-0Zm-934.729,2016.76c155.61,-114.096 283.901,-238.503 375.633,-409.781l-375.633,0l0,409.781Zm-267.83,-677.611l-0,-401.746l-532.581,-0c6.829,154.538 25.712,286.712 55.307,401.746l477.274,-0Zm650.426,699.707c220.559,-92.669 410.183,-243.324 552.133,-431.877l-267.161,0c-72.314,175.429 -169.939,314.299 -284.972,431.877Zm-382.596,-1101.45l0,401.746l477.274,-0c29.596,-115.034 48.478,-247.208 55.307,-401.746l-532.581,-0Z" style="fill:#fff;"/><path id="Shadow" d="M6874.95,3113.72l-1823.76,733.951l1593.93,1449.37l-2272.28,-396.63l-607.919,2201.86l-967.482,-1653.25l-2224.1,856.277l1252.91,-1871.95c175.639,52.191 357.969,78.416 541.197,77.843c1094.03,0 1994.27,-900.247 1994.27,-1994.27c-2.961,-93.113 -11.626,-185.958 -25.948,-278.012l2016.51,-1453.08l-1112.05,1994.27l1634.71,333.615Zm-2409.44,4073.8l596.799,-834.036l834.036,834.036l1256.61,-1905.31l648.695,474.474l-1905.31,2383.49l-1430.84,-952.655Zm-621.63,-4780.89c0,887.456 -719.526,1606.98 -1606.98,1606.98c-887.456,0 -1606.98,-719.527 -1606.98,-1606.98c-0,-887.457 719.527,-1606.98 1606.98,-1606.98c887.457,-0 1606.98,719.526 1606.98,1606.98Zm-2123.63,-1235.24c-220.425,92.536 -410.049,243.191 -551.999,431.743l267.161,0c72.314,-175.429 169.805,-314.299 284.838,-431.743Zm-709.885,1770.9l342.421,-0c-26.247,-119.185 -43.388,-252.029 -49.816,-401.746l-398.398,0c14.061,141.683 50.888,276.535 105.793,401.746Zm157.886,267.831c141.95,188.552 331.574,339.207 551.999,431.742c-115.033,-117.443 -212.524,-256.313 -284.838,-431.742l-267.161,-0Zm-157.886,-1339.15c-54.905,125.211 -91.732,260.063 -105.793,401.746l398.398,-0c6.428,-149.718 23.569,-282.562 49.816,-401.746l-342.421,-0Zm1092.62,401.746l-0,-401.746l-477.274,-0c-29.595,115.033 -48.478,247.207 -55.307,401.746l532.581,-0Zm-0,-669.577l-0,-409.914c-155.61,114.229 -283.901,238.503 -375.766,409.914l375.766,0Zm-0,2016.9l-0,-409.914l-375.766,-0c91.865,171.411 220.156,295.684 375.766,409.914Zm267.83,-1749.07l0,401.746l532.581,-0c-6.829,-154.539 -25.711,-286.713 -55.307,-401.746l-477.274,-0Zm1092.62,1071.32c54.905,-125.211 91.732,-260.063 105.793,-401.746l-398.398,0c-6.428,149.717 -23.569,282.561 -49.816,401.746l342.421,-0Zm-292.605,-669.576l398.398,-0c-14.061,-141.683 -50.888,-276.535 -105.793,-401.746l-342.421,-0c26.247,119.184 43.388,252.028 49.816,401.746Zm-800.01,-1079.36l0,409.78l375.633,0c-91.732,-171.277 -220.023,-295.685 -375.633,-409.78Zm934.729,409.78c-141.95,-188.552 -331.574,-339.207 -552.133,-431.876c115.033,117.577 212.658,256.447 284.972,431.876l267.161,0Zm-934.729,2016.76c155.61,-114.096 283.901,-238.503 375.633,-409.78l-375.633,-0l0,409.78Zm-267.83,-677.611l-0,-401.746l-532.581,0c6.829,154.538 25.712,286.713 55.307,401.746l477.274,-0Zm650.426,699.707c220.559,-92.669 410.183,-243.324 552.133,-431.876l-267.161,-0c-72.314,175.429 -169.939,314.299 -284.972,431.876Zm-382.596,-1101.45l0,401.746l477.274,-0c29.596,-115.033 48.478,-247.208 55.307,-401.746l-532.581,0Z" style="fill:#363636;"/><path id="Icon" d="M6874.95,2947.04l-1823.76,733.952l1593.93,1449.37l-2272.28,-396.63l-607.919,2201.86l-967.482,-1653.25l-2224.1,856.277l1252.91,-1871.95c175.639,52.191 357.969,78.416 541.197,77.843c1094.03,0 1994.27,-900.247 1994.27,-1994.27c-2.961,-93.114 -11.626,-185.958 -25.948,-278.012l2016.51,-1453.08l-1112.05,1994.27l1634.71,333.614Zm-2409.44,4073.8l596.799,-834.036l834.036,834.036l1256.61,-1905.31l648.695,474.474l-1905.31,2383.49l-1430.84,-952.654Zm-621.63,-4780.89c0,887.456 -719.526,1606.98 -1606.98,1606.98c-887.456,-0 -1606.98,-719.527 -1606.98,-1606.98c-0,-887.457 719.527,-1606.98 1606.98,-1606.98c887.457,-0 1606.98,719.526 1606.98,1606.98Zm-2123.63,-1235.24c-220.425,92.536 -410.049,243.19 -551.999,431.743l267.161,0c72.314,-175.429 169.805,-314.299 284.838,-431.743Zm-709.885,1770.9l342.421,-0c-26.247,-119.185 -43.388,-252.029 -49.816,-401.746l-398.398,0c14.061,141.682 50.888,276.535 105.793,401.746Zm157.886,267.83c141.95,188.553 331.574,339.208 551.999,431.743c-115.033,-117.444 -212.524,-256.314 -284.838,-431.743l-267.161,0Zm-157.886,-1339.15c-54.905,125.21 -91.732,260.063 -105.793,401.745l398.398,0c6.428,-149.717 23.569,-282.561 49.816,-401.745l-342.421,-0Zm1092.62,401.745l-0,-401.745l-477.274,-0c-29.595,115.033 -48.478,247.207 -55.307,401.745l532.581,0Zm-0,-669.576l-0,-409.914c-155.61,114.229 -283.901,238.503 -375.766,409.914l375.766,0Zm-0,2016.9l-0,-409.915l-375.766,0c91.865,171.412 220.156,295.685 375.766,409.915Zm267.83,-1749.07l0,401.745l532.581,0c-6.829,-154.538 -25.711,-286.712 -55.307,-401.745l-477.274,-0Zm1092.62,1071.32c54.905,-125.211 91.732,-260.064 105.793,-401.746l-398.398,0c-6.428,149.717 -23.569,282.561 -49.816,401.746l342.421,-0Zm-292.605,-669.577l398.398,0c-14.061,-141.682 -50.888,-276.535 -105.793,-401.745l-342.421,-0c26.247,119.184 43.388,252.028 49.816,401.745Zm-800.01,-1079.36l0,409.781l375.633,0c-91.732,-171.277 -220.023,-295.685 -375.633,-409.781Zm934.729,409.781c-141.95,-188.553 -331.574,-339.207 -552.133,-431.877c115.033,117.578 212.658,256.448 284.972,431.877l267.161,0Zm-934.729,2016.76c155.61,-114.096 283.901,-238.503 375.633,-409.781l-375.633,0l0,409.781Zm-267.83,-677.611l-0,-401.746l-532.581,0c6.829,154.538 25.712,286.713 55.307,401.746l477.274,-0Zm650.426,699.707c220.559,-92.669 410.183,-243.324 552.133,-431.877l-267.161,0c-72.314,175.429 -169.939,314.299 -284.972,431.877Zm-382.596,-1101.45l0,401.746l477.274,-0c29.596,-115.033 48.478,-247.208 55.307,-401.746l-532.581,0Z" style="fill:url(#_Linear1);"/></g><defs><linearGradient id="_Linear1" x1="0" y1="0" x2="1" y2="0" gradientUnits="userSpaceOnUse" gradientTransform="matrix(7228.31,0,0,7354.34,573.344,4296.32)"><stop offset="0" style="stop-color:#25e2f5;stop-opacity:1"/><stop offset="0.5" style="stop-color:#1c9aff;stop-opacity:1"/><stop offset="1" style="stop-color:#e062e9;stop-opacity:1"/></linearGradient></defs></svg>