<?xml version="1.0" encoding="UTF-8" standalone="no"?><!DOCTYPE svg PUBLIC "-//W3C//DTD SVG 1.1//EN" "http://www.w3.org/Graphics/SVG/1.1/DTD/svg11.dtd"><svg width="100%" height="100%" viewBox="0 0 8534 8534" version="1.1" xmlns="http://www.w3.org/2000/svg" xmlns:xlink="http://www.w3.org/1999/xlink" xml:space="preserve" xmlns:serif="http://www.serif.com/" style="fill-rule:evenodd;clip-rule:evenodd;stroke-linejoin:round;stroke-miterlimit:2;"><g id="Command_EdMode_HasCollisionVisualizer"><path id="Highlight" d="M6455.09,6087.61l-751.173,-140.825c36.239,-179.476 55.263,-365.123 55.263,-555.225c0,-1536.82 -1247.24,-2784.08 -2784.05,-2784.08c-78.143,0 -155.538,3.225 -232.057,9.55l0,-1401.44l3712.01,-696.003l1392.01,1160.01l-0,3712.01l-1392.01,696.003Zm-5860.52,-697.488c0,-1314.9 1067.18,-2382.07 2382.09,-2382.08c1314.91,0 2382.08,1067.18 2382.08,2382.08c0,1314.93 -1063.99,2382.09 -2382.08,2382.09c-1318.09,-0 -2382.09,-1064 -2382.09,-2382.09Zm3494.03,-185.048c-0,-102.402 -83.11,-185.511 -185.512,-185.511l-1855.12,-0c-102.774,-0 -185.512,83.109 -185.512,185.511l0,371.024c0,102.402 82.738,185.511 185.512,185.511l1855.12,0c102.402,0 185.512,-83.109 185.512,-185.511l-0,-371.024Z" style="fill:#fff;"/><path id="Shadow" d="M6455.09,6420.94l-751.173,-140.825c36.239,-179.475 55.263,-365.123 55.263,-555.224c0,-1536.82 -1247.24,-2784.08 -2784.05,-2784.08c-78.143,-0 -155.538,3.224 -232.057,9.549l0,-1401.44l3712.01,-696.002l1392.01,1160l-0,3712.01l-1392.01,696.003Zm-5860.52,-697.488c0,-1314.9 1067.18,-2382.07 2382.09,-2382.08c1314.91,-0 2382.08,1067.18 2382.08,2382.08c0,1314.93 -1063.99,2382.09 -2382.08,2382.09c-1318.09,0 -2382.09,-1064 -2382.09,-2382.09Zm3494.03,-185.047c-0,-102.403 -83.11,-185.512 -185.512,-185.512l-1855.12,0c-102.774,0 -185.512,83.109 -185.512,185.512l0,371.023c0,102.402 82.738,185.512 185.512,185.512l1855.12,-0c102.402,-0 185.512,-83.11 185.512,-185.512l-0,-371.023Z" style="fill:#363636;"/><path id="Icon" d="M6455.09,6254.21l-751.173,-140.825c36.239,-179.476 55.263,-365.123 55.263,-555.225c0,-1536.82 -1247.24,-2784.08 -2784.05,-2784.08c-78.143,0 -155.538,3.225 -232.057,9.549l0,-1401.44l3712.01,-696.003l1392.01,1160.01l-0,3712.01l-1392.01,696.003Zm-5860.52,-697.488c0,-1314.9 1067.18,-2382.07 2382.09,-2382.08c1314.91,0 2382.08,1067.18 2382.08,2382.08c0,1314.93 -1063.99,2382.09 -2382.08,2382.09c-1318.09,-0 -2382.09,-1064 -2382.09,-2382.09Zm3494.03,-185.048c-0,-102.402 -83.11,-185.511 -185.512,-185.511l-1855.12,-0c-102.774,-0 -185.512,83.109 -185.512,185.511l0,371.024c0,102.402 82.738,185.511 185.512,185.511l1855.12,0c102.402,0 185.512,-83.109 185.512,-185.511l-0,-371.024Z" style="fill:url(#_Linear1);"/></g><defs><linearGradient id="_Linear1" x1="0" y1="0" x2="1" y2="0" gradientUnits="userSpaceOnUse" gradientTransform="matrix(7252.52,0,0,7252.63,594.573,4312.5)"><stop offset="0" style="stop-color:#25e2f5;stop-opacity:1"/><stop offset="0.5" style="stop-color:#1c9aff;stop-opacity:1"/><stop offset="1" style="stop-color:#e062e9;stop-opacity:1"/></linearGradient></defs></svg>