<?xml version="1.0" encoding="UTF-8" standalone="no"?><!DOCTYPE svg PUBLIC "-//W3C//DTD SVG 1.1//EN" "http://www.w3.org/Graphics/SVG/1.1/DTD/svg11.dtd"><svg width="100%" height="100%" viewBox="0 0 8534 8534" version="1.1" xmlns="http://www.w3.org/2000/svg" xmlns:xlink="http://www.w3.org/1999/xlink" xml:space="preserve" xmlns:serif="http://www.serif.com/" style="fill-rule:evenodd;clip-rule:evenodd;stroke-linejoin:round;stroke-miterlimit:2;"><g id="Command_EdMode_Hull_AllowNonConvex"><path id="Shadow" d="M2355.2,3227.7l-1779.75,-0c-7.505,-9.693 -58.782,-65.973 -58.782,-177.284c-0,-110.997 67.536,-205.111 74.728,-213.553l1638.07,-1877.89c26.265,-30.016 58.157,-51.59 92.238,-69.1c8.755,-4.69 17.197,-8.442 26.577,-12.194c36.582,-15.008 75.04,-25.013 114.749,-25.326l1740.51,-0c19.646,-4.338 40.662,-6.863 62.968,-6.863c22.335,0 43.389,2.525 63.077,6.863l1740.71,-0c39.709,0.313 78.167,10.318 114.75,25.326c9.067,3.752 17.822,7.504 26.576,12.194c33.769,17.51 65.974,39.084 92.238,69.1l1637.76,1877.89c7.817,8.442 75.041,99.429 75.041,215.742c-0,116.626 -51.591,165.402 -58.782,175.095l-1779.76,-0l1779.76,2418.2c7.504,9.693 58.782,65.973 58.782,177.283c-0,110.998 -67.537,205.111 -74.728,213.554l-1638.08,1877.89c-26.264,30.016 -58.157,51.59 -92.238,69.1c-8.754,4.69 -17.196,8.442 -26.576,12.194c-36.583,15.008 -75.041,25.013 -114.75,25.326l-3607.27,-0c-39.709,-0.313 -78.167,-10.318 -114.749,-25.326c-9.068,-3.752 -17.822,-7.504 -26.577,-12.194c-33.768,-17.51 -65.973,-39.084 -92.238,-69.1l-1637.76,-1877.89c-7.816,-8.443 -75.04,-99.429 -75.04,-215.742c-0,-116.626 51.59,-165.402 58.782,-175.095l1779.75,-2418.2Zm776.611,-0l-1686.21,2290.94l1117.79,0l722.776,-2290.94l-154.362,-0Zm816.546,-0c-260.928,822.022 -728.979,2290.94 -728.979,2290.94l2094.57,0c-0,0 -451.843,-1460.22 -713.648,-2290.94l-651.945,-0Zm1298.8,-0l722.775,2290.94l1117.79,0l-1686.21,-2290.94l-154.362,-0Zm-806.051,-498.082l656.478,-0l-831.075,-1058.7l-830.762,1058.7l998.69,-0c-24.811,-88.635 -19.624,-78.986 6.669,-0Zm468.564,4666.92l786.676,-0l-114.749,-656.919l-28.453,-162.9l-643.474,819.819Zm-1473.92,-1252.55l831.075,1058.7l830.762,-1058.7l-1661.84,0Zm2827.78,865.469l754.783,-865.469l-905.803,0l120.065,687.873l30.955,177.596Zm-3426.54,387.085l786.676,-0l-643.473,-819.819l-28.141,162.9l-115.062,656.919Zm-535.915,-564.681l119.752,-687.873l-905.803,0l754.784,865.469l31.267,-177.596Zm3395.28,-5354.79l-786.676,0l643.474,819.819l28.14,-162.9l115.062,-656.919Zm535.916,564.681l-119.753,687.873l905.803,-0l-754.783,-865.469l-31.267,177.596Zm-3962.46,-177.596l-754.784,865.469l905.803,-0l-120.065,-687.873l-30.954,-177.596Zm1353.86,-387.085l-786.676,0l114.75,656.919l28.453,162.9l643.473,-819.819Z" style="fill:#363636;"/><path id="Icon" d="M2355.2,3061l-1779.75,-0c-7.505,-9.693 -58.782,-65.974 -58.782,-177.284c-0,-110.998 67.536,-205.111 74.728,-213.553l1638.07,-1877.89c26.265,-30.017 58.157,-51.591 92.238,-69.1c8.755,-4.69 17.197,-8.442 26.577,-12.194c36.582,-15.008 75.04,-25.014 114.749,-25.327l1740.51,0c19.646,-4.338 40.662,-6.862 62.968,-6.862c22.335,-0 43.389,2.524 63.077,6.862l1740.71,0c39.709,0.313 78.167,10.319 114.75,25.327c9.067,3.752 17.822,7.504 26.576,12.194c33.769,17.509 65.974,39.083 92.238,69.1l1637.76,1877.89c7.817,8.442 75.041,99.429 75.041,215.742c-0,116.625 -51.591,165.402 -58.782,175.095l-1779.76,-0l1779.76,2418.2c7.504,9.693 58.782,65.974 58.782,177.284c-0,110.998 -67.537,205.111 -74.728,213.553l-1638.08,1877.89c-26.264,30.017 -58.157,51.591 -92.238,69.1c-8.754,4.69 -17.196,8.442 -26.576,12.194c-36.583,15.009 -75.041,25.014 -114.75,25.327l-3607.27,-0c-39.709,-0.313 -78.167,-10.318 -114.749,-25.327c-9.068,-3.752 -17.822,-7.504 -26.577,-12.194c-33.768,-17.509 -65.973,-39.083 -92.238,-69.1l-1637.76,-1877.89c-7.816,-8.442 -75.04,-99.429 -75.04,-215.742c-0,-116.625 51.59,-165.402 58.782,-175.095l1779.75,-2418.2Zm776.611,-0l-1686.21,2290.94l1117.79,0l722.776,-2290.94l-154.362,-0Zm816.546,-0c-260.928,822.022 -728.979,2290.94 -728.979,2290.94l2094.57,0c-0,0 -451.843,-1460.22 -713.648,-2290.94l-651.945,-0Zm1298.8,-0l722.775,2290.94l1117.79,0l-1686.21,-2290.94l-154.362,-0Zm-806.051,-498.083l656.478,0l-831.075,-1058.7l-830.762,1058.7l998.69,0c-24.811,-88.635 -19.624,-78.985 6.669,0Zm468.564,4666.92l786.676,0l-114.749,-656.918l-28.453,-162.901l-643.474,819.819Zm-1473.92,-1252.55l831.075,1058.7l830.762,-1058.7l-1661.84,-0Zm2827.78,865.469l754.783,-865.469l-905.803,-0l120.065,687.872l30.955,177.597Zm-3426.54,387.084l786.676,0l-643.473,-819.819l-28.141,162.901l-115.062,656.918Zm-535.915,-564.681l119.752,-687.872l-905.803,-0l754.784,865.469l31.267,-177.597Zm3395.28,-5354.79l-786.676,-0l643.474,819.819l28.14,-162.901l115.062,-656.918Zm535.916,564.681l-119.753,687.872l905.803,0l-754.783,-865.468l-31.267,177.596Zm-3962.46,-177.596l-754.784,865.468l905.803,0l-120.065,-687.872l-30.954,-177.596Zm1353.86,-387.085l-786.676,-0l114.75,656.918l28.453,162.901l643.473,-819.819Z" style="fill:#ccc;"/></g></svg>