<?xml version="1.0" encoding="UTF-8" standalone="no"?><!DOCTYPE svg PUBLIC "-//W3C//DTD SVG 1.1//EN" "http://www.w3.org/Graphics/SVG/1.1/DTD/svg11.dtd"><svg width="100%" height="100%" viewBox="0 0 8534 8534" version="1.1" xmlns="http://www.w3.org/2000/svg" xmlns:xlink="http://www.w3.org/1999/xlink" xml:space="preserve" xmlns:serif="http://www.serif.com/" style="fill-rule:evenodd;clip-rule:evenodd;stroke-linejoin:round;stroke-miterlimit:2;"><g id="Command_EdMode_IgnoreActorToggle_Unknown"><path id="Highlight" d="M2227.91,467.327c879.717,0 1593.93,714.219 1593.93,1593.94c0,879.717 -714.218,1593.93 -1593.93,1593.93c-879.717,0 -1593.94,-714.218 -1593.94,-1593.93c0,-879.717 714.219,-1593.94 1593.94,-1593.94Zm4633.53,2313.06l-1823.76,733.952l1249.06,1136.48l-528.894,157.61l-1398.52,-241.347l-607.919,2201.86l-967.482,-1653.25l-2224.1,856.277l1252.91,-1871.95c175.639,52.191 357.969,78.417 541.197,77.844c1094.03,-0 1994.27,-900.247 1994.27,-1994.27c-2.961,-93.114 -11.626,-185.959 -25.948,-278.012l2016.51,-1453.08l-1112.05,1994.27l1634.71,333.614Zm-683.201,3325.2l-708.44,-77.214c108.1,-603.557 458.781,-905.335 1052.04,-905.335c298.561,-0 534.064,78.822 706.509,236.468c172.445,157.645 258.667,352.933 258.667,585.862c0,102.952 -17.051,196.896 -51.154,281.831c-34.103,84.936 -77.857,154.75 -131.264,209.443c-53.406,54.694 -139.95,125.795 -259.632,213.304c-91.37,66.919 -149.603,115.5 -174.697,145.742c-25.095,30.242 -42.146,74.318 -51.154,132.229l-640.877,0c-0,-155.715 13.834,-267.997 41.502,-336.846c27.669,-68.85 84.614,-141.881 170.836,-219.095c129.977,-117.108 211.052,-204.296 243.225,-261.563c32.172,-57.267 48.259,-123.864 48.259,-199.792c-0,-79.788 -21.234,-141.237 -63.702,-184.348c-42.468,-43.111 -95.231,-64.667 -158.289,-64.667c-186.601,-0 -280.545,147.994 -281.831,443.981Zm714.23,988.34l-0,704.579l-739.325,-0l0,-704.579l739.325,0Z" style="fill:#fff;"/><path id="Shadow" d="M2227.91,800.661c879.717,-0 1593.93,714.218 1593.93,1593.93c0,879.717 -714.218,1593.94 -1593.93,1593.94c-879.717,-0 -1593.94,-714.219 -1593.94,-1593.94c0,-879.717 714.219,-1593.93 1593.94,-1593.93Zm4633.53,2313.06l-1823.76,733.951l1249.06,1136.48l-528.894,157.61l-1398.52,-241.347l-607.919,2201.86l-967.482,-1653.25l-2224.1,856.277l1252.91,-1871.95c175.639,52.191 357.969,78.416 541.197,77.843c1094.03,0 1994.27,-900.247 1994.27,-1994.27c-2.961,-93.113 -11.626,-185.958 -25.948,-278.012l2016.51,-1453.08l-1112.05,1994.27l1634.71,333.615Zm-683.201,3325.2l-708.44,-77.214c108.1,-603.557 458.781,-905.335 1052.04,-905.335c298.561,0 534.064,78.823 706.509,236.468c172.445,157.646 258.667,352.933 258.667,585.862c0,102.952 -17.051,196.896 -51.154,281.831c-34.103,84.936 -77.857,154.75 -131.264,209.444c-53.406,54.693 -139.95,125.794 -259.632,213.304c-91.37,66.918 -149.603,115.499 -174.697,145.741c-25.095,30.242 -42.146,74.319 -51.154,132.229l-640.877,0c-0,-155.715 13.834,-267.997 41.502,-336.846c27.669,-68.849 84.614,-141.881 170.836,-219.095c129.977,-117.108 211.052,-204.296 243.225,-261.563c32.172,-57.267 48.259,-123.864 48.259,-199.791c-0,-79.788 -21.234,-141.238 -63.702,-184.349c-42.468,-43.111 -95.231,-64.667 -158.289,-64.667c-186.601,0 -280.545,147.994 -281.831,443.981Zm714.23,988.341l-0,704.578l-739.325,0l0,-704.578l739.325,-0Z" style="fill:#363636;"/><path id="Icon" d="M2227.91,633.976c879.717,0 1593.93,714.219 1593.93,1593.94c0,879.717 -714.218,1593.93 -1593.93,1593.93c-879.717,0 -1593.94,-714.218 -1593.94,-1593.93c0,-879.717 714.219,-1593.94 1593.94,-1593.94Zm4633.53,2313.06l-1823.76,733.952l1249.06,1136.48l-528.894,157.61l-1398.52,-241.347l-607.919,2201.86l-967.482,-1653.25l-2224.1,856.277l1252.91,-1871.95c175.639,52.191 357.969,78.416 541.197,77.843c1094.03,0 1994.27,-900.247 1994.27,-1994.27c-2.961,-93.114 -11.626,-185.958 -25.948,-278.012l2016.51,-1453.08l-1112.05,1994.27l1634.71,333.614Zm-683.201,3325.2l-708.44,-77.214c108.1,-603.557 458.781,-905.335 1052.04,-905.335c298.561,-0 534.064,78.823 706.509,236.468c172.445,157.645 258.667,352.933 258.667,585.862c0,102.952 -17.051,196.896 -51.154,281.831c-34.103,84.936 -77.857,154.75 -131.264,209.444c-53.406,54.693 -139.95,125.794 -259.632,213.303c-91.37,66.919 -149.603,115.5 -174.697,145.742c-25.095,30.242 -42.146,74.319 -51.154,132.229l-640.877,0c-0,-155.715 13.834,-267.997 41.502,-336.846c27.669,-68.85 84.614,-141.881 170.836,-219.095c129.977,-117.108 211.052,-204.296 243.225,-261.563c32.172,-57.267 48.259,-123.864 48.259,-199.791c-0,-79.788 -21.234,-141.238 -63.702,-184.349c-42.468,-43.111 -95.231,-64.667 -158.289,-64.667c-186.601,0 -280.545,147.994 -281.831,443.981Zm714.23,988.34l-0,704.579l-739.325,0l0,-704.579l739.325,0Z" style="fill:url(#_Linear1);"/></g><defs><linearGradient id="_Linear1" x1="0" y1="0" x2="1" y2="0" gradientUnits="userSpaceOnUse" gradientTransform="matrix(6568.85,0,0,7354.34,559.84,4296.32)"><stop offset="0" style="stop-color:#25e2f5;stop-opacity:1"/><stop offset="0.5" style="stop-color:#1c9aff;stop-opacity:1"/><stop offset="1" style="stop-color:#e062e9;stop-opacity:1"/></linearGradient></defs></svg>