<?xml version="1.0" encoding="UTF-8" standalone="no"?><!DOCTYPE svg PUBLIC "-//W3C//DTD SVG 1.1//EN" "http://www.w3.org/Graphics/SVG/1.1/DTD/svg11.dtd"><svg width="100%" height="100%" viewBox="0 0 8534 8534" version="1.1" xmlns="http://www.w3.org/2000/svg" xmlns:xlink="http://www.w3.org/1999/xlink" xml:space="preserve" xmlns:serif="http://www.serif.com/" style="fill-rule:evenodd;clip-rule:evenodd;stroke-linejoin:round;stroke-miterlimit:2;"><g id="Command_EdMode_WorldCollisionIgnore_Unknown"><path id="Highlight" d="M6861.44,2780.39l-1823.76,733.952l1249.06,1136.48l-528.894,157.61l-1398.52,-241.347l-607.919,2201.86l-967.482,-1653.25l-2224.1,856.277l1252.91,-1871.95c175.639,52.191 357.969,78.417 541.197,77.844c1094.03,-0 1994.27,-900.247 1994.27,-1994.27c-2.961,-93.114 -11.626,-185.959 -25.948,-278.012l2016.51,-1453.08l-1112.05,1994.27l1634.71,333.614Zm-683.201,3325.2l-708.44,-77.214c108.1,-603.557 458.781,-905.335 1052.04,-905.335c298.561,-0 534.064,78.822 706.509,236.468c172.445,157.645 258.667,352.933 258.667,585.862c0,102.952 -17.051,196.896 -51.154,281.831c-34.103,84.936 -77.857,154.75 -131.264,209.443c-53.406,54.694 -139.95,125.795 -259.632,213.304c-91.37,66.919 -149.603,115.5 -174.697,145.742c-25.095,30.242 -42.146,74.318 -51.154,132.229l-640.877,0c-0,-155.715 13.834,-267.997 41.502,-336.846c27.669,-68.85 84.614,-141.881 170.836,-219.095c129.977,-117.108 211.052,-204.296 243.225,-261.563c32.172,-57.267 48.259,-123.864 48.259,-199.792c-0,-79.788 -21.234,-141.237 -63.702,-184.348c-42.468,-43.111 -95.231,-64.667 -158.289,-64.667c-186.601,-0 -280.545,147.994 -281.831,443.981Zm714.23,988.34l-0,704.579l-739.325,-0l0,-704.579l739.325,0Zm-3048.59,-5020.63c0,887.456 -719.526,1606.98 -1606.98,1606.98c-887.456,-0 -1606.98,-719.527 -1606.98,-1606.98c-0,-887.457 719.527,-1606.98 1606.98,-1606.98c887.457,0 1606.98,719.527 1606.98,1606.98Zm-1473.07,-1213.27l0,409.781l375.633,-0c-91.732,-171.278 -220.023,-295.685 -375.633,-409.781Zm382.596,2448.64c220.559,-92.669 410.183,-243.324 552.133,-431.877l-267.161,0c-72.314,175.429 -169.939,314.299 -284.972,431.877Zm-650.426,-699.707l-0,-401.746l-532.581,-0c6.829,154.538 25.712,286.712 55.307,401.746l477.274,-0Zm1067.84,-669.577l398.398,0c-14.061,-141.682 -50.888,-276.535 -105.793,-401.746l-342.421,0c26.247,119.185 43.388,252.029 49.816,401.746Zm-2160.45,669.577l342.421,-0c-26.247,-119.185 -43.388,-252.029 -49.816,-401.746l-398.398,-0c14.061,141.682 50.888,276.535 105.793,401.746Zm1360.44,-1071.32l0,401.746l532.581,0c-6.829,-154.538 -25.711,-286.712 -55.307,-401.746l-477.274,0Zm-267.83,1749.07l-0,-409.915l-375.766,0c91.865,171.412 220.156,295.685 375.766,409.915Zm-1092.62,-1749.07c-54.905,125.211 -91.732,260.064 -105.793,401.746l398.398,0c6.428,-149.717 23.569,-282.561 49.816,-401.746l-342.421,0Zm1360.44,669.577l0,401.746l477.274,-0c29.596,-115.034 48.478,-247.208 55.307,-401.746l-532.581,-0Zm-267.83,-937.407l-0,-409.915c-155.61,114.23 -283.901,238.503 -375.766,409.915l375.766,-0Zm-0,669.576l-0,-401.746l-477.274,0c-29.595,115.034 -48.478,247.208 -55.307,401.746l532.581,0Zm-934.729,937.407c141.95,188.553 331.574,339.208 551.999,431.743c-115.033,-117.444 -212.524,-256.314 -284.838,-431.743l-267.161,0Zm551.999,-2038.73c-220.425,92.536 -410.049,243.19 -551.999,431.743l267.161,-0c72.314,-175.429 169.805,-314.299 284.838,-431.743Zm1743.17,1770.9c54.905,-125.211 91.732,-260.064 105.793,-401.746l-398.398,-0c-6.428,149.717 -23.569,282.561 -49.816,401.746l342.421,-0Zm-1092.62,677.611c155.61,-114.096 283.901,-238.503 375.633,-409.781l-375.633,0l0,409.781Zm934.729,-2016.76c-141.95,-188.553 -331.574,-339.207 -552.133,-431.877c115.033,117.578 212.658,256.448 284.972,431.877l267.161,-0Z" style="fill:#fff;"/><path id="Shadow" d="M6861.44,3113.72l-1823.76,733.951l1249.06,1136.48l-528.894,157.61l-1398.52,-241.347l-607.919,2201.86l-967.482,-1653.25l-2224.1,856.277l1252.91,-1871.95c175.639,52.191 357.969,78.416 541.197,77.843c1094.03,0 1994.27,-900.247 1994.27,-1994.27c-2.961,-93.113 -11.626,-185.958 -25.948,-278.012l2016.51,-1453.08l-1112.05,1994.27l1634.71,333.615Zm-683.201,3325.2l-708.44,-77.214c108.1,-603.557 458.781,-905.335 1052.04,-905.335c298.561,0 534.064,78.823 706.509,236.468c172.445,157.646 258.667,352.933 258.667,585.862c0,102.952 -17.051,196.896 -51.154,281.831c-34.103,84.936 -77.857,154.75 -131.264,209.444c-53.406,54.693 -139.95,125.794 -259.632,213.304c-91.37,66.918 -149.603,115.499 -174.697,145.741c-25.095,30.242 -42.146,74.319 -51.154,132.229l-640.877,0c-0,-155.715 13.834,-267.997 41.502,-336.846c27.669,-68.849 84.614,-141.881 170.836,-219.095c129.977,-117.108 211.052,-204.296 243.225,-261.563c32.172,-57.267 48.259,-123.864 48.259,-199.791c-0,-79.788 -21.234,-141.238 -63.702,-184.349c-42.468,-43.111 -95.231,-64.667 -158.289,-64.667c-186.601,0 -280.545,147.994 -281.831,443.981Zm714.23,988.341l-0,704.578l-739.325,0l0,-704.578l739.325,-0Zm-3048.59,-5020.63c0,887.456 -719.526,1606.98 -1606.98,1606.98c-887.456,0 -1606.98,-719.527 -1606.98,-1606.98c-0,-887.457 719.527,-1606.98 1606.98,-1606.98c887.457,-0 1606.98,719.526 1606.98,1606.98Zm-1473.07,-1213.27l0,409.78l375.633,0c-91.732,-171.277 -220.023,-295.685 -375.633,-409.78Zm382.596,2448.64c220.559,-92.669 410.183,-243.324 552.133,-431.876l-267.161,-0c-72.314,175.429 -169.939,314.299 -284.972,431.876Zm-650.426,-699.707l-0,-401.746l-532.581,0c6.829,154.538 25.712,286.713 55.307,401.746l477.274,-0Zm1067.84,-669.576l398.398,-0c-14.061,-141.683 -50.888,-276.535 -105.793,-401.746l-342.421,-0c26.247,119.184 43.388,252.028 49.816,401.746Zm-2160.45,669.576l342.421,-0c-26.247,-119.185 -43.388,-252.029 -49.816,-401.746l-398.398,0c14.061,141.683 50.888,276.535 105.793,401.746Zm1360.44,-1071.32l0,401.746l532.581,-0c-6.829,-154.539 -25.711,-286.713 -55.307,-401.746l-477.274,-0Zm-267.83,1749.07l-0,-409.914l-375.766,-0c91.865,171.411 220.156,295.684 375.766,409.914Zm-1092.62,-1749.07c-54.905,125.211 -91.732,260.063 -105.793,401.746l398.398,-0c6.428,-149.718 23.569,-282.562 49.816,-401.746l-342.421,-0Zm1360.44,669.576l0,401.746l477.274,-0c29.596,-115.033 48.478,-247.208 55.307,-401.746l-532.581,0Zm-267.83,-937.407l-0,-409.914c-155.61,114.229 -283.901,238.503 -375.766,409.914l375.766,0Zm-0,669.577l-0,-401.746l-477.274,-0c-29.595,115.033 -48.478,247.207 -55.307,401.746l532.581,-0Zm-934.729,937.407c141.95,188.552 331.574,339.207 551.999,431.742c-115.033,-117.443 -212.524,-256.313 -284.838,-431.742l-267.161,-0Zm551.999,-2038.73c-220.425,92.536 -410.049,243.191 -551.999,431.743l267.161,0c72.314,-175.429 169.805,-314.299 284.838,-431.743Zm1743.17,1770.9c54.905,-125.211 91.732,-260.063 105.793,-401.746l-398.398,0c-6.428,149.717 -23.569,282.561 -49.816,401.746l342.421,-0Zm-1092.62,677.611c155.61,-114.096 283.901,-238.503 375.633,-409.78l-375.633,-0l0,409.78Zm934.729,-2016.76c-141.95,-188.552 -331.574,-339.207 -552.133,-431.876c115.033,117.577 212.658,256.447 284.972,431.876l267.161,0Z" style="fill:#363636;"/><path id="Icon" d="M6861.44,2947.04l-1823.76,733.952l1249.06,1136.48l-528.894,157.61l-1398.52,-241.347l-607.919,2201.86l-967.482,-1653.25l-2224.1,856.277l1252.91,-1871.95c175.639,52.191 357.969,78.416 541.197,77.843c1094.03,0 1994.27,-900.247 1994.27,-1994.27c-2.961,-93.114 -11.626,-185.958 -25.948,-278.012l2016.51,-1453.08l-1112.05,1994.27l1634.71,333.614Zm-683.201,3325.2l-708.44,-77.214c108.1,-603.557 458.781,-905.335 1052.04,-905.335c298.561,-0 534.064,78.823 706.509,236.468c172.445,157.645 258.667,352.933 258.667,585.862c0,102.952 -17.051,196.896 -51.154,281.831c-34.103,84.936 -77.857,154.75 -131.264,209.444c-53.406,54.693 -139.95,125.794 -259.632,213.303c-91.37,66.919 -149.603,115.5 -174.697,145.742c-25.095,30.242 -42.146,74.319 -51.154,132.229l-640.877,0c-0,-155.715 13.834,-267.997 41.502,-336.846c27.669,-68.85 84.614,-141.881 170.836,-219.095c129.977,-117.108 211.052,-204.296 243.225,-261.563c32.172,-57.267 48.259,-123.864 48.259,-199.791c-0,-79.788 -21.234,-141.238 -63.702,-184.349c-42.468,-43.111 -95.231,-64.667 -158.289,-64.667c-186.601,0 -280.545,147.994 -281.831,443.981Zm714.23,988.34l-0,704.579l-739.325,0l0,-704.579l739.325,0Zm-3048.59,-5020.63c0,887.456 -719.526,1606.98 -1606.98,1606.98c-887.456,-0 -1606.98,-719.527 -1606.98,-1606.98c-0,-887.457 719.527,-1606.98 1606.98,-1606.98c887.457,-0 1606.98,719.526 1606.98,1606.98Zm-1473.07,-1213.27l0,409.781l375.633,0c-91.732,-171.277 -220.023,-295.685 -375.633,-409.781Zm382.596,2448.64c220.559,-92.669 410.183,-243.324 552.133,-431.877l-267.161,0c-72.314,175.429 -169.939,314.299 -284.972,431.877Zm-650.426,-699.707l-0,-401.746l-532.581,0c6.829,154.538 25.712,286.713 55.307,401.746l477.274,-0Zm1067.84,-669.577l398.398,0c-14.061,-141.682 -50.888,-276.535 -105.793,-401.745l-342.421,-0c26.247,119.184 43.388,252.028 49.816,401.745Zm-2160.45,669.577l342.421,-0c-26.247,-119.185 -43.388,-252.029 -49.816,-401.746l-398.398,0c14.061,141.682 50.888,276.535 105.793,401.746Zm1360.44,-1071.32l0,401.745l532.581,0c-6.829,-154.538 -25.711,-286.712 -55.307,-401.745l-477.274,-0Zm-267.83,1749.07l-0,-409.915l-375.766,0c91.865,171.412 220.156,295.685 375.766,409.915Zm-1092.62,-1749.07c-54.905,125.21 -91.732,260.063 -105.793,401.745l398.398,0c6.428,-149.717 23.569,-282.561 49.816,-401.745l-342.421,-0Zm1360.44,669.576l0,401.746l477.274,-0c29.596,-115.033 48.478,-247.208 55.307,-401.746l-532.581,0Zm-267.83,-937.407l-0,-409.914c-155.61,114.229 -283.901,238.503 -375.766,409.914l375.766,0Zm-0,669.576l-0,-401.745l-477.274,-0c-29.595,115.033 -48.478,247.207 -55.307,401.745l532.581,0Zm-934.729,937.407c141.95,188.553 331.574,339.208 551.999,431.743c-115.033,-117.444 -212.524,-256.314 -284.838,-431.743l-267.161,0Zm551.999,-2038.73c-220.425,92.536 -410.049,243.19 -551.999,431.743l267.161,0c72.314,-175.429 169.805,-314.299 284.838,-431.743Zm1743.17,1770.9c54.905,-125.211 91.732,-260.064 105.793,-401.746l-398.398,0c-6.428,149.717 -23.569,282.561 -49.816,401.746l342.421,-0Zm-1092.62,677.611c155.61,-114.096 283.901,-238.503 375.633,-409.781l-375.633,0l0,409.781Zm934.729,-2016.76c-141.95,-188.553 -331.574,-339.207 -552.133,-431.877c115.033,117.578 212.658,256.448 284.972,431.877l267.161,0Z" style="fill:url(#_Linear1);"/></g><defs><linearGradient id="_Linear1" x1="0" y1="0" x2="1" y2="0" gradientUnits="userSpaceOnUse" gradientTransform="matrix(6568.85,0,0,7354.34,559.84,4296.32)"><stop offset="0" style="stop-color:#25e2f5;stop-opacity:1"/><stop offset="0.5" style="stop-color:#1c9aff;stop-opacity:1"/><stop offset="1" style="stop-color:#e062e9;stop-opacity:1"/></linearGradient></defs></svg>