<?xml version="1.0" encoding="UTF-8" standalone="no"?><!DOCTYPE svg PUBLIC "-//W3C//DTD SVG 1.1//EN" "http://www.w3.org/Graphics/SVG/1.1/DTD/svg11.dtd"><svg width="100%" height="100%" viewBox="0 0 8534 8534" version="1.1" xmlns="http://www.w3.org/2000/svg" xmlns:xlink="http://www.w3.org/1999/xlink" xml:space="preserve" xmlns:serif="http://www.serif.com/" style="fill-rule:evenodd;clip-rule:evenodd;stroke-linejoin:round;stroke-miterlimit:2;"><g id="Command_EdMode_QuickAssemblyOperation"><path id="Highlight" d="M1075.69,3532.1l1151.22,-0c79.434,-0 143.902,-64.468 143.902,-143.902l-0,-719.511l4604.86,0c158.868,0 287.804,-103.033 287.804,-230.243l-0,-690.73c-0,-127.209 -128.649,-230.243 -287.804,-230.243l-4604.86,0l-0,-1007.31c-0,-79.434 -64.468,-143.902 -143.902,-143.902l-359.755,0c-45.185,0 -88.068,21.298 -115.122,57.561l-820.241,1093.65l-0,1870.73c-0,79.434 64.468,143.902 143.902,143.902m6187.79,143.902l-0,451.564c-0,143.902 -106.775,265.643 -249.814,283.199c-994.651,122.893 -1764.82,971.339 -1764.82,1999.38l0,287.804l575.609,0c159.155,0 287.804,128.937 287.804,287.804l-0,575.609l-4029.26,-0l-0,-575.609c-0,-158.867 128.648,-287.804 287.804,-287.804l575.608,0l-0,-863.412c-0,-158.868 -128.648,-287.804 -287.804,-287.804l-287.804,0c-738.505,0 -1347.5,-556.613 -1429.52,-1273.25c-10.073,-87.493 54.971,-165.775 143.039,-165.775l2005.99,-0c79.434,-0 143.902,-64.468 143.902,-143.902l0,-287.804c0,-79.434 64.468,-143.902 143.902,-143.902l3741.45,-0c79.434,-0 143.902,64.468 143.902,143.902" style="fill:#fff;fill-rule:nonzero;"/><path id="Shadow" d="M1075.69,3865.43l1151.22,-0c79.434,-0 143.902,-64.468 143.902,-143.902l-0,-719.51l4604.86,-0c158.868,-0 287.804,-103.034 287.804,-230.243l-0,-690.73c-0,-127.21 -128.649,-230.243 -287.804,-230.243l-4604.86,-0l-0,-1007.32c-0,-79.434 -64.468,-143.902 -143.902,-143.902l-359.755,0c-45.185,0 -88.068,21.298 -115.122,57.561l-820.241,1093.66l-0,1870.73c-0,79.434 64.468,143.902 143.902,143.902m6187.79,143.902l-0,451.565c-0,143.902 -106.775,265.643 -249.814,283.199c-994.651,122.892 -1764.82,971.338 -1764.82,1999.38l0,287.804l575.609,-0c159.155,-0 287.804,128.936 287.804,287.804l-0,575.608l-4029.26,-0l-0,-575.608c-0,-158.868 128.648,-287.804 287.804,-287.804l575.608,-0l-0,-863.413c-0,-158.867 -128.648,-287.804 -287.804,-287.804l-287.804,0c-738.505,0 -1347.5,-556.613 -1429.52,-1273.25c-10.073,-87.492 54.971,-165.775 143.039,-165.775l2005.99,0c79.434,0 143.902,-64.468 143.902,-143.902l0,-287.804c0,-79.434 64.468,-143.902 143.902,-143.902l3741.45,-0c79.434,-0 143.902,64.468 143.902,143.902" style="fill:#363636;fill-rule:nonzero;"/><path id="Icon" d="M1075.69,3698.88l1151.22,0c79.434,0 143.902,-64.468 143.902,-143.902l-0,-719.51l4604.86,0c158.868,0 287.804,-103.034 287.804,-230.243l-0,-690.73c-0,-127.209 -128.649,-230.243 -287.804,-230.243l-4604.86,-0l-0,-1007.31c-0,-79.434 -64.468,-143.902 -143.902,-143.902l-359.755,-0c-45.185,-0 -88.068,21.297 -115.122,57.56l-820.241,1093.66l-0,1870.73c-0,79.434 64.468,143.902 143.902,143.902m6187.79,143.902l-0,451.565c-0,143.902 -106.775,265.643 -249.814,283.199c-994.651,122.892 -1764.82,971.339 -1764.82,1999.38l0,287.804l575.609,-0c159.155,-0 287.804,128.936 287.804,287.804l-0,575.608l-4029.26,0l-0,-575.608c-0,-158.868 128.648,-287.804 287.804,-287.804l575.608,-0l-0,-863.412c-0,-158.868 -128.648,-287.804 -287.804,-287.804l-287.804,-0c-738.505,-0 -1347.5,-556.613 -1429.52,-1273.25c-10.073,-87.493 54.971,-165.776 143.039,-165.776l2005.99,0c79.434,0 143.902,-64.468 143.902,-143.902l0,-287.804c0,-79.434 64.468,-143.902 143.902,-143.902l3741.45,0c79.434,0 143.902,64.468 143.902,143.902" style="fill:url(#_Linear1);fill-rule:nonzero;"/></g><defs><linearGradient id="_Linear1" x1="0" y1="0" x2="1" y2="0" gradientUnits="userSpaceOnUse" gradientTransform="matrix(6331.69,0,0,7195.1,931.792,4130.58)"><stop offset="0" style="stop-color:#25e2f5;stop-opacity:1"/><stop offset="0.5" style="stop-color:#1c9aff;stop-opacity:1"/><stop offset="1" style="stop-color:#e062e9;stop-opacity:1"/></linearGradient></defs></svg>