<?xml version="1.0" encoding="UTF-8" standalone="no"?><!DOCTYPE svg PUBLIC "-//W3C//DTD SVG 1.1//EN" "http://www.w3.org/Graphics/SVG/1.1/DTD/svg11.dtd"><svg width="100%" height="100%" viewBox="0 0 8534 8534" version="1.1" xmlns="http://www.w3.org/2000/svg" xmlns:xlink="http://www.w3.org/1999/xlink" xml:space="preserve" xmlns:serif="http://www.serif.com/" style="fill-rule:evenodd;clip-rule:evenodd;stroke-linejoin:round;stroke-miterlimit:2;"><g id="Command_EdMode_Junction_CollectJunctionComponents"><path id="Shadow" d="M7963.14,5083.36c18.843,47.117 28.524,97.4 28.524,148.144c0,162.855 -99.714,310.071 -250.945,370.492l-2660.74,1064.29c-47.087,18.907 -97.366,28.61 -148.107,28.582l-1463.4,-0l-1596.44,-1596.44l471.097,-471.086c40.384,-40.385 87.013,-73.999 138.092,-99.549l823.944,-412.07c105.837,-52.878 226.346,-68.975 342.352,-45.73l885.25,230.214l931.257,0l1.344,-0.002c218.208,0 397.767,179.558 397.767,397.767c-0,100.174 -37.842,196.741 -105.901,270.245l-318.934,130.211l-1171.61,-0c-145.963,-0 -266.073,120.11 -266.073,266.073c-0,145.964 120.11,266.074 266.073,266.074l1223.84,-0c34.479,-0.021 68.63,-6.727 100.557,-19.748l1028.42,-419.896l825,-329.995c47.149,-18.885 97.475,-28.589 148.265,-28.589c162.844,0 310.036,99.756 370.371,251.01Zm-6435.12,469.282l1486.24,1486.24c103.206,103.21 103.206,273.064 -0,376.275l-610.083,610.083l-1862.51,-1862.51l610.083,-610.083c103.211,-103.206 273.064,-103.206 376.275,0Zm5562.38,-3323.95c68.98,47.793 68.98,149.878 0,197.791l-691.724,480.09c-79.815,55.497 -189.003,-1.686 -189.003,-98.835l0,-239.443l-842.685,-0c-66.572,-0 -120.384,-53.812 -120.384,-120.384l0,-240.767c0,-66.452 53.812,-120.384 120.384,-120.384l842.685,0l0,-239.323c0,-97.27 109.188,-154.331 189.003,-98.955l691.724,480.21Zm-554.367,875.671l275.559,-191.169l-0,437.594c-0,232.341 -189.123,421.343 -421.343,421.343l-1444.6,0c-232.34,0 -421.343,-189.002 -421.343,-421.343l0,-2046.52c0,-232.22 189.003,-421.342 421.343,-421.342l1444.6,-0c232.22,-0 421.343,189.122 421.343,421.342l-0,437.836l-275.559,-191.29c-26.725,-18.659 -55.617,-32.624 -85.592,-43.338l-0,-203.208c-0,-32.624 -27.568,-60.191 -60.192,-60.191l-1444.6,-0c-32.744,-0 -60.192,27.567 -60.192,60.191l0,2046.52c0,32.624 27.448,60.192 60.192,60.192l1444.6,0c32.624,0 60.192,-27.568 60.192,-60.192l-0,-203.207c29.975,-10.594 58.867,-24.559 85.592,-43.218Z" style="fill:#363636;"/><path id="Icon" d="M7963.14,4916.78c18.843,47.117 28.524,97.399 28.524,148.144c0,162.855 -99.714,310.07 -250.945,370.491l-2660.74,1064.29c-47.087,18.908 -97.366,28.61 -148.107,28.582l-1463.4,-0l-1596.44,-1596.44l471.097,-471.086c40.384,-40.384 87.013,-73.999 138.092,-99.548l823.944,-412.071c105.837,-52.878 226.346,-68.975 342.352,-45.73l885.25,230.215l931.257,-0l1.344,-0.003c218.208,0 397.767,179.559 397.767,397.767c-0,100.174 -37.842,196.741 -105.901,270.245l-318.934,130.211l-1171.61,0c-145.963,0 -266.073,120.11 -266.073,266.074c-0,145.963 120.11,266.073 266.073,266.073l1223.84,0c34.479,-0.02 68.63,-6.727 100.557,-19.748l1028.42,-419.896l825,-329.995c47.149,-18.885 97.475,-28.589 148.265,-28.589c162.844,0 310.036,99.756 370.371,251.011Zm-6435.12,469.281l1486.24,1486.24c103.206,103.211 103.206,273.065 -0,376.276l-610.083,610.082l-1862.51,-1862.51l610.083,-610.083c103.211,-103.206 273.064,-103.206 376.275,0Zm5562.38,-3323.95c68.98,47.792 68.98,149.877 0,197.79l-691.724,480.09c-79.815,55.497 -189.003,-1.685 -189.003,-98.835l0,-239.443l-842.685,-0c-66.572,-0 -120.384,-53.812 -120.384,-120.384l0,-240.767c0,-66.452 53.812,-120.384 120.384,-120.384l842.685,0l0,-239.322c0,-97.27 109.188,-154.332 189.003,-98.956l691.724,480.211Zm-554.367,875.67l275.559,-191.169l-0,437.595c-0,232.34 -189.123,421.342 -421.343,421.342l-1444.6,0c-232.34,0 -421.343,-189.002 -421.343,-421.342l0,-2046.52c0,-232.22 189.003,-421.343 421.343,-421.343l1444.6,-0c232.22,-0 421.343,189.123 421.343,421.343l-0,437.835l-275.559,-191.29c-26.725,-18.659 -55.617,-32.624 -85.592,-43.338l-0,-203.207c-0,-32.624 -27.568,-60.192 -60.192,-60.192l-1444.6,-0c-32.744,-0 -60.192,27.568 -60.192,60.192l0,2046.52c0,32.624 27.448,60.191 60.192,60.191l1444.6,0c32.624,0 60.192,-27.567 60.192,-60.191l-0,-203.208c29.975,-10.594 58.867,-24.558 85.592,-43.218Z" style="fill:#ccc;"/></g></svg>