<?xml version="1.0" encoding="UTF-8" standalone="no"?><!DOCTYPE svg PUBLIC "-//W3C//DTD SVG 1.1//EN" "http://www.w3.org/Graphics/SVG/1.1/DTD/svg11.dtd"><svg width="100%" height="100%" viewBox="0 0 8534 8534" version="1.1" xmlns="http://www.w3.org/2000/svg" xmlns:xlink="http://www.w3.org/1999/xlink" xml:space="preserve" xmlns:serif="http://www.serif.com/" style="fill-rule:evenodd;clip-rule:evenodd;stroke-linejoin:round;stroke-miterlimit:2;"><g id="ClassIcon_NDebugActor"><path id="Highlight" d="M2789.73,4178.85l-1749.75,-437.437l176.804,-530.412l1757.35,439.337c51.408,-105.753 111.428,-210.99 179.81,-314.421l-1053.14,-1053.14l397.809,-397.809l1010.46,1010.46c11.385,-11.742 22.891,-23.427 34.518,-35.054c74.443,-74.443 151.288,-143.935 229.903,-208.352l-390.861,-1606.87l486.211,-221.005l387.261,1506.01c671.964,-354.414 1377.72,-361.428 1783.19,44.041c392.797,392.801 398.476,1067.42 76.215,1720.12l1377.84,354.302l-176.804,530.412l-744.672,-181.136l921.476,1804.09l0,773.861l-6242.72,0l0,-776.216l977.633,-1942.31l-588.937,1797.43l2764.2,0l-205.89,-823.561c-448.973,85.773 -864.185,0.903 -1140.22,-275.153c-283.601,-283.599 -365.407,-714.105 -267.688,-1177.2Zm107.11,-352.933c-36.045,75.05 -65.542,150.446 -79.715,239.351c21.497,-79.3 48.105,-159.269 79.715,-239.351Zm2891.09,781.299c-71.74,90.053 -150.08,177.925 -234.838,262.683c-19.04,19.041 -38.238,37.758 -57.582,56.149l937.012,937.013l-397.809,397.809l-983.881,-983.861c-106.152,68.506 -214.081,128.232 -322.403,178.91l249.711,998.846l2126.51,0l-554.009,-1662.02l-762.71,-185.525Z" style="fill:#fff;"/><path id="Shadow" d="M2789.73,4512.18l-1749.75,-437.436l176.804,-530.412l1757.35,439.336c51.408,-105.753 111.428,-210.99 179.81,-314.42l-1053.14,-1053.14l397.809,-397.809l1010.46,1010.46c11.385,-11.741 22.891,-23.427 34.518,-35.054c74.443,-74.443 151.288,-143.935 229.903,-208.352l-390.861,-1606.87l486.211,-221.005l387.261,1506.01c671.964,-354.415 1377.72,-361.429 1783.19,44.041c392.797,392.8 398.476,1067.42 76.215,1720.12l1377.84,354.302l-176.804,530.412l-744.672,-181.136l921.476,1804.1l0,773.861l-6242.72,-0l0,-776.217l977.633,-1942.31l-588.937,1797.43l2764.2,-0l-205.89,-823.562c-448.973,85.773 -864.185,0.903 -1140.22,-275.153c-283.601,-283.599 -365.407,-714.105 -267.688,-1177.2Zm107.11,-352.933c-36.045,75.05 -65.542,150.446 -79.715,239.351c21.497,-79.299 48.105,-159.269 79.715,-239.351Zm2891.09,781.3c-71.74,90.052 -150.08,177.924 -234.838,262.682c-19.04,19.041 -38.238,37.759 -57.582,56.15l937.012,937.012l-397.809,397.809l-983.881,-983.86c-106.152,68.505 -214.081,128.231 -322.403,178.909l249.711,998.847l2126.51,-0l-554.009,-1662.03l-762.71,-185.524Z" style="fill:#363636;"/><path id="Icon" d="M2789.73,4345.69l-1749.75,-437.437l176.804,-530.412l1757.35,439.337c51.408,-105.753 111.428,-210.99 179.81,-314.42l-1053.14,-1053.14l397.809,-397.808l1010.46,1010.46c11.385,-11.742 22.891,-23.427 34.518,-35.054c74.443,-74.443 151.288,-143.935 229.903,-208.352l-390.861,-1606.87l486.211,-221.005l387.261,1506.01c671.964,-354.414 1377.72,-361.428 1783.19,44.041c392.797,392.801 398.476,1067.42 76.215,1720.12l1377.84,354.302l-176.804,530.412l-744.672,-181.136l921.476,1804.09l0,773.862l-6242.72,-0l0,-776.217l977.633,-1942.31l-588.937,1797.43l2764.2,-0l-205.89,-823.562c-448.973,85.773 -864.185,0.903 -1140.22,-275.153c-283.601,-283.599 -365.407,-714.105 -267.688,-1177.2Zm107.11,-352.933c-36.045,75.05 -65.542,150.446 -79.715,239.351c21.497,-79.3 48.105,-159.269 79.715,-239.351Zm2891.09,781.3c-71.74,90.052 -150.08,177.924 -234.838,262.682c-19.04,19.041 -38.238,37.758 -57.582,56.149l937.012,937.013l-397.809,397.809l-983.881,-983.86c-106.152,68.505 -214.081,128.231 -322.403,178.909l249.711,998.847l2126.51,-0l-554.009,-1662.03l-762.71,-185.524Z" style="fill:url(#_Linear1);"/></g><defs><linearGradient id="_Linear1" x1="0" y1="0" x2="1" y2="0" gradientUnits="userSpaceOnUse" gradientTransform="matrix(6453.37,0,0,6551.71,1039.98,4266.84)"><stop offset="0" style="stop-color:#25e2f5;stop-opacity:1"/><stop offset="0.5" style="stop-color:#1c9aff;stop-opacity:1"/><stop offset="1" style="stop-color:#e062e9;stop-opacity:1"/></linearGradient></defs></svg>