<?xml version="1.0" encoding="UTF-8" standalone="no"?><!DOCTYPE svg PUBLIC "-//W3C//DTD SVG 1.1//EN" "http://www.w3.org/Graphics/SVG/1.1/DTD/svg11.dtd"><svg width="2048px" height="2048px" version="1.1" xmlns="http://www.w3.org/2000/svg" xmlns:xlink="http://www.w3.org/1999/xlink" xml:space="preserve" xmlns:serif="http://www.serif.com/" style="fill-rule:evenodd;clip-rule:evenodd;stroke-linejoin:round;stroke-miterlimit:2;"><g id="ProjectLevel"><g id="Highlight" transform="matrix(70.0539,0,0,70.0539,1960.91,354.532)"><path d="M0,17.97l-9.034,-15.056c-0.389,-0.648 -1.326,-0.648 -1.715,-0l-7.994,13.322c-0.188,0.313 -0.519,0.485 -0.859,0.485c-0.174,0 -0.352,-0.045 -0.513,-0.142c-0.474,-0.284 -0.627,-0.899 -0.343,-1.372l2.861,-4.768l-0.987,-1.588c-0.392,-0.63 -1.308,-0.63 -1.698,0l-5.66,9.106c-0.414,0.666 0.065,1.528 0.849,1.528l24.236,0c0.777,0 1.256,-0.848 0.857,-1.515m-24.779,-11.012l-0.355,0.355c-0.39,0.39 -0.39,1.023 0,1.414c0.196,0.195 0.451,0.293 0.707,0.293c0.256,0 0.512,-0.098 0.707,-0.293l0.355,-0.355c0.39,-0.39 0.39,-1.023 0,-1.414c-0.391,-0.39 -1.024,-0.39 -1.414,0m-0.613,-1.473c0.553,0 1,-0.448 1,-1c0,-0.553 -0.447,-1 -1,-1l-0.5,0c-0.552,0 -1,0.447 -1,1c0,0.552 0.448,1 1,1l0.5,0Zm0.613,-3.474c0.195,0.195 0.451,0.293 0.707,0.293c0.256,0 0.511,-0.098 0.707,-0.293c0.39,-0.391 0.39,-1.023 0,-1.414l-0.355,-0.355c-0.39,-0.39 -1.023,-0.39 -1.414,0c-0.39,0.391 -0.39,1.024 0,1.415l0.355,0.354Zm3.887,4.474c1.103,0 2,-0.898 2,-2c0,-1.103 -0.897,-2 -2,-2c-1.102,0 -2,0.897 -2,2c0,1.102 0.898,2 2,2m3.181,-4.181c0.256,0 0.512,-0.098 0.707,-0.293l0.355,-0.354c0.39,-0.391 0.39,-1.024 0,-1.415c-0.391,-0.39 -1.024,-0.39 -1.414,0l-0.355,0.355c-0.391,0.391 -0.391,1.023 0,1.414c0.195,0.195 0.451,0.293 0.707,0.293m0.319,2.181c0,0.552 0.448,1 1,1l0.5,0c0.553,0 1,-0.448 1,-1c0,-0.553 -0.447,-1 -1,-1l-0.5,0c-0.552,0 -1,0.447 -1,1m-4.5,-4.5l0,-0.5c0,-0.553 0.448,-1 1,-1c0.553,0 1,0.447 1,1l0,0.5c0,0.552 -0.447,1 -1,1c-0.552,0 -1,-0.448 -1,-1" style="fill:#fff;fill-rule:nonzero;"/></g><g id="Shadow" transform="matrix(70.0539,0,0,70.0539,1960.91,434.532)"><path d="M0,17.97l-9.034,-15.056c-0.389,-0.648 -1.326,-0.648 -1.715,-0l-7.994,13.322c-0.188,0.313 -0.519,0.485 -0.859,0.485c-0.174,0 -0.352,-0.045 -0.513,-0.142c-0.474,-0.284 -0.627,-0.899 -0.343,-1.372l2.861,-4.768l-0.987,-1.588c-0.392,-0.63 -1.308,-0.63 -1.698,0l-5.66,9.106c-0.414,0.666 0.065,1.528 0.849,1.528l24.236,0c0.777,0 1.256,-0.848 0.857,-1.515m-24.779,-11.012l-0.355,0.355c-0.39,0.39 -0.39,1.023 0,1.414c0.196,0.195 0.451,0.293 0.707,0.293c0.256,0 0.512,-0.098 0.707,-0.293l0.355,-0.355c0.39,-0.39 0.39,-1.023 0,-1.414c-0.391,-0.39 -1.024,-0.39 -1.414,0m-0.613,-1.473c0.553,0 1,-0.448 1,-1c0,-0.553 -0.447,-1 -1,-1l-0.5,0c-0.552,0 -1,0.447 -1,1c0,0.552 0.448,1 1,1l0.5,0Zm0.613,-3.474c0.195,0.195 0.451,0.293 0.707,0.293c0.256,0 0.511,-0.098 0.707,-0.293c0.39,-0.391 0.39,-1.023 0,-1.414l-0.355,-0.355c-0.39,-0.39 -1.023,-0.39 -1.414,0c-0.39,0.391 -0.39,1.024 0,1.415l0.355,0.354Zm3.887,4.474c1.103,0 2,-0.898 2,-2c0,-1.103 -0.897,-2 -2,-2c-1.102,0 -2,0.897 -2,2c0,1.102 0.898,2 2,2m3.181,-4.181c0.256,0 0.512,-0.098 0.707,-0.293l0.355,-0.354c0.39,-0.391 0.39,-1.024 0,-1.415c-0.391,-0.39 -1.024,-0.39 -1.414,0l-0.355,0.355c-0.391,0.391 -0.391,1.023 0,1.414c0.195,0.195 0.451,0.293 0.707,0.293m0.319,2.181c0,0.552 0.448,1 1,1l0.5,0c0.553,0 1,-0.448 1,-1c0,-0.553 -0.447,-1 -1,-1l-0.5,0c-0.552,0 -1,0.447 -1,1m-4.5,-4.5l0,-0.5c0,-0.553 0.448,-1 1,-1c0.553,0 1,0.447 1,1l0,0.5c0,0.552 -0.447,1 -1,1c-0.552,0 -1,-0.448 -1,-1" style="fill:#363636;fill-rule:nonzero;"/></g><g id="Icon" transform="matrix(70.0539,0,0,70.0539,1960.91,394.566)"><path d="M0,17.97l-9.034,-15.056c-0.389,-0.648 -1.326,-0.648 -1.715,-0l-7.994,13.322c-0.188,0.313 -0.519,0.485 -0.859,0.485c-0.174,0 -0.352,-0.045 -0.513,-0.142c-0.474,-0.284 -0.627,-0.899 -0.343,-1.372l2.861,-4.768l-0.987,-1.588c-0.392,-0.63 -1.308,-0.63 -1.698,0l-5.66,9.106c-0.414,0.666 0.065,1.528 0.849,1.528l24.236,0c0.777,0 1.256,-0.848 0.857,-1.515m-24.779,-11.012l-0.355,0.355c-0.39,0.39 -0.39,1.023 0,1.414c0.196,0.195 0.451,0.293 0.707,0.293c0.256,0 0.512,-0.098 0.707,-0.293l0.355,-0.355c0.39,-0.39 0.39,-1.023 0,-1.414c-0.391,-0.39 -1.024,-0.39 -1.414,0m-0.613,-1.473c0.553,0 1,-0.448 1,-1c0,-0.553 -0.447,-1 -1,-1l-0.5,0c-0.552,0 -1,0.447 -1,1c0,0.552 0.448,1 1,1l0.5,0Zm0.613,-3.474c0.195,0.195 0.451,0.293 0.707,0.293c0.256,0 0.511,-0.098 0.707,-0.293c0.39,-0.391 0.39,-1.023 0,-1.414l-0.355,-0.355c-0.39,-0.39 -1.023,-0.39 -1.414,0c-0.39,0.391 -0.39,1.024 0,1.415l0.355,0.354Zm3.887,4.474c1.103,0 2,-0.898 2,-2c0,-1.103 -0.897,-2 -2,-2c-1.102,0 -2,0.897 -2,2c0,1.102 0.898,2 2,2m3.181,-4.181c0.256,0 0.512,-0.098 0.707,-0.293l0.355,-0.354c0.39,-0.391 0.39,-1.024 0,-1.415c-0.391,-0.39 -1.024,-0.39 -1.414,0l-0.355,0.355c-0.391,0.391 -0.391,1.023 0,1.414c0.195,0.195 0.451,0.293 0.707,0.293m0.319,2.181c0,0.552 0.448,1 1,1l0.5,0c0.553,0 1,-0.448 1,-1c0,-0.553 -0.447,-1 -1,-1l-0.5,0c-0.552,0 -1,0.447 -1,1m-4.5,-4.5l0,-0.5c0,-0.553 0.448,-1 1,-1c0.553,0 1,0.447 1,1l0,0.5c0,0.552 -0.447,1 -1,1c-0.552,0 -1,-0.448 -1,-1" style="fill:url(#_Linear1);fill-rule:nonzero;"/></g></g><defs><linearGradient id="_Linear1" x1="0" y1="0" x2="1" y2="0" gradientUnits="userSpaceOnUse" gradientTransform="matrix(27.0357,0,0,21,-26.892,8.985)"><stop offset="0" style="stop-color:#25e2f5;stop-opacity:1"/><stop offset="0.5" style="stop-color:#1c9aff;stop-opacity:1"/><stop offset="1" style="stop-color:#e062e9;stop-opacity:1"/></linearGradient></defs></svg>