<?xml version="1.0" encoding="UTF-8" standalone="no"?><!DOCTYPE svg PUBLIC "-//W3C//DTD SVG 1.1//EN" "http://www.w3.org/Graphics/SVG/1.1/DTD/svg11.dtd"><svg width="2048px" height="2048px" version="1.1" xmlns="http://www.w3.org/2000/svg" xmlns:xlink="http://www.w3.org/1999/xlink" xml:space="preserve" xmlns:serif="http://www.serif.com/" style="fill-rule:evenodd;clip-rule:evenodd;stroke-linejoin:round;stroke-miterlimit:2;"><g id="Level" transform="matrix(1,0,0,1.40705,0,-757.703)"><g id="Highlight" transform="matrix(49.3342,0,0,49.3342,37.3165,-173.242)"><g transform="matrix(0.96218,0,0,0.96218,0.756402,1.1346)"><path d="M37.5,37.8l-5,-8.9l7.5,8.9l0,2.2l-40,-0l0,-2.2l7.5,-8.9l-5,8.9l35,-0Z" style="fill:#fff;"/></g><g transform="matrix(0.96218,0,0,0.96218,0.756402,1.1346)"><path d="M26.2,24.4l-3.8,8.9l-6.2,-13.3l-8.7,15.6l25,0l-6.3,-11.2Z" style="fill:#fff;fill-rule:nonzero;"/></g></g><g id="Shadow" transform="matrix(49.3342,0,0,49.3342,37.3165,-93.2418)"><g transform="matrix(0.96218,0,0,0.96218,0.756402,1.1346)"><path d="M37.5,37.8l-5,-8.9l7.5,8.9l0,2.2l-40,-0l0,-2.2l7.5,-8.9l-5,8.9l35,-0Z" style="fill:#363636;"/></g><g transform="matrix(0.96218,0,0,0.96218,0.756402,1.1346)"><path d="M26.2,24.4l-3.8,8.9l-6.2,-13.3l-8.7,15.6l25,0l-6.3,-11.2Z" style="fill:#363636;fill-rule:nonzero;"/></g></g><g id="Icon" transform="matrix(49.3342,0,0,49.3342,37.3165,-133.241)"><g transform="matrix(0.96218,0,0,0.96218,0.756402,1.1346)"><path d="M37.5,37.8l-5,-8.9l7.5,8.9l0,2.2l-40,-0l0,-2.2l7.5,-8.9l-5,8.9l35,-0Z" style="fill:url(#_Linear1);"/></g><g transform="matrix(0.96218,0,0,0.96218,0.756402,1.1346)"><path d="M26.2,24.4l-3.8,8.9l-6.2,-13.3l-8.7,15.6l25,0l-6.3,-11.2Z" style="fill:url(#_Linear2);fill-rule:nonzero;"/></g></g></g><defs><linearGradient id="_Linear1" x1="0" y1="0" x2="1" y2="0" gradientUnits="userSpaceOnUse" gradientTransform="matrix(40,0,0,20,0,30)"><stop offset="0" style="stop-color:#25e2f5;stop-opacity:1"/><stop offset="0.5" style="stop-color:#1c9aff;stop-opacity:1"/><stop offset="1" style="stop-color:#e062e9;stop-opacity:1"/></linearGradient><linearGradient id="_Linear2" x1="0" y1="0" x2="1" y2="0" gradientUnits="userSpaceOnUse" gradientTransform="matrix(40,0,0,20,0,30)"><stop offset="0" style="stop-color:#25e2f5;stop-opacity:1"/><stop offset="0.5" style="stop-color:#1c9aff;stop-opacity:1"/><stop offset="1" style="stop-color:#e062e9;stop-opacity:1"/></linearGradient></defs></svg>