<?xml version="1.0" encoding="UTF-8" standalone="no"?><!DOCTYPE svg PUBLIC "-//W3C//DTD SVG 1.1//EN" "http://www.w3.org/Graphics/SVG/1.1/DTD/svg11.dtd"><svg width="2048px" height="2048px" version="1.1" xmlns="http://www.w3.org/2000/svg" xmlns:xlink="http://www.w3.org/1999/xlink" xml:space="preserve" xmlns:serif="http://www.serif.com/" style="fill-rule:evenodd;clip-rule:evenodd;stroke-linejoin:round;stroke-miterlimit:2;"><g id="Discord" transform="matrix(5.87532,0,0,5.87532,271.958,441.847)"><g id="UI"><path id="Discord1" serif:id="Discord" d="M216.856,16.597c-16.571,-7.754 -34.29,-13.389 -52.814,-16.597c-2.275,4.113 -4.933,9.645 -6.766,14.046c-19.692,-2.961 -39.203,-2.961 -58.533,0c-1.832,-4.401 -4.55,-9.933 -6.846,-14.046c-18.544,3.208 -36.284,8.864 -52.855,16.638c-33.424,50.509 -42.485,99.763 -37.955,148.318c22.169,16.555 43.653,26.612 64.775,33.193c5.215,-7.178 9.866,-14.808 13.873,-22.849c-7.631,-2.899 -14.94,-6.478 -21.846,-10.632c1.832,-1.357 3.624,-2.777 5.356,-4.237c42.122,19.702 87.89,19.702 129.51,0c1.751,1.46 3.543,2.88 5.355,4.237c-6.926,4.175 -14.255,7.753 -21.886,10.653c4.006,8.02 8.638,15.671 13.873,22.848c21.142,-6.581 42.646,-16.637 64.815,-33.213c5.316,-56.288 -9.081,-105.09 -38.056,-148.359Zm-131.382,118.498c-12.645,-0 -23.015,-11.805 -23.015,-26.18c0,-14.375 10.149,-26.2 23.015,-26.2c12.867,-0 23.236,11.804 23.015,26.2c0.02,14.375 -10.148,26.18 -23.015,26.18Zm85.051,-0c-12.645,-0 -23.014,-11.805 -23.014,-26.18c-0,-14.375 10.148,-26.2 23.014,-26.2c12.867,-0 23.236,11.804 23.015,26.2c-0,14.375 -10.148,26.18 -23.015,26.18Z" style="fill:#bfbfbf;fill-rule:nonzero;"/></g></g></svg>