<?xml version="1.0" encoding="UTF-8" standalone="no"?><!DOCTYPE svg PUBLIC "-//W3C//DTD SVG 1.1//EN" "http://www.w3.org/Graphics/SVG/1.1/DTD/svg11.dtd"><svg width="2048px" height="2048px" version="1.1" xmlns="http://www.w3.org/2000/svg" xmlns:xlink="http://www.w3.org/1999/xlink" xml:space="preserve" xmlns:serif="http://www.serif.com/" style="fill-rule:evenodd;clip-rule:evenodd;stroke-linejoin:round;stroke-miterlimit:2;"><g id="Visualizer"><g id="Highlight" transform="matrix(114.991,0,0,114.991,104.069,64.1)"><g transform="matrix(-3.82857e-16,1,-1,-3.82857e-16,11.5,6.5)"><rect x="1.5" y="6.5" width="2" height="5" style="fill:#fff;fill-opacity:0.5;"/></g><g transform="matrix(-3.82857e-16,1,-1,-3.82857e-16,6.5,-4.5)"><rect x="4.5" y="-4.5" width="2" height="11" style="fill:#fff;"/></g><g transform="matrix(-3.82857e-16,1,-1,-3.82857e-16,8.5,1.5)"><rect x="2.5" y="1.5" width="2" height="7" style="fill:#fff;fill-opacity:0.5;"/></g><path d="M10,9.11c-3,0 -6,3.39 -6,3.39c0,0 3,3.39 6,3.39c3,0 6,-3.39 6,-3.39c0,0 -3,-3.39 -6,-3.39Zm0,6.26c-1.574,-0 -2.87,-1.296 -2.87,-2.87c0,-1.574 1.296,-2.87 2.87,-2.87c1.574,0 2.87,1.296 2.87,2.87c0,1.574 -1.296,2.87 -2.87,2.87Zm-1.57,-4.91c0.466,0 0.85,0.384 0.85,0.85c-0,0.466 -0.384,0.85 -0.85,0.85c-0.466,-0 -0.85,-0.384 -0.85,-0.85c-0,-0.003 -0,-0.007 -0,-0.01c0.005,-0.463 0.387,-0.84 0.85,-0.84Z" style="fill:#fff;fill-rule:nonzero;"/></g><g id="Shadow" transform="matrix(114.991,0,0,114.991,104.069,144.1)"><g transform="matrix(-3.82857e-16,1,-1,-3.82857e-16,11.5,6.5)"><rect x="1.5" y="6.5" width="2" height="5" style="fill-opacity:0.5;"/></g><g transform="matrix(-3.82857e-16,1,-1,-3.82857e-16,6.5,-4.5)"><rect x="4.5" y="-4.5" width="2" height="11"/></g><g transform="matrix(-3.82857e-16,1,-1,-3.82857e-16,8.5,1.5)"><rect x="2.5" y="1.5" width="2" height="7" style="fill-opacity:0.5;"/></g><path d="M10,9.11c-3,0 -6,3.39 -6,3.39c0,0 3,3.39 6,3.39c3,0 6,-3.39 6,-3.39c0,0 -3,-3.39 -6,-3.39Zm0,6.26c-1.574,-0 -2.87,-1.296 -2.87,-2.87c0,-1.574 1.296,-2.87 2.87,-2.87c1.574,0 2.87,1.296 2.87,2.87c0,1.574 -1.296,2.87 -2.87,2.87Zm-1.57,-4.91c0.466,0 0.85,0.384 0.85,0.85c-0,0.466 -0.384,0.85 -0.85,0.85c-0.466,-0 -0.85,-0.384 -0.85,-0.85c-0,-0.003 -0,-0.007 -0,-0.01c0.005,-0.463 0.387,-0.84 0.85,-0.84Z" style="fill-rule:nonzero;"/></g><g id="Icon" transform="matrix(114.991,0,0,114.991,104.069,104.069)"><g transform="matrix(-3.82857e-16,1,-1,-3.82857e-16,11.5,6.5)"><rect x="1.5" y="6.5" width="2" height="5" style="fill:url(#_Linear1);"/></g><g transform="matrix(-3.82857e-16,1,-1,-3.82857e-16,6.5,-4.5)"><rect x="4.5" y="-4.5" width="2" height="11" style="fill:url(#_Linear2);"/></g><g transform="matrix(-3.82857e-16,1,-1,-3.82857e-16,8.5,1.5)"><rect x="2.5" y="1.5" width="2" height="7" style="fill:url(#_Linear3);"/></g><path d="M10,9.11c-3,0 -6,3.39 -6,3.39c0,0 3,3.39 6,3.39c3,0 6,-3.39 6,-3.39c0,0 -3,-3.39 -6,-3.39Zm0,6.26c-1.574,-0 -2.87,-1.296 -2.87,-2.87c0,-1.574 1.296,-2.87 2.87,-2.87c1.574,0 2.87,1.296 2.87,2.87c0,1.574 -1.296,2.87 -2.87,2.87Zm-1.57,-4.91c0.466,0 0.85,0.384 0.85,0.85c-0,0.466 -0.384,0.85 -0.85,0.85c-0.466,-0 -0.85,-0.384 -0.85,-0.85c-0,-0.003 -0,-0.007 -0,-0.01c0.005,-0.463 0.387,-0.84 0.85,-0.84Z" style="fill:url(#_Linear4);fill-rule:nonzero;"/></g></g><defs><linearGradient id="_Linear1" x1="0" y1="0" x2="1" y2="0" gradientUnits="userSpaceOnUse" gradientTransform="matrix(16,0,0,15.89,-2.66454e-15,7.945)"><stop offset="0" style="stop-color:#25e2f5;stop-opacity:1"/><stop offset="0.5" style="stop-color:#1c9aff;stop-opacity:1"/><stop offset="1" style="stop-color:#e062e9;stop-opacity:1"/></linearGradient><linearGradient id="_Linear2" x1="0" y1="0" x2="1" y2="0" gradientUnits="userSpaceOnUse" gradientTransform="matrix(16,0,0,15.89,-2.66454e-15,7.945)"><stop offset="0" style="stop-color:#25e2f5;stop-opacity:1"/><stop offset="0.5" style="stop-color:#1c9aff;stop-opacity:1"/><stop offset="1" style="stop-color:#e062e9;stop-opacity:1"/></linearGradient><linearGradient id="_Linear3" x1="0" y1="0" x2="1" y2="0" gradientUnits="userSpaceOnUse" gradientTransform="matrix(16,0,0,15.89,-2.66454e-15,7.945)"><stop offset="0" style="stop-color:#25e2f5;stop-opacity:1"/><stop offset="0.5" style="stop-color:#1c9aff;stop-opacity:1"/><stop offset="1" style="stop-color:#e062e9;stop-opacity:1"/></linearGradient><linearGradient id="_Linear4" x1="0" y1="0" x2="1" y2="0" gradientUnits="userSpaceOnUse" gradientTransform="matrix(16,0,0,15.89,-2.66454e-15,7.945)"><stop offset="0" style="stop-color:#25e2f5;stop-opacity:1"/><stop offset="0.5" style="stop-color:#1c9aff;stop-opacity:1"/><stop offset="1" style="stop-color:#e062e9;stop-opacity:1"/></linearGradient></defs></svg>