<?xml version="1.0" encoding="UTF-8" standalone="no"?><!DOCTYPE svg PUBLIC "-//W3C//DTD SVG 1.1//EN" "http://www.w3.org/Graphics/SVG/1.1/DTD/svg11.dtd"><svg width="100%" height="100%" viewBox="0 0 8534 8534" version="1.1" xmlns="http://www.w3.org/2000/svg" xmlns:xlink="http://www.w3.org/1999/xlink" xml:space="preserve" xmlns:serif="http://www.serif.com/" style="fill-rule:evenodd;clip-rule:evenodd;stroke-linejoin:round;stroke-miterlimit:2;"><g id="Lock_Desaturated"><path id="Shadow" d="M5150.39,3254.92l-1767.44,0l0,-1031.01c0,-81.302 65.985,-147.287 147.287,-147.287l1472.87,0c81.303,0 147.287,65.985 147.287,147.287l0,1031.01Zm1767.44,0l-589.147,0l0,-1178.29c0,-649.829 -528.465,-1178.29 -1178.29,-1178.29l-1767.44,0c-649.829,0 -1178.29,528.465 -1178.29,1178.29l0,1178.29l-589.147,0c-324.031,0 -589.147,265.116 -589.147,589.147l0,3534.88c0,324.031 265.116,589.147 589.147,589.147l5302.32,-0c324.031,-0 589.147,-265.116 589.147,-589.147l-0,-3534.88c-0,-324.031 -265.116,-589.147 -589.147,-589.147" style="fill:#363636;fill-rule:nonzero;"/><path id="Icon" d="M5150.39,3088.37l-1767.44,-0l0,-1031.01c0,-81.303 65.985,-147.287 147.287,-147.287l1472.87,-0c81.303,-0 147.287,65.984 147.287,147.287l0,1031.01Zm1767.44,-0l-589.147,-0l0,-1178.29c0,-649.829 -528.465,-1178.29 -1178.29,-1178.29l-1767.44,-0c-649.829,-0 -1178.29,528.465 -1178.29,1178.29l0,1178.29l-589.147,-0c-324.031,-0 -589.147,265.116 -589.147,589.147l0,3534.88c0,324.031 265.116,589.147 589.147,589.147l5302.32,0c324.031,0 589.147,-265.116 589.147,-589.147l-0,-3534.88c-0,-324.031 -265.116,-589.147 -589.147,-589.147" style="fill:#ccc;fill-rule:nonzero;"/></g></svg>