<?xml version="1.0" encoding="UTF-8" standalone="no"?><!DOCTYPE svg PUBLIC "-//W3C//DTD SVG 1.1//EN" "http://www.w3.org/Graphics/SVG/1.1/DTD/svg11.dtd"><svg width="2048px" height="2048px" version="1.1" xmlns="http://www.w3.org/2000/svg" xmlns:xlink="http://www.w3.org/1999/xlink" xml:space="preserve" xmlns:serif="http://www.serif.com/" style="fill-rule:evenodd;clip-rule:evenodd;stroke-linejoin:round;stroke-miterlimit:2;"><g id="Actor"></g><g id="ActorComponent"></g><g id="FindAndFix" transform="matrix(1.26582,0,0,1.26582,-272.203,-272.203)"><g id="Highlight" transform="matrix(63.8291,0,0,63.8291,848.462,782.803)"><path d="M0,6.402c-3.309,0 -6,-2.691 -6,-6c0,-3.309 2.691,-6 6,-6c3.309,0 6,2.691 6,6c0,3.309 -2.691,6 -6,6m14.207,5.378l-6.597,-6.596c0.875,-1.387 1.39,-3.024 1.39,-4.782c0,-4.962 -4.037,-9 -9,-9c-4.963,0 -9,4.038 -9,9c0,4.962 4.037,9 9,9c1.758,0 3.395,-0.515 4.782,-1.39l6.597,6.597c0.391,0.391 1.023,0.391 1.414,-0l1.414,-1.414c0.391,-0.391 0.391,-1.024 -0,-1.415" style="fill:#fff;fill-rule:nonzero;"/></g><g id="Shadow" transform="matrix(63.8291,0,0,63.8291,848.462,862.803)"><path d="M0,6.402c-3.309,0 -6,-2.691 -6,-6c0,-3.309 2.691,-6 6,-6c3.309,0 6,2.691 6,6c0,3.309 -2.691,6 -6,6m14.207,5.378l-6.597,-6.596c0.875,-1.387 1.39,-3.024 1.39,-4.782c0,-4.962 -4.037,-9 -9,-9c-4.963,0 -9,4.038 -9,9c0,4.962 4.037,9 9,9c1.758,0 3.395,-0.515 4.782,-1.39l6.597,6.597c0.391,0.391 1.023,0.391 1.414,-0l1.414,-1.414c0.391,-0.391 0.391,-1.024 -0,-1.415" style="fill:#363636;fill-rule:nonzero;"/></g><g id="Icon" transform="matrix(63.8291,0,0,63.8291,848.462,822.803)"><path d="M0,6.402c-3.309,0 -6,-2.691 -6,-6c0,-3.309 2.691,-6 6,-6c3.309,0 6,2.691 6,6c0,3.309 -2.691,6 -6,6m14.207,5.378l-6.597,-6.596c0.875,-1.387 1.39,-3.024 1.39,-4.782c0,-4.962 -4.037,-9 -9,-9c-4.963,0 -9,4.038 -9,9c0,4.962 4.037,9 9,9c1.758,0 3.395,-0.515 4.782,-1.39l6.597,6.597c0.391,0.391 1.023,0.391 1.414,-0l1.414,-1.414c0.391,-0.391 0.391,-1.024 -0,-1.415" style="fill:url(#_Linear1);fill-rule:nonzero;"/></g></g><defs><linearGradient id="_Linear1" x1="0" y1="0" x2="1" y2="0" gradientUnits="userSpaceOnUse" gradientTransform="matrix(23.5002,0,0,23.5002,-9,3.15212)"><stop offset="0" style="stop-color:#25e2f5;stop-opacity:1"/><stop offset="0.5" style="stop-color:#1c9aff;stop-opacity:1"/><stop offset="1" style="stop-color:#e062e9;stop-opacity:1"/></linearGradient></defs></svg>