<?xml version="1.0" encoding="UTF-8" standalone="no"?><!DOCTYPE svg PUBLIC "-//W3C//DTD SVG 1.1//EN" "http://www.w3.org/Graphics/SVG/1.1/DTD/svg11.dtd"><svg width="2048px" height="2048px" version="1.1" xmlns="http://www.w3.org/2000/svg" xmlns:xlink="http://www.w3.org/1999/xlink" xml:space="preserve" xmlns:serif="http://www.serif.com/" style="fill-rule:evenodd;clip-rule:evenodd;stroke-linejoin:round;stroke-miterlimit:2;"><g id="Actor"></g><g id="NSamplesUserWidget"><g id="Highlight" transform="matrix(37.7379,0,0,37.7379,1540.37,1177.17)"><path d="M10.166,10.475c-0,1.521 -1.233,2.752 -2.752,2.752l-42.194,-0c-1.519,-0 -2.752,-1.231 -2.752,-2.752l0,-31.187c0,-1.521 1.233,-2.752 2.752,-2.752l42.194,0c1.519,0 2.752,1.231 2.752,2.752l-0,31.187Zm-42.194,-28.435l-0,25.683l36.69,-0l0,-25.683l-36.69,-0Zm32.028,7.732c0.191,0.075 0.317,0.26 0.317,0.465l0,1.319c0,0.205 -0.126,0.39 -0.317,0.465l-12.951,5.088c-0.47,0.185 -0.993,0.185 -1.463,0l-8.833,-3.47l-1.436,0.478l0,2.502c0.55,0 1,0.45 1,1l0,4.778l-2,-1.89l-2,1.89l0,-4.778c0,-0.55 0.451,-1 1,-1l0,-2.502c0,-0.612 0.287,-1.165 0.741,-1.537l-1.423,-0.559c-0.192,-0.075 -0.318,-0.26 -0.318,-0.465l0,-1.319c0,-0.205 0.126,-0.39 0.318,-0.465l12.951,-5.088c0.47,-0.185 0.993,-0.185 1.463,0l12.951,5.088Zm-12.769,9.265l7.086,-2.784l0,5.723c0,0.207 -0.127,0.392 -0.32,0.466l-6.782,2.609c-0.577,0.222 -1.218,0.222 -1.795,0l-6.782,-2.609c-0.194,-0.074 -0.321,-0.259 -0.321,-0.466l0,-5.723l7.086,2.784c0.588,0.231 1.241,0.231 1.828,0Z" style="fill:#fff;"/></g><g id="Shadow" transform="matrix(37.7379,0,0,37.7379,1540.37,1257.17)"><path d="M10.166,10.475c-0,1.521 -1.233,2.752 -2.752,2.752l-42.194,-0c-1.519,-0 -2.752,-1.231 -2.752,-2.752l0,-31.187c0,-1.521 1.233,-2.752 2.752,-2.752l42.194,0c1.519,0 2.752,1.231 2.752,2.752l-0,31.187Zm-42.194,-28.435l-0,25.683l36.69,-0l0,-25.683l-36.69,-0Zm32.028,7.732c0.191,0.075 0.317,0.26 0.317,0.465l0,1.319c0,0.205 -0.126,0.39 -0.317,0.465l-12.951,5.088c-0.47,0.185 -0.993,0.185 -1.463,0l-8.833,-3.47l-1.436,0.478l0,2.502c0.55,0 1,0.45 1,1l0,4.778l-2,-1.89l-2,1.89l0,-4.778c0,-0.55 0.451,-1 1,-1l0,-2.502c0,-0.612 0.287,-1.165 0.741,-1.537l-1.423,-0.559c-0.192,-0.075 -0.318,-0.26 -0.318,-0.465l0,-1.319c0,-0.205 0.126,-0.39 0.318,-0.465l12.951,-5.088c0.47,-0.185 0.993,-0.185 1.463,0l12.951,5.088Zm-12.769,9.265l7.086,-2.784l0,5.723c0,0.207 -0.127,0.392 -0.32,0.466l-6.782,2.609c-0.577,0.222 -1.218,0.222 -1.795,0l-6.782,-2.609c-0.194,-0.074 -0.321,-0.259 -0.321,-0.466l0,-5.723l7.086,2.784c0.588,0.231 1.241,0.231 1.828,0Z" style="fill:#363636;"/></g><g id="Icon" transform="matrix(37.7379,0,0,37.7379,1540.37,1217.17)"><path d="M10.166,10.475c-0,1.521 -1.233,2.752 -2.752,2.752l-42.194,-0c-1.519,-0 -2.752,-1.231 -2.752,-2.752l0,-31.187c0,-1.521 1.233,-2.752 2.752,-2.752l42.194,0c1.519,0 2.752,1.231 2.752,2.752l-0,31.187Zm-42.194,-28.435l-0,25.683l36.69,-0l0,-25.683l-36.69,-0Zm32.028,7.732c0.191,0.075 0.317,0.26 0.317,0.465l0,1.319c0,0.205 -0.126,0.39 -0.317,0.465l-12.951,5.088c-0.47,0.185 -0.993,0.185 -1.463,0l-8.833,-3.47l-1.436,0.478l0,2.502c0.55,0 1,0.45 1,1l0,4.778l-2,-1.89l-2,1.89l0,-4.778c0,-0.55 0.451,-1 1,-1l0,-2.502c0,-0.612 0.287,-1.165 0.741,-1.537l-1.423,-0.559c-0.192,-0.075 -0.318,-0.26 -0.318,-0.465l0,-1.319c0,-0.205 0.126,-0.39 0.318,-0.465l12.951,-5.088c0.47,-0.185 0.993,-0.185 1.463,0l12.951,5.088Zm-12.769,9.265l7.086,-2.784l0,5.723c0,0.207 -0.127,0.392 -0.32,0.466l-6.782,2.609c-0.577,0.222 -1.218,0.222 -1.795,0l-6.782,-2.609c-0.194,-0.074 -0.321,-0.259 -0.321,-0.466l0,-5.723l7.086,2.784c0.588,0.231 1.241,0.231 1.828,0Z" style="fill:url(#_Linear1);"/></g></g><defs><linearGradient id="_Linear1" x1="0" y1="0" x2="1" y2="0" gradientUnits="userSpaceOnUse" gradientTransform="matrix(47.6974,0,0,36.6903,-37.5317,-5.11863)"><stop offset="0" style="stop-color:#25e2f5;stop-opacity:1"/><stop offset="0.5" style="stop-color:#1c9aff;stop-opacity:1"/><stop offset="1" style="stop-color:#e062e9;stop-opacity:1"/></linearGradient></defs></svg>