<?xml version="1.0" encoding="UTF-8" standalone="no"?><!DOCTYPE svg PUBLIC "-//W3C//DTD SVG 1.1//EN" "http://www.w3.org/Graphics/SVG/1.1/DTD/svg11.dtd"><svg width="2048px" height="2048px" version="1.1" xmlns="http://www.w3.org/2000/svg" xmlns:xlink="http://www.w3.org/1999/xlink" xml:space="preserve" xmlns:serif="http://www.serif.com/" style="fill-rule:evenodd;clip-rule:evenodd;stroke-linejoin:round;stroke-miterlimit:2;"><g id="Actor"><g id="NSamplesLevelActor"><g id="Highlight" transform="matrix(70.0539,0,0,70.0539,1960.91,354.599)"><path d="M0,17.97c0.399,0.667 -0.08,1.515 -0.857,1.515l-24.236,-0c-0.784,-0 -1.263,-0.862 -0.849,-1.528l5.66,-9.106c0.39,-0.63 1.306,-0.63 1.698,-0l0.987,1.588l-2.861,4.768c-0.284,0.473 -0.131,1.088 0.343,1.372c0.161,0.097 0.339,0.142 0.513,0.142c0.34,-0 0.671,-0.172 0.859,-0.485l7.994,-13.322c0.389,-0.648 1.326,-0.648 1.715,-0l9.034,15.056Zm-14.094,-18.086c0.082,0.032 0.137,0.112 0.137,0.201l-0,0.571c-0,0.089 -0.055,0.169 -0.137,0.201l-5.605,2.202c-0.203,0.08 -0.43,0.08 -0.633,-0l-3.823,-1.502l-0.621,0.207l-0,1.083c0.238,-0 0.433,0.195 0.433,0.433l-0,2.067l-0.866,-0.818l-0.865,0.818l-0,-2.067c-0,-0.238 0.195,-0.433 0.432,-0.433l0,-1.083c0,-0.265 0.125,-0.504 0.321,-0.665l-0.616,-0.242c-0.083,-0.032 -0.137,-0.112 -0.137,-0.201l-0,-0.571c-0,-0.089 0.054,-0.169 0.137,-0.201l5.605,-2.202c0.203,-0.08 0.43,-0.08 0.633,-0l5.605,2.202Zm-5.526,4.009l3.066,-1.205l0,2.477c0,0.09 -0.055,0.17 -0.138,0.202l-2.935,1.129c-0.25,0.096 -0.527,0.096 -0.777,-0l-2.935,-1.129c-0.084,-0.032 -0.139,-0.112 -0.139,-0.202l0,-2.477l3.067,1.205c0.254,0.1 0.537,0.1 0.791,0Z" style="fill:#fff;"/></g><g id="Shadow" transform="matrix(70.0539,0,0,70.0539,1960.91,434.599)"><path d="M0,17.97c0.399,0.667 -0.08,1.515 -0.857,1.515l-24.236,-0c-0.784,-0 -1.263,-0.862 -0.849,-1.528l5.66,-9.106c0.39,-0.63 1.306,-0.63 1.698,-0l0.987,1.588l-2.861,4.768c-0.284,0.473 -0.131,1.088 0.343,1.372c0.161,0.097 0.339,0.142 0.513,0.142c0.34,-0 0.671,-0.172 0.859,-0.485l7.994,-13.322c0.389,-0.648 1.326,-0.648 1.715,-0l9.034,15.056Zm-14.094,-18.086c0.082,0.032 0.137,0.112 0.137,0.201l-0,0.571c-0,0.089 -0.055,0.169 -0.137,0.201l-5.605,2.202c-0.203,0.08 -0.43,0.08 -0.633,-0l-3.823,-1.502l-0.621,0.207l-0,1.083c0.238,-0 0.433,0.195 0.433,0.433l-0,2.067l-0.866,-0.818l-0.865,0.818l-0,-2.067c-0,-0.238 0.195,-0.433 0.432,-0.433l0,-1.083c0,-0.265 0.125,-0.504 0.321,-0.665l-0.616,-0.242c-0.083,-0.032 -0.137,-0.112 -0.137,-0.201l-0,-0.571c-0,-0.089 0.054,-0.169 0.137,-0.201l5.605,-2.202c0.203,-0.08 0.43,-0.08 0.633,-0l5.605,2.202Zm-5.526,4.009l3.066,-1.205l0,2.477c0,0.09 -0.055,0.17 -0.138,0.202l-2.935,1.129c-0.25,0.096 -0.527,0.096 -0.777,-0l-2.935,-1.129c-0.084,-0.032 -0.139,-0.112 -0.139,-0.202l0,-2.477l3.067,1.205c0.254,0.1 0.537,0.1 0.791,0Z" style="fill:#363636;"/></g><g id="Icon" transform="matrix(70.0539,0,0,70.0539,1960.91,394.566)"><path d="M0,17.97c0.399,0.667 -0.08,1.515 -0.857,1.515l-24.236,-0c-0.784,-0 -1.263,-0.862 -0.849,-1.528l5.66,-9.106c0.39,-0.63 1.306,-0.63 1.698,-0l0.987,1.588l-2.861,4.768c-0.284,0.473 -0.131,1.088 0.343,1.372c0.161,0.097 0.339,0.142 0.513,0.142c0.34,-0 0.671,-0.172 0.859,-0.485l7.994,-13.322c0.389,-0.648 1.326,-0.648 1.715,-0l9.034,15.056Zm-14.094,-18.086c0.082,0.032 0.137,0.112 0.137,0.201l-0,0.571c-0,0.089 -0.055,0.169 -0.137,0.201l-5.605,2.202c-0.203,0.08 -0.43,0.08 -0.633,-0l-3.823,-1.502l-0.621,0.207l-0,1.083c0.238,-0 0.433,0.195 0.433,0.433l-0,2.067l-0.866,-0.818l-0.865,0.818l-0,-2.067c-0,-0.238 0.195,-0.433 0.432,-0.433l0,-1.083c0,-0.265 0.125,-0.504 0.321,-0.665l-0.616,-0.242c-0.083,-0.032 -0.137,-0.112 -0.137,-0.201l-0,-0.571c-0,-0.089 0.054,-0.169 0.137,-0.201l5.605,-2.202c0.203,-0.08 0.43,-0.08 0.633,-0l5.605,2.202Zm-5.526,4.009l3.066,-1.205l0,2.477c0,0.09 -0.055,0.17 -0.138,0.202l-2.935,1.129c-0.25,0.096 -0.527,0.096 -0.777,-0l-2.935,-1.129c-0.084,-0.032 -0.139,-0.112 -0.139,-0.202l0,-2.477l3.067,1.205c0.254,0.1 0.537,0.1 0.791,0Z" style="fill:url(#_Linear1);"/></g></g></g><defs><linearGradient id="_Linear1" x1="0" y1="0" x2="1" y2="0" gradientUnits="userSpaceOnUse" gradientTransform="matrix(27.0357,0,0,21,-26.892,8.985)"><stop offset="0" style="stop-color:#25e2f5;stop-opacity:1"/><stop offset="0.5" style="stop-color:#1c9aff;stop-opacity:1"/><stop offset="1" style="stop-color:#e062e9;stop-opacity:1"/></linearGradient></defs></svg>