<?xml version="1.0" encoding="UTF-8" standalone="no"?><!DOCTYPE svg PUBLIC "-//W3C//DTD SVG 1.1//EN" "http://www.w3.org/Graphics/SVG/1.1/DTD/svg11.dtd"><svg width="2048px" height="2048px" version="1.1" xmlns="http://www.w3.org/2000/svg" xmlns:xlink="http://www.w3.org/1999/xlink" xml:space="preserve" xmlns:serif="http://www.serif.com/" style="fill-rule:evenodd;clip-rule:evenodd;stroke-linejoin:round;stroke-miterlimit:2;"><g id="Actor" transform="matrix(14.6545,0,0,14.6545,-26529.6,-6344)"><g id="NSamplesDisplayActor"><g id="Highlight" transform="matrix(4.61119,0,0,4.61119,1942.98,523.65)"><path d="M0,-10.228l-12.951,-5.088c-0.47,-0.185 -0.993,-0.185 -1.463,0l-12.951,5.088c-0.192,0.075 -0.318,0.26 -0.318,0.465l0,1.319c0,0.205 0.126,0.39 0.318,0.465l1.423,0.559c-0.454,0.372 -0.741,0.925 -0.741,1.537l0,2.502c-0.549,0 -1,0.45 -1,1l0,4.778l2,-1.89l2,1.89l0,-4.778c0,-0.55 -0.45,-1 -1,-1l0,-2.502l1.436,-0.478l8.833,3.47c0.47,0.185 0.993,0.185 1.463,0l12.951,-5.088c0.191,-0.075 0.317,-0.26 0.317,-0.465l0,-1.319c0,-0.205 -0.126,-0.39 -0.317,-0.465m-12.769,9.265l7.086,-2.784l0,5.723c0,0.207 -0.127,0.392 -0.32,0.466l-6.782,2.609c-0.577,0.222 -1.218,0.222 -1.795,0l-6.782,-2.609c-0.194,-0.074 -0.321,-0.259 -0.321,-0.466l0,-5.723l7.086,2.784c0.588,0.231 1.241,0.231 1.828,0" style="fill:#fff;fill-rule:nonzero;"/></g><g id="Shadow" transform="matrix(4.61119,0,0,4.61119,1942.98,529.109)"><path d="M0,-10.228l-12.951,-5.088c-0.47,-0.185 -0.993,-0.185 -1.463,0l-12.951,5.088c-0.192,0.075 -0.318,0.26 -0.318,0.465l0,1.319c0,0.205 0.126,0.39 0.318,0.465l1.423,0.559c-0.454,0.372 -0.741,0.925 -0.741,1.537l0,2.502c-0.549,0 -1,0.45 -1,1l0,4.778l2,-1.89l2,1.89l0,-4.778c0,-0.55 -0.45,-1 -1,-1l0,-2.502l1.436,-0.478l8.833,3.47c0.47,0.185 0.993,0.185 1.463,0l12.951,-5.088c0.191,-0.075 0.317,-0.26 0.317,-0.465l0,-1.319c0,-0.205 -0.126,-0.39 -0.317,-0.465m-12.769,9.265l7.086,-2.784l0,5.723c0,0.207 -0.127,0.392 -0.32,0.466l-6.782,2.609c-0.577,0.222 -1.218,0.222 -1.795,0l-6.782,-2.609c-0.194,-0.074 -0.321,-0.259 -0.321,-0.466l0,-5.723l7.086,2.784c0.588,0.231 1.241,0.231 1.828,0" style="fill:#363636;fill-rule:nonzero;"/></g><g id="Icon" transform="matrix(4.61119,0,0,4.61119,1942.98,526.382)"><path d="M0,-10.228l-12.951,-5.088c-0.47,-0.185 -0.993,-0.185 -1.463,0l-12.951,5.088c-0.192,0.075 -0.318,0.26 -0.318,0.465l0,1.319c0,0.205 0.126,0.39 0.318,0.465l1.423,0.559c-0.454,0.372 -0.741,0.925 -0.741,1.537l0,2.502c-0.549,0 -1,0.45 -1,1l0,4.778l2,-1.89l2,1.89l0,-4.778c0,-0.55 -0.45,-1 -1,-1l0,-2.502l1.436,-0.478l8.833,3.47c0.47,0.185 0.993,0.185 1.463,0l12.951,-5.088c0.191,-0.075 0.317,-0.26 0.317,-0.465l0,-1.319c0,-0.205 -0.126,-0.39 -0.317,-0.465m-12.769,9.265l7.086,-2.784l0,5.723c0,0.207 -0.127,0.392 -0.32,0.466l-6.782,2.609c-0.577,0.222 -1.218,0.222 -1.795,0l-6.782,-2.609c-0.194,-0.074 -0.321,-0.259 -0.321,-0.466l0,-5.723l7.086,2.784c0.588,0.231 1.241,0.231 1.828,0" style="fill:url(#_Linear1);fill-rule:nonzero;"/></g></g></g><defs><linearGradient id="_Linear1" x1="0" y1="0" x2="1" y2="0" gradientUnits="userSpaceOnUse" gradientTransform="matrix(28,0,0,20.6722,-27.683,-5.11862)"><stop offset="0" style="stop-color:#25e2f5;stop-opacity:1"/><stop offset="0.5" style="stop-color:#1c9aff;stop-opacity:1"/><stop offset="1" style="stop-color:#e062e9;stop-opacity:1"/></linearGradient></defs></svg>