<?xml version="1.0" encoding="UTF-8" standalone="no"?><!DOCTYPE svg PUBLIC "-//W3C//DTD SVG 1.1//EN" "http://www.w3.org/Graphics/SVG/1.1/DTD/svg11.dtd"><svg width="8534px" height="8534px" version="1.1" xmlns="http://www.w3.org/2000/svg" xmlns:xlink="http://www.w3.org/1999/xlink" xml:space="preserve" xmlns:serif="http://www.serif.com/" style="fill-rule:evenodd;clip-rule:evenodd;stroke-linejoin:round;stroke-miterlimit:2;"><g transform="matrix(4.16667,0,0,4.16667,0,0)"><g id="ProcGenEd"><g id="Hull"><g id="Hightlight" transform="matrix(-75.0406,-9.18983e-15,9.18983e-15,-75.0406,816.475,1361.46)"><path d="M0,10.06L2.682,1.559L6.257,1.559L0,10.06ZM-2.766,12.179L-6.115,1.559L0.584,1.559L-2.766,12.179ZM-11.788,1.559L-8.213,1.559L-5.531,10.06L-11.788,1.559ZM-9.152,-3.209L-9.053,-2.641L-8.669,-0.441L-11.566,-0.441L-9.152,-3.209ZM-4.822,-4.447L-6.88,-1.825L-6.971,-2.346L-7.338,-4.447L-4.822,-4.447ZM-0.108,-0.441L-5.423,-0.441L-2.766,-3.827L-0.108,-0.441ZM1.807,-4.447L1.439,-2.346L1.349,-1.825L-0.709,-4.447L1.807,-4.447ZM3.521,-2.641L3.621,-3.209L6.035,-0.441L3.138,-0.441L3.521,-2.641ZM8.988,-0.098L3.75,-6.104C3.666,-6.2 3.563,-6.269 3.455,-6.325C3.427,-6.34 3.399,-6.352 3.37,-6.364C3.253,-6.412 3.13,-6.444 3.003,-6.445L-8.534,-6.445C-8.661,-6.444 -8.784,-6.412 -8.901,-6.364C-8.931,-6.352 -8.958,-6.34 -8.986,-6.325C-9.095,-6.269 -9.197,-6.2 -9.281,-6.104L-14.52,-0.098C-14.543,-0.071 -14.759,0.23 -14.759,0.585C-14.759,0.941 -14.595,1.121 -14.571,1.152L-3.571,16.098C-3.563,16.111 -3.264,16.505 -2.765,16.505C-2.266,16.505 -1.969,16.11 -1.96,16.098L9.04,1.152C9.063,1.121 9.228,0.965 9.228,0.592C9.228,0.22 9.013,-0.071 8.988,-0.098" style="fill:#fff;fill-rule:nonzero;"/></g><g id="Shadow" transform="matrix(-75.0406,-9.18983e-15,9.18983e-15,-75.0406,816.475,1441.46)"><path d="M0,10.06L2.682,1.559L6.257,1.559L0,10.06ZM-2.766,12.179L-6.115,1.559L0.584,1.559L-2.766,12.179ZM-11.788,1.559L-8.213,1.559L-5.531,10.06L-11.788,1.559ZM-9.152,-3.209L-9.053,-2.641L-8.669,-0.441L-11.566,-0.441L-9.152,-3.209ZM-4.822,-4.447L-6.88,-1.825L-6.971,-2.346L-7.338,-4.447L-4.822,-4.447ZM-0.108,-0.441L-5.423,-0.441L-2.766,-3.827L-0.108,-0.441ZM1.807,-4.447L1.439,-2.346L1.349,-1.825L-0.709,-4.447L1.807,-4.447ZM3.521,-2.641L3.621,-3.209L6.035,-0.441L3.138,-0.441L3.521,-2.641ZM8.988,-0.098L3.75,-6.104C3.666,-6.2 3.563,-6.269 3.455,-6.325C3.427,-6.34 3.399,-6.352 3.37,-6.364C3.253,-6.412 3.13,-6.444 3.003,-6.445L-8.534,-6.445C-8.661,-6.444 -8.784,-6.412 -8.901,-6.364C-8.931,-6.352 -8.958,-6.34 -8.986,-6.325C-9.095,-6.269 -9.197,-6.2 -9.281,-6.104L-14.52,-0.098C-14.543,-0.071 -14.759,0.23 -14.759,0.585C-14.759,0.941 -14.595,1.121 -14.571,1.152L-3.571,16.098C-3.563,16.111 -3.264,16.505 -2.765,16.505C-2.266,16.505 -1.969,16.11 -1.96,16.098L9.04,1.152C9.063,1.121 9.228,0.965 9.228,0.592C9.228,0.22 9.013,-0.071 8.988,-0.098" style="fill:#363636;fill-rule:nonzero;"/></g><g id="Selected" transform="matrix(-75.0406,-9.18983e-15,9.18983e-15,-75.0406,816.475,1401.45)"><path d="M0,10.06L2.682,1.559L6.257,1.559L0,10.06ZM-2.766,12.179L-6.115,1.559L0.584,1.559L-2.766,12.179ZM-11.788,1.559L-8.213,1.559L-5.531,10.06L-11.788,1.559ZM-9.152,-3.209L-9.053,-2.641L-8.669,-0.441L-11.566,-0.441L-9.152,-3.209ZM-4.822,-4.447L-6.88,-1.825L-6.971,-2.346L-7.338,-4.447L-4.822,-4.447ZM-0.108,-0.441L-5.423,-0.441L-2.766,-3.827L-0.108,-0.441ZM1.807,-4.447L1.439,-2.346L1.349,-1.825L-0.709,-4.447L1.807,-4.447ZM3.521,-2.641L3.621,-3.209L6.035,-0.441L3.138,-0.441L3.521,-2.641ZM8.988,-0.098L3.75,-6.104C3.666,-6.2 3.563,-6.269 3.455,-6.325C3.427,-6.34 3.399,-6.352 3.37,-6.364C3.253,-6.412 3.13,-6.444 3.003,-6.445L-8.534,-6.445C-8.661,-6.444 -8.784,-6.412 -8.901,-6.364C-8.931,-6.352 -8.958,-6.34 -8.986,-6.325C-9.095,-6.269 -9.197,-6.2 -9.281,-6.104L-14.52,-0.098C-14.543,-0.071 -14.759,0.23 -14.759,0.585C-14.759,0.941 -14.595,1.121 -14.571,1.152L-3.571,16.098C-3.563,16.111 -3.264,16.505 -2.765,16.505C-2.266,16.505 -1.969,16.11 -1.96,16.098L9.04,1.152C9.063,1.121 9.228,0.965 9.228,0.592C9.228,0.22 9.013,-0.071 8.988,-0.098" style="fill:url(#_Linear1);fill-rule:nonzero;"/></g></g></g></g><defs><linearGradient id="_Linear1" x1="0" y1="0" x2="1" y2="0" gradientUnits="userSpaceOnUse" gradientTransform="matrix(23.987,0,0,22.95,-14.759,5.03)"><stop offset="0" style="stop-color:#e062e9;stop-opacity:1"/><stop offset="0.5" style="stop-color:#1c9aff;stop-opacity:1"/><stop offset="1" style="stop-color:#25e2f5;stop-opacity:1"/></linearGradient></defs></svg>