<?xml version="1.0" encoding="UTF-8" standalone="no"?><!DOCTYPE svg PUBLIC "-//W3C//DTD SVG 1.1//EN" "http://www.w3.org/Graphics/SVG/1.1/DTD/svg11.dtd"><svg width="100%" height="100%" viewBox="0 0 8534 8534" version="1.1" xmlns="http://www.w3.org/2000/svg" xmlns:xlink="http://www.w3.org/1999/xlink" xml:space="preserve" xmlns:serif="http://www.serif.com/" style="fill-rule:evenodd;clip-rule:evenodd;stroke-linejoin:round;stroke-miterlimit:2;"><g id="Command_EdMode_HasCollisionVisualizer"><path id="Highlight" d="M7813.65,3157.03l-2065.33,853.077l1795.94,1616.37l-2559.22,-448.986l-673.479,2469.42l-1077.57,-1885.74l-2514.32,987.769l1391.86,-2110.25c224.493,44.899 404.088,89.793 628.58,89.793c1257.16,-0 2244.93,-987.769 2244.93,-2244.93c-0,-89.798 -44.899,-224.489 -44.899,-314.286l2289.83,-1616.35l-1257.16,2244.93l1840.84,359.188Zm-3268.4,-673.456c-0,991.66 -804.283,1795.94 -1795.94,1795.94c-991.959,-0 -1795.94,-804.283 -1795.94,-1795.94c0,-991.959 803.984,-1795.94 1795.94,-1795.94c991.66,0 1795.94,803.984 1795.94,1795.94Zm-897.972,-149.662c0,-82.613 -67.048,-149.662 -149.662,-149.662l-1496.62,0c-82.913,0 -149.662,67.049 -149.662,149.662l-0,299.324c-0,82.613 66.749,149.662 149.662,149.662l1496.62,-0c82.614,-0 149.662,-67.049 149.662,-149.662l0,-299.324Z" style="fill:#fff;"/><path id="Shadow" d="M7813.65,3490.37l-2065.33,853.078l1795.94,1616.37l-2559.22,-448.986l-673.479,2469.42l-1077.57,-1885.74l-2514.32,987.768l1391.86,-2110.25c224.493,44.898 404.088,89.792 628.58,89.792c1257.16,0 2244.93,-987.768 2244.93,-2244.93c-0,-89.797 -44.899,-224.488 -44.899,-314.286l2289.83,-1616.35l-1257.16,2244.93l1840.84,359.188Zm-3268.4,-673.456c-0,991.66 -804.283,1795.94 -1795.94,1795.94c-991.959,0 -1795.94,-804.283 -1795.94,-1795.94c0,-991.959 803.984,-1795.94 1795.94,-1795.94c991.66,-0 1795.94,803.983 1795.94,1795.94Zm-897.972,-149.662c0,-82.613 -67.048,-149.661 -149.662,-149.661l-1496.62,-0c-82.913,-0 -149.662,67.048 -149.662,149.661l-0,299.324c-0,82.614 66.749,149.662 149.662,149.662l1496.62,0c82.614,0 149.662,-67.048 149.662,-149.662l0,-299.324Z" style="fill:#363636;"/><path id="Icon" d="M7813.65,3323.78l-2065.33,853.078l1795.94,1616.37l-2559.22,-448.986l-673.479,2469.42l-1077.57,-1885.74l-2514.32,987.768l1391.86,-2110.25c224.493,44.898 404.088,89.792 628.58,89.792c1257.16,0 2244.93,-987.768 2244.93,-2244.93c-0,-89.797 -44.899,-224.489 -44.899,-314.286l2289.83,-1616.35l-1257.16,2244.93l1840.84,359.188Zm-3268.4,-673.456c-0,991.66 -804.283,1795.94 -1795.94,1795.94c-991.959,-0 -1795.94,-804.283 -1795.94,-1795.94c0,-991.959 803.984,-1795.94 1795.94,-1795.94c991.66,-0 1795.94,803.983 1795.94,1795.94Zm-897.972,-149.662c0,-82.613 -67.048,-149.662 -149.662,-149.662l-1496.62,0c-82.913,0 -149.662,67.049 -149.662,149.662l-0,299.324c-0,82.614 66.749,149.662 149.662,149.662l1496.62,0c82.614,0 149.662,-67.048 149.662,-149.662l0,-299.324Z" style="fill:url(#_Linear1);"/></g><defs><linearGradient id="_Linear1" x1="0" y1="0" x2="1" y2="0" gradientUnits="userSpaceOnUse" gradientTransform="matrix(7093.97,0,0,7094,719.68,4266.67)"><stop offset="0" style="stop-color:#25e2f5;stop-opacity:1"/><stop offset="0.5" style="stop-color:#1c9aff;stop-opacity:1"/><stop offset="1" style="stop-color:#e062e9;stop-opacity:1"/></linearGradient></defs></svg>