<?xml version="1.0" encoding="UTF-8" standalone="no"?><!DOCTYPE svg PUBLIC "-//W3C//DTD SVG 1.1//EN" "http://www.w3.org/Graphics/SVG/1.1/DTD/svg11.dtd"><svg width="8534px" height="8534px" version="1.1" xmlns="http://www.w3.org/2000/svg" xmlns:xlink="http://www.w3.org/1999/xlink" xml:space="preserve" xmlns:serif="http://www.serif.com/" style="fill-rule:evenodd;clip-rule:evenodd;stroke-linejoin:round;stroke-miterlimit:2;"><g transform="matrix(4.16667,0,0,4.16667,0,0)"><g id="ProcGenEd"><g id="Hull"><g id="Shadow" transform="matrix(-75.0406,-9.18983e-15,9.18983e-15,-75.0406,816.475,1441.46)"><path d="M0,10.06L2.682,1.559L6.257,1.559L0,10.06ZM-2.766,12.179L-6.115,1.559L0.584,1.559L-2.766,12.179ZM-11.788,1.559L-8.213,1.559L-5.531,10.06L-11.788,1.559ZM-9.152,-3.209L-9.053,-2.641L-8.669,-0.441L-11.566,-0.441L-9.152,-3.209ZM-4.822,-4.447L-6.88,-1.825L-6.971,-2.346L-7.338,-4.447L-4.822,-4.447ZM-0.108,-0.441L-5.423,-0.441L-2.766,-3.827L-0.108,-0.441ZM1.807,-4.447L1.439,-2.346L1.349,-1.825L-0.709,-4.447L1.807,-4.447ZM3.521,-2.641L3.621,-3.209L6.035,-0.441L3.138,-0.441L3.521,-2.641ZM8.988,-0.098L3.75,-6.104C3.666,-6.2 3.563,-6.269 3.455,-6.325C3.427,-6.34 3.399,-6.352 3.37,-6.364C3.253,-6.412 3.13,-6.444 3.003,-6.445L-8.534,-6.445C-8.661,-6.444 -8.784,-6.412 -8.901,-6.364C-8.931,-6.352 -8.958,-6.34 -8.986,-6.325C-9.095,-6.269 -9.197,-6.2 -9.281,-6.104L-14.52,-0.098C-14.543,-0.071 -14.759,0.23 -14.759,0.585C-14.759,0.941 -14.595,1.121 -14.571,1.152L-3.571,16.098C-3.563,16.111 -3.264,16.505 -2.765,16.505C-2.266,16.505 -1.969,16.11 -1.96,16.098L9.04,1.152C9.063,1.121 9.228,0.965 9.228,0.592C9.228,0.22 9.013,-0.071 8.988,-0.098" style="fill:#363636;fill-rule:nonzero;"/></g><g id="Icon" transform="matrix(-75.0406,-9.18983e-15,9.18983e-15,-75.0406,816.475,1401.45)"><path d="M0,10.06L2.682,1.559L6.257,1.559L0,10.06ZM-2.766,12.179L-6.115,1.559L0.584,1.559L-2.766,12.179ZM-11.788,1.559L-8.213,1.559L-5.531,10.06L-11.788,1.559ZM-9.152,-3.209L-9.053,-2.641L-8.669,-0.441L-11.566,-0.441L-9.152,-3.209ZM-4.822,-4.447L-6.88,-1.825L-6.971,-2.346L-7.338,-4.447L-4.822,-4.447ZM-0.108,-0.441L-5.423,-0.441L-2.766,-3.827L-0.108,-0.441ZM1.807,-4.447L1.439,-2.346L1.349,-1.825L-0.709,-4.447L1.807,-4.447ZM3.521,-2.641L3.621,-3.209L6.035,-0.441L3.138,-0.441L3.521,-2.641ZM8.988,-0.098L3.75,-6.104C3.666,-6.2 3.563,-6.269 3.455,-6.325C3.427,-6.34 3.399,-6.352 3.37,-6.364C3.253,-6.412 3.13,-6.444 3.003,-6.445L-8.534,-6.445C-8.661,-6.444 -8.784,-6.412 -8.901,-6.364C-8.931,-6.352 -8.958,-6.34 -8.986,-6.325C-9.095,-6.269 -9.197,-6.2 -9.281,-6.104L-14.52,-0.098C-14.543,-0.071 -14.759,0.23 -14.759,0.585C-14.759,0.941 -14.595,1.121 -14.571,1.152L-3.571,16.098C-3.563,16.111 -3.264,16.505 -2.765,16.505C-2.266,16.505 -1.969,16.11 -1.96,16.098L9.04,1.152C9.063,1.121 9.228,0.965 9.228,0.592C9.228,0.22 9.013,-0.071 8.988,-0.098" style="fill:#ccc;fill-rule:nonzero;"/></g><g id="Calculate" transform="matrix(1,0,0,1,189.025,-1263.93)"><g id="Shadow1" serif:id="Shadow" transform="matrix(20.8333,0,0,20.8333,1753.55,1725.16)"><path d="M0,-11C0,-10.724 -0.224,-10.5 -0.5,-10.5L-12.5,-10.5C-12.776,-10.5 -13,-10.724 -13,-11L-13,-14C-13,-14.276 -12.776,-14.5 -12.5,-14.5L-0.5,-14.5C-0.224,-14.5 0,-14.276 0,-14L0,-11ZM-1.5,-5.5C-2.328,-5.5 -3,-6.171 -3,-7C-3,-7.829 -2.328,-8.5 -1.5,-8.5C-0.672,-8.5 0,-7.829 0,-7C0,-6.171 -0.672,-5.5 -1.5,-5.5M-1.5,-0.5C-2.328,-0.5 -3,-1.171 -3,-2C-3,-2.829 -2.328,-3.5 -1.5,-3.5C-0.672,-3.5 0,-2.829 0,-2C0,-1.171 -0.672,-0.5 -1.5,-0.5M-1.5,4.5C-2.328,4.5 -3,3.829 -3,3C-3,2.171 -2.328,1.5 -1.5,1.5C-0.672,1.5 0,2.171 0,3C0,3.829 -0.672,4.5 -1.5,4.5M-6.5,-5.5C-7.328,-5.5 -8,-6.171 -8,-7C-8,-7.829 -7.328,-8.5 -6.5,-8.5C-5.672,-8.5 -5,-7.829 -5,-7C-5,-6.171 -5.672,-5.5 -6.5,-5.5M-6.5,-0.5C-7.328,-0.5 -8,-1.171 -8,-2C-8,-2.829 -7.328,-3.5 -6.5,-3.5C-5.672,-3.5 -5,-2.829 -5,-2C-5,-1.171 -5.672,-0.5 -6.5,-0.5M-6.5,4.5C-7.328,4.5 -8,3.829 -8,3C-8,2.171 -7.328,1.5 -6.5,1.5C-5.672,1.5 -5,2.171 -5,3C-5,3.829 -5.672,4.5 -6.5,4.5M-11.5,-5.5C-12.328,-5.5 -13,-6.171 -13,-7C-13,-7.829 -12.328,-8.5 -11.5,-8.5C-10.672,-8.5 -10,-7.829 -10,-7C-10,-6.171 -10.672,-5.5 -11.5,-5.5M-11.5,-0.5C-12.328,-0.5 -13,-1.171 -13,-2C-13,-2.829 -12.328,-3.5 -11.5,-3.5C-10.672,-3.5 -10,-2.829 -10,-2C-10,-1.171 -10.672,-0.5 -11.5,-0.5M-11.5,4.5C-12.328,4.5 -13,3.829 -13,3C-13,2.171 -12.328,1.5 -11.5,1.5C-10.672,1.5 -10,2.171 -10,3C-10,3.829 -10.672,4.5 -11.5,4.5M1,-17.5L-14,-17.5C-15.104,-17.5 -16,-16.604 -16,-15.5L-16,4.5C-16,5.604 -15.104,6.5 -14,6.5L1,6.5C2.104,6.5 3,5.604 3,4.5L3,-15.5C3,-16.604 2.104,-17.5 1,-17.5" style="fill:#363636;fill-rule:nonzero;"/></g><g id="Icon1" serif:id="Icon" transform="matrix(20.8333,0,0,20.8333,1753.55,1685.14)"><path d="M0,-11C0,-10.724 -0.224,-10.5 -0.5,-10.5L-12.5,-10.5C-12.776,-10.5 -13,-10.724 -13,-11L-13,-14C-13,-14.276 -12.776,-14.5 -12.5,-14.5L-0.5,-14.5C-0.224,-14.5 0,-14.276 0,-14L0,-11ZM-1.5,-5.5C-2.328,-5.5 -3,-6.171 -3,-7C-3,-7.829 -2.328,-8.5 -1.5,-8.5C-0.672,-8.5 0,-7.829 0,-7C0,-6.171 -0.672,-5.5 -1.5,-5.5M-1.5,-0.5C-2.328,-0.5 -3,-1.171 -3,-2C-3,-2.829 -2.328,-3.5 -1.5,-3.5C-0.672,-3.5 0,-2.829 0,-2C0,-1.171 -0.672,-0.5 -1.5,-0.5M-1.5,4.5C-2.328,4.5 -3,3.829 -3,3C-3,2.171 -2.328,1.5 -1.5,1.5C-0.672,1.5 0,2.171 0,3C0,3.829 -0.672,4.5 -1.5,4.5M-6.5,-5.5C-7.328,-5.5 -8,-6.171 -8,-7C-8,-7.829 -7.328,-8.5 -6.5,-8.5C-5.672,-8.5 -5,-7.829 -5,-7C-5,-6.171 -5.672,-5.5 -6.5,-5.5M-6.5,-0.5C-7.328,-0.5 -8,-1.171 -8,-2C-8,-2.829 -7.328,-3.5 -6.5,-3.5C-5.672,-3.5 -5,-2.829 -5,-2C-5,-1.171 -5.672,-0.5 -6.5,-0.5M-6.5,4.5C-7.328,4.5 -8,3.829 -8,3C-8,2.171 -7.328,1.5 -6.5,1.5C-5.672,1.5 -5,2.171 -5,3C-5,3.829 -5.672,4.5 -6.5,4.5M-11.5,-5.5C-12.328,-5.5 -13,-6.171 -13,-7C-13,-7.829 -12.328,-8.5 -11.5,-8.5C-10.672,-8.5 -10,-7.829 -10,-7C-10,-6.171 -10.672,-5.5 -11.5,-5.5M-11.5,-0.5C-12.328,-0.5 -13,-1.171 -13,-2C-13,-2.829 -12.328,-3.5 -11.5,-3.5C-10.672,-3.5 -10,-2.829 -10,-2C-10,-1.171 -10.672,-0.5 -11.5,-0.5M-11.5,4.5C-12.328,4.5 -13,3.829 -13,3C-13,2.171 -12.328,1.5 -11.5,1.5C-10.672,1.5 -10,2.171 -10,3C-10,3.829 -10.672,4.5 -11.5,4.5M1,-17.5L-14,-17.5C-15.104,-17.5 -16,-16.604 -16,-15.5L-16,4.5C-16,5.604 -15.104,6.5 -14,6.5L1,6.5C2.104,6.5 3,5.604 3,4.5L3,-15.5C3,-16.604 2.104,-17.5 1,-17.5" style="fill:#1c9aff;fill-rule:nonzero;"/></g></g></g></g></g></svg>