<?xml version="1.0" encoding="UTF-8" standalone="no"?><!DOCTYPE svg PUBLIC "-//W3C//DTD SVG 1.1//EN" "http://www.w3.org/Graphics/SVG/1.1/DTD/svg11.dtd"><svg width="8534px" height="8534px" version="1.1" xmlns="http://www.w3.org/2000/svg" xmlns:xlink="http://www.w3.org/1999/xlink" xml:space="preserve" xmlns:serif="http://www.serif.com/" style="fill-rule:evenodd;clip-rule:evenodd;stroke-linejoin:round;stroke-miterlimit:2;"><g transform="matrix(4.16667,0,0,4.16667,0,0)"><g id="ProcGenEd"><g id="Pins"><g id="Shadow" transform="matrix(75,0,0,75,724,989)"><path d="M0,2L-3,2L-3,6.5C-3,7.328 -2.328,8 -1.5,8L3,8L3,5L0,5L0,2ZM8,0L11,0L11,-4.5C11,-5.328 10.328,-6 9.5,-6L5,-6L5,-3L8,-3L8,0ZM15,2L6,2C5.447,2 5,2.447 5,3L5,12C5,12.553 5.447,13 6,13L15,13C15.553,13 16,12.553 16,12L16,3C16,2.447 15.553,2 15,2M3,-10L3,-1C3,-0.447 2.553,0 2,0L-7,0C-7.553,0 -8,-0.447 -8,-1L-8,-10C-8,-10.553 -7.553,-11 -7,-11L2,-11C2.553,-11 3,-10.553 3,-10" style="fill:#363636;fill-rule:nonzero;"/></g><g id="Icon" transform="matrix(75,0,0,75,724,949)"><path d="M0,2L-3,2L-3,6.5C-3,7.328 -2.328,8 -1.5,8L3,8L3,5L0,5L0,2ZM8,0L11,0L11,-4.5C11,-5.328 10.328,-6 9.5,-6L5,-6L5,-3L8,-3L8,0ZM15,2L6,2C5.447,2 5,2.447 5,3L5,12C5,12.553 5.447,13 6,13L15,13C15.553,13 16,12.553 16,12L16,3C16,2.447 15.553,2 15,2M3,-10L3,-1C3,-0.447 2.553,0 2,0L-7,0C-7.553,0 -8,-0.447 -8,-1L-8,-10C-8,-10.553 -7.553,-11 -7,-11L2,-11C2.553,-11 3,-10.553 3,-10" style="fill:#ccc;fill-rule:nonzero;"/></g></g></g></g></svg>