<?xml version="1.0" encoding="UTF-8" standalone="no"?><!DOCTYPE svg PUBLIC "-//W3C//DTD SVG 1.1//EN" "http://www.w3.org/Graphics/SVG/1.1/DTD/svg11.dtd"><svg width="100%" height="100%" viewBox="0 0 8534 8534" version="1.1" xmlns="http://www.w3.org/2000/svg" xmlns:xlink="http://www.w3.org/1999/xlink" xml:space="preserve" xmlns:serif="http://www.serif.com/" style="fill-rule:evenodd;clip-rule:evenodd;stroke-linejoin:round;stroke-miterlimit:2;"><g transform="matrix(4.16667,0,0,4.16667,0,0)"><g id="NCellLevelInstance"><g id="Shadow" transform="matrix(62.3511,0,0,62.3511,1417.96,1044.07)"><path d="M0,0.638L-4.553,-1.553C-4.717,-1.633 -4.91,-1.616 -5.059,-1.511L-7.265,0.053C-7.698,0.361 -8.248,-0.132 -7.991,-0.597L-4.256,-7.356C-4.065,-7.701 -3.571,-7.701 -3.381,-7.356L0.654,-0.054C0.891,0.372 0.439,0.85 0,0.638M-8.337,6.813L-12.622,5.384C-12.748,5.342 -12.885,5.352 -13.004,5.411L-14.924,6.371C-15.396,6.608 -15.864,6.046 -15.548,5.624L-12.219,1.185C-12.019,0.918 -11.618,0.918 -11.418,1.185L-7.778,6.038C-7.484,6.43 -7.872,6.967 -8.337,6.813M7.994,9.093L-2.506,-9.907C-2.77,-10.384 -3.272,-10.681 -3.818,-10.681C-4.364,-10.681 -4.867,-10.384 -5.131,-9.907L-10.267,-0.613L-10.618,-1.082C-11.185,-1.836 -12.452,-1.836 -13.019,-1.082L-20.519,8.918C-20.859,9.373 -20.914,9.982 -20.66,10.49C-20.406,10.997 -19.887,11.319 -19.318,11.319L6.682,11.319C7.213,11.319 7.704,11.038 7.974,10.58C8.243,10.123 8.251,9.558 7.994,9.093" style="fill:#363636;fill-rule:nonzero;"/></g><g id="Icon" transform="matrix(62.3511,0,0,62.3511,1417.96,1004.11)"><path d="M0,0.638L-4.553,-1.553C-4.717,-1.633 -4.91,-1.616 -5.059,-1.511L-7.265,0.053C-7.698,0.361 -8.248,-0.132 -7.991,-0.597L-4.256,-7.356C-4.065,-7.701 -3.571,-7.701 -3.381,-7.356L0.654,-0.054C0.891,0.372 0.439,0.85 0,0.638M-8.337,6.813L-12.622,5.384C-12.748,5.342 -12.885,5.352 -13.004,5.411L-14.924,6.371C-15.396,6.608 -15.864,6.046 -15.548,5.624L-12.219,1.185C-12.019,0.918 -11.618,0.918 -11.418,1.185L-7.778,6.038C-7.484,6.43 -7.872,6.967 -8.337,6.813M7.994,9.093L-2.506,-9.907C-2.77,-10.384 -3.272,-10.681 -3.818,-10.681C-4.364,-10.681 -4.867,-10.384 -5.131,-9.907L-10.267,-0.613L-10.618,-1.082C-11.185,-1.836 -12.452,-1.836 -13.019,-1.082L-20.519,8.918C-20.859,9.373 -20.914,9.982 -20.66,10.49C-20.406,10.997 -19.887,11.319 -19.318,11.319L6.682,11.319C7.213,11.319 7.704,11.038 7.974,10.58C8.243,10.123 8.251,9.558 7.994,9.093" style="fill:#ccc;fill-rule:nonzero;"/></g></g></g></svg>