<?xml version="1.0" encoding="UTF-8" standalone="no"?><!DOCTYPE svg PUBLIC "-//W3C//DTD SVG 1.1//EN" "http://www.w3.org/Graphics/SVG/1.1/DTD/svg11.dtd"><svg width="2048px" height="2048px" version="1.1" xmlns="http://www.w3.org/2000/svg" xmlns:xlink="http://www.w3.org/1999/xlink" xml:space="preserve" xmlns:serif="http://www.serif.com/" style="fill-rule:evenodd;clip-rule:evenodd;stroke-linejoin:round;stroke-miterlimit:2;"><g id="ProcGenEd"><g id="VoxelPoints"><g id="Hightlight" transform="matrix(1,0,0,1,-32,-53.7425)"><path d="M1579.69,1204.49l0,307.17l-307.17,0l0,-307.17l307.17,0Zm-740,0l0,307.17l-307.17,0l0,-307.17l307.17,0Zm370.799,-637.55l-0,307.17l-307.17,0l0,-307.17l307.17,0Z" style="fill:#fff;"/></g><g id="Shadow" transform="matrix(1,0,0,1,-32,26.2575)"><path d="M1579.69,1204.49l0,307.17l-307.17,0l0,-307.17l307.17,0Zm-740,0l0,307.17l-307.17,0l0,-307.17l307.17,0Zm370.799,-637.55l-0,307.17l-307.17,0l0,-307.17l307.17,0Z" style="fill:#363636;"/></g><g id="VoxelPoints1" serif:id="VoxelPoints" transform="matrix(1,0,0,1,-32,-13.6974)"><path d="M1579.69,1204.49l0,307.17l-307.17,0l0,-307.17l307.17,0Zm-740,0l0,307.17l-307.17,0l0,-307.17l307.17,0Zm370.799,-637.55l-0,307.17l-307.17,0l0,-307.17l307.17,0Z" style="fill:#ccc;"/></g></g></g></svg>