<?xml version="1.0" encoding="UTF-8" standalone="no"?><!DOCTYPE svg PUBLIC "-//W3C//DTD SVG 1.1//EN" "http://www.w3.org/Graphics/SVG/1.1/DTD/svg11.dtd"><svg width="2048px" height="2048px" version="1.1" xmlns="http://www.w3.org/2000/svg" xmlns:xlink="http://www.w3.org/1999/xlink" xml:space="preserve" xmlns:serif="http://www.serif.com/" style="fill-rule:evenodd;clip-rule:evenodd;stroke-linejoin:round;stroke-miterlimit:2;"><g id="Voxel" transform="matrix(0.993596,0,0,0.996403,6.55772,-36.1725)"><g id="ProcGenEd"><g id="Voxel1" serif:id="Voxel"><g id="Highlight" transform="matrix(1,0,0,1,0.864797,-131.448)"><g id="Voxel2" serif:id="Voxel" transform="matrix(37.3171,0,0,37.3171,1359.85,652.564)"><path d="M0,9.914l-8,4.8l0,-8.667l8,-4.8l0,8.667Zm-9,-5.6l-8.057,-4.834l8.057,-4.834l8.057,4.834l-8.057,4.834Zm-1,10.4l-8,-4.8l0,-8.667l8,4.8l0,8.667Zm11.965,-15.493c-0.008,-0.032 -0.026,-0.06 -0.036,-0.09c-0.02,-0.051 -0.035,-0.102 -0.062,-0.148c-0.019,-0.033 -0.046,-0.06 -0.068,-0.091c-0.029,-0.039 -0.055,-0.08 -0.088,-0.114c-0.028,-0.028 -0.063,-0.049 -0.093,-0.073c-0.035,-0.027 -0.065,-0.059 -0.103,-0.082l-10,-6c-0.317,-0.189 -0.713,-0.189 -1.03,-0l-10,6c-0.038,0.023 -0.068,0.055 -0.102,0.081c-0.031,0.025 -0.066,0.046 -0.094,0.074c-0.033,0.034 -0.059,0.074 -0.086,0.113c-0.023,0.031 -0.051,0.058 -0.07,0.092c-0.026,0.045 -0.041,0.095 -0.06,0.144c-0.012,0.031 -0.029,0.06 -0.039,0.094c-0.022,0.084 -0.034,0.171 -0.034,0.259l0,11c0,0.352 0.185,0.677 0.485,0.858l10,6c0.003,0.002 0.008,0.003 0.011,0.005c0.004,0.002 0.007,0.006 0.011,0.008c0.052,0.029 0.108,0.046 0.164,0.066c0.023,0.009 0.046,0.022 0.069,0.028c0.085,0.024 0.173,0.035 0.26,0.035c0.087,0 0.175,-0.011 0.26,-0.035c0.023,-0.006 0.046,-0.019 0.069,-0.028c0.056,-0.02 0.112,-0.037 0.164,-0.066c0.004,-0.002 0.007,-0.006 0.011,-0.008c0.003,-0.002 0.008,-0.003 0.011,-0.005l10,-6c0.3,-0.181 0.485,-0.506 0.485,-0.858l0,-11c0,-0.088 -0.012,-0.175 -0.035,-0.259" style="fill:#fff;fill-rule:nonzero;"/></g><g id="Voxel3" serif:id="Voxel" transform="matrix(37.3171,0,0,37.3171,986.604,1286.37)"><path d="M0,9.914l-8,4.8l0,-8.667l8,-4.8l0,8.667Zm-9,-5.6l-8.057,-4.834l8.057,-4.834l8.057,4.834l-8.057,4.834Zm-1,10.4l-8,-4.8l0,-8.667l8,4.8l0,8.667Zm11.965,-15.493c-0.008,-0.032 -0.026,-0.06 -0.036,-0.09c-0.02,-0.051 -0.035,-0.102 -0.062,-0.148c-0.019,-0.033 -0.046,-0.06 -0.068,-0.091c-0.029,-0.039 -0.055,-0.08 -0.088,-0.114c-0.028,-0.028 -0.063,-0.049 -0.093,-0.073c-0.035,-0.027 -0.065,-0.059 -0.103,-0.082l-10,-6c-0.317,-0.189 -0.713,-0.189 -1.03,-0l-10,6c-0.038,0.023 -0.068,0.055 -0.102,0.081c-0.031,0.025 -0.066,0.046 -0.094,0.074c-0.033,0.034 -0.059,0.074 -0.086,0.113c-0.023,0.031 -0.051,0.058 -0.07,0.092c-0.026,0.045 -0.041,0.095 -0.06,0.144c-0.012,0.031 -0.029,0.06 -0.039,0.094c-0.022,0.084 -0.034,0.171 -0.034,0.259l0,11c0,0.352 0.185,0.677 0.485,0.858l10,6c0.003,0.002 0.008,0.003 0.011,0.005c0.004,0.002 0.007,0.006 0.011,0.008c0.052,0.029 0.108,0.046 0.164,0.066c0.023,0.009 0.046,0.022 0.069,0.028c0.085,0.024 0.173,0.035 0.26,0.035c0.087,0 0.175,-0.011 0.26,-0.035c0.023,-0.006 0.046,-0.019 0.069,-0.028c0.056,-0.02 0.112,-0.037 0.164,-0.066c0.004,-0.002 0.007,-0.006 0.011,-0.008c0.003,-0.002 0.008,-0.003 0.011,-0.005l10,-6c0.3,-0.181 0.485,-0.506 0.485,-0.858l0,-11c0,-0.088 -0.012,-0.175 -0.035,-0.259" style="fill:#fff;fill-rule:nonzero;"/></g><g id="Voxel4" serif:id="Voxel" transform="matrix(37.3171,0,0,37.3171,1731.37,1286.37)"><path d="M0,9.914l-8,4.8l0,-8.667l8,-4.8l0,8.667Zm-9,-5.6l-8.057,-4.834l8.057,-4.834l8.057,4.834l-8.057,4.834Zm-1,10.4l-8,-4.8l0,-8.667l8,4.8l0,8.667Zm11.965,-15.493c-0.008,-0.032 -0.026,-0.06 -0.036,-0.09c-0.02,-0.051 -0.035,-0.102 -0.062,-0.148c-0.019,-0.033 -0.046,-0.06 -0.068,-0.091c-0.029,-0.039 -0.055,-0.08 -0.088,-0.114c-0.028,-0.028 -0.063,-0.049 -0.093,-0.073c-0.035,-0.027 -0.065,-0.059 -0.103,-0.082l-10,-6c-0.317,-0.189 -0.713,-0.189 -1.03,-0l-10,6c-0.038,0.023 -0.068,0.055 -0.102,0.081c-0.031,0.025 -0.066,0.046 -0.094,0.074c-0.033,0.034 -0.059,0.074 -0.086,0.113c-0.023,0.031 -0.051,0.058 -0.07,0.092c-0.026,0.045 -0.041,0.095 -0.06,0.144c-0.012,0.031 -0.029,0.06 -0.039,0.094c-0.022,0.084 -0.034,0.171 -0.034,0.259l0,11c0,0.352 0.185,0.677 0.485,0.858l10,6c0.003,0.002 0.008,0.003 0.011,0.005c0.004,0.002 0.007,0.006 0.011,0.008c0.052,0.029 0.108,0.046 0.164,0.066c0.023,0.009 0.046,0.022 0.069,0.028c0.085,0.024 0.173,0.035 0.26,0.035c0.087,0 0.175,-0.011 0.26,-0.035c0.023,-0.006 0.046,-0.019 0.069,-0.028c0.056,-0.02 0.112,-0.037 0.164,-0.066c0.004,-0.002 0.007,-0.006 0.011,-0.008c0.003,-0.002 0.008,-0.003 0.011,-0.005l10,-6c0.3,-0.181 0.485,-0.506 0.485,-0.858l0,-11c0,-0.088 -0.012,-0.175 -0.035,-0.259" style="fill:#fff;fill-rule:nonzero;"/></g></g><g id="Shadow" transform="matrix(1,0,0,1,0.864797,-51.1592)"><g id="Voxel5" serif:id="Voxel" transform="matrix(37.3171,0,0,37.3171,1359.85,652.564)"><path d="M0,9.914l-8,4.8l0,-8.667l8,-4.8l0,8.667Zm-9,-5.6l-8.057,-4.834l8.057,-4.834l8.057,4.834l-8.057,4.834Zm-1,10.4l-8,-4.8l0,-8.667l8,4.8l0,8.667Zm11.965,-15.493c-0.008,-0.032 -0.026,-0.06 -0.036,-0.09c-0.02,-0.051 -0.035,-0.102 -0.062,-0.148c-0.019,-0.033 -0.046,-0.06 -0.068,-0.091c-0.029,-0.039 -0.055,-0.08 -0.088,-0.114c-0.028,-0.028 -0.063,-0.049 -0.093,-0.073c-0.035,-0.027 -0.065,-0.059 -0.103,-0.082l-10,-6c-0.317,-0.189 -0.713,-0.189 -1.03,-0l-10,6c-0.038,0.023 -0.068,0.055 -0.102,0.081c-0.031,0.025 -0.066,0.046 -0.094,0.074c-0.033,0.034 -0.059,0.074 -0.086,0.113c-0.023,0.031 -0.051,0.058 -0.07,0.092c-0.026,0.045 -0.041,0.095 -0.06,0.144c-0.012,0.031 -0.029,0.06 -0.039,0.094c-0.022,0.084 -0.034,0.171 -0.034,0.259l0,11c0,0.352 0.185,0.677 0.485,0.858l10,6c0.003,0.002 0.008,0.003 0.011,0.005c0.004,0.002 0.007,0.006 0.011,0.008c0.052,0.029 0.108,0.046 0.164,0.066c0.023,0.009 0.046,0.022 0.069,0.028c0.085,0.024 0.173,0.035 0.26,0.035c0.087,0 0.175,-0.011 0.26,-0.035c0.023,-0.006 0.046,-0.019 0.069,-0.028c0.056,-0.02 0.112,-0.037 0.164,-0.066c0.004,-0.002 0.007,-0.006 0.011,-0.008c0.003,-0.002 0.008,-0.003 0.011,-0.005l10,-6c0.3,-0.181 0.485,-0.506 0.485,-0.858l0,-11c0,-0.088 -0.012,-0.175 -0.035,-0.259" style="fill:#363636;fill-rule:nonzero;"/></g><g id="Voxel6" serif:id="Voxel" transform="matrix(37.3171,0,0,37.3171,986.604,1286.37)"><path d="M0,9.914l-8,4.8l0,-8.667l8,-4.8l0,8.667Zm-9,-5.6l-8.057,-4.834l8.057,-4.834l8.057,4.834l-8.057,4.834Zm-1,10.4l-8,-4.8l0,-8.667l8,4.8l0,8.667Zm11.965,-15.493c-0.008,-0.032 -0.026,-0.06 -0.036,-0.09c-0.02,-0.051 -0.035,-0.102 -0.062,-0.148c-0.019,-0.033 -0.046,-0.06 -0.068,-0.091c-0.029,-0.039 -0.055,-0.08 -0.088,-0.114c-0.028,-0.028 -0.063,-0.049 -0.093,-0.073c-0.035,-0.027 -0.065,-0.059 -0.103,-0.082l-10,-6c-0.317,-0.189 -0.713,-0.189 -1.03,-0l-10,6c-0.038,0.023 -0.068,0.055 -0.102,0.081c-0.031,0.025 -0.066,0.046 -0.094,0.074c-0.033,0.034 -0.059,0.074 -0.086,0.113c-0.023,0.031 -0.051,0.058 -0.07,0.092c-0.026,0.045 -0.041,0.095 -0.06,0.144c-0.012,0.031 -0.029,0.06 -0.039,0.094c-0.022,0.084 -0.034,0.171 -0.034,0.259l0,11c0,0.352 0.185,0.677 0.485,0.858l10,6c0.003,0.002 0.008,0.003 0.011,0.005c0.004,0.002 0.007,0.006 0.011,0.008c0.052,0.029 0.108,0.046 0.164,0.066c0.023,0.009 0.046,0.022 0.069,0.028c0.085,0.024 0.173,0.035 0.26,0.035c0.087,0 0.175,-0.011 0.26,-0.035c0.023,-0.006 0.046,-0.019 0.069,-0.028c0.056,-0.02 0.112,-0.037 0.164,-0.066c0.004,-0.002 0.007,-0.006 0.011,-0.008c0.003,-0.002 0.008,-0.003 0.011,-0.005l10,-6c0.3,-0.181 0.485,-0.506 0.485,-0.858l0,-11c0,-0.088 -0.012,-0.175 -0.035,-0.259" style="fill:#363636;fill-rule:nonzero;"/></g><g id="Voxel7" serif:id="Voxel" transform="matrix(37.3171,0,0,37.3171,1731.37,1286.37)"><path d="M0,9.914l-8,4.8l0,-8.667l8,-4.8l0,8.667Zm-9,-5.6l-8.057,-4.834l8.057,-4.834l8.057,4.834l-8.057,4.834Zm-1,10.4l-8,-4.8l0,-8.667l8,4.8l0,8.667Zm11.965,-15.493c-0.008,-0.032 -0.026,-0.06 -0.036,-0.09c-0.02,-0.051 -0.035,-0.102 -0.062,-0.148c-0.019,-0.033 -0.046,-0.06 -0.068,-0.091c-0.029,-0.039 -0.055,-0.08 -0.088,-0.114c-0.028,-0.028 -0.063,-0.049 -0.093,-0.073c-0.035,-0.027 -0.065,-0.059 -0.103,-0.082l-10,-6c-0.317,-0.189 -0.713,-0.189 -1.03,-0l-10,6c-0.038,0.023 -0.068,0.055 -0.102,0.081c-0.031,0.025 -0.066,0.046 -0.094,0.074c-0.033,0.034 -0.059,0.074 -0.086,0.113c-0.023,0.031 -0.051,0.058 -0.07,0.092c-0.026,0.045 -0.041,0.095 -0.06,0.144c-0.012,0.031 -0.029,0.06 -0.039,0.094c-0.022,0.084 -0.034,0.171 -0.034,0.259l0,11c0,0.352 0.185,0.677 0.485,0.858l10,6c0.003,0.002 0.008,0.003 0.011,0.005c0.004,0.002 0.007,0.006 0.011,0.008c0.052,0.029 0.108,0.046 0.164,0.066c0.023,0.009 0.046,0.022 0.069,0.028c0.085,0.024 0.173,0.035 0.26,0.035c0.087,0 0.175,-0.011 0.26,-0.035c0.023,-0.006 0.046,-0.019 0.069,-0.028c0.056,-0.02 0.112,-0.037 0.164,-0.066c0.004,-0.002 0.007,-0.006 0.011,-0.008c0.003,-0.002 0.008,-0.003 0.011,-0.005l10,-6c0.3,-0.181 0.485,-0.506 0.485,-0.858l0,-11c0,-0.088 -0.012,-0.175 -0.035,-0.259" style="fill:#363636;fill-rule:nonzero;"/></g></g><g id="Voxel8" serif:id="Voxel" transform="matrix(1,0,0,1,0.864797,-91.3285)"><g id="Voxel9" serif:id="Voxel" transform="matrix(37.3171,0,0,37.3171,1359.85,652.564)"><path d="M0,9.914l-8,4.8l0,-8.667l8,-4.8l0,8.667Zm-9,-5.6l-8.057,-4.834l8.057,-4.834l8.057,4.834l-8.057,4.834Zm-1,10.4l-8,-4.8l0,-8.667l8,4.8l0,8.667Zm11.965,-15.493c-0.008,-0.032 -0.026,-0.06 -0.036,-0.09c-0.02,-0.051 -0.035,-0.102 -0.062,-0.148c-0.019,-0.033 -0.046,-0.06 -0.068,-0.091c-0.029,-0.039 -0.055,-0.08 -0.088,-0.114c-0.028,-0.028 -0.063,-0.049 -0.093,-0.073c-0.035,-0.027 -0.065,-0.059 -0.103,-0.082l-10,-6c-0.317,-0.189 -0.713,-0.189 -1.03,-0l-10,6c-0.038,0.023 -0.068,0.055 -0.102,0.081c-0.031,0.025 -0.066,0.046 -0.094,0.074c-0.033,0.034 -0.059,0.074 -0.086,0.113c-0.023,0.031 -0.051,0.058 -0.07,0.092c-0.026,0.045 -0.041,0.095 -0.06,0.144c-0.012,0.031 -0.029,0.06 -0.039,0.094c-0.022,0.084 -0.034,0.171 -0.034,0.259l0,11c0,0.352 0.185,0.677 0.485,0.858l10,6c0.003,0.002 0.008,0.003 0.011,0.005c0.004,0.002 0.007,0.006 0.011,0.008c0.052,0.029 0.108,0.046 0.164,0.066c0.023,0.009 0.046,0.022 0.069,0.028c0.085,0.024 0.173,0.035 0.26,0.035c0.087,0 0.175,-0.011 0.26,-0.035c0.023,-0.006 0.046,-0.019 0.069,-0.028c0.056,-0.02 0.112,-0.037 0.164,-0.066c0.004,-0.002 0.007,-0.006 0.011,-0.008c0.003,-0.002 0.008,-0.003 0.011,-0.005l10,-6c0.3,-0.181 0.485,-0.506 0.485,-0.858l0,-11c0,-0.088 -0.012,-0.175 -0.035,-0.259" style="fill:#ccc;fill-rule:nonzero;"/></g><g id="Voxel10" serif:id="Voxel" transform="matrix(37.3171,0,0,37.3171,986.604,1286.37)"><path d="M0,9.914l-8,4.8l0,-8.667l8,-4.8l0,8.667Zm-9,-5.6l-8.057,-4.834l8.057,-4.834l8.057,4.834l-8.057,4.834Zm-1,10.4l-8,-4.8l0,-8.667l8,4.8l0,8.667Zm11.965,-15.493c-0.008,-0.032 -0.026,-0.06 -0.036,-0.09c-0.02,-0.051 -0.035,-0.102 -0.062,-0.148c-0.019,-0.033 -0.046,-0.06 -0.068,-0.091c-0.029,-0.039 -0.055,-0.08 -0.088,-0.114c-0.028,-0.028 -0.063,-0.049 -0.093,-0.073c-0.035,-0.027 -0.065,-0.059 -0.103,-0.082l-10,-6c-0.317,-0.189 -0.713,-0.189 -1.03,-0l-10,6c-0.038,0.023 -0.068,0.055 -0.102,0.081c-0.031,0.025 -0.066,0.046 -0.094,0.074c-0.033,0.034 -0.059,0.074 -0.086,0.113c-0.023,0.031 -0.051,0.058 -0.07,0.092c-0.026,0.045 -0.041,0.095 -0.06,0.144c-0.012,0.031 -0.029,0.06 -0.039,0.094c-0.022,0.084 -0.034,0.171 -0.034,0.259l0,11c0,0.352 0.185,0.677 0.485,0.858l10,6c0.003,0.002 0.008,0.003 0.011,0.005c0.004,0.002 0.007,0.006 0.011,0.008c0.052,0.029 0.108,0.046 0.164,0.066c0.023,0.009 0.046,0.022 0.069,0.028c0.085,0.024 0.173,0.035 0.26,0.035c0.087,0 0.175,-0.011 0.26,-0.035c0.023,-0.006 0.046,-0.019 0.069,-0.028c0.056,-0.02 0.112,-0.037 0.164,-0.066c0.004,-0.002 0.007,-0.006 0.011,-0.008c0.003,-0.002 0.008,-0.003 0.011,-0.005l10,-6c0.3,-0.181 0.485,-0.506 0.485,-0.858l0,-11c0,-0.088 -0.012,-0.175 -0.035,-0.259" style="fill:#ccc;fill-rule:nonzero;"/></g><g id="Voxel11" serif:id="Voxel" transform="matrix(37.3171,0,0,37.3171,1731.37,1286.37)"><path d="M0,9.914l-8,4.8l0,-8.667l8,-4.8l0,8.667Zm-9,-5.6l-8.057,-4.834l8.057,-4.834l8.057,4.834l-8.057,4.834Zm-1,10.4l-8,-4.8l0,-8.667l8,4.8l0,8.667Zm11.965,-15.493c-0.008,-0.032 -0.026,-0.06 -0.036,-0.09c-0.02,-0.051 -0.035,-0.102 -0.062,-0.148c-0.019,-0.033 -0.046,-0.06 -0.068,-0.091c-0.029,-0.039 -0.055,-0.08 -0.088,-0.114c-0.028,-0.028 -0.063,-0.049 -0.093,-0.073c-0.035,-0.027 -0.065,-0.059 -0.103,-0.082l-10,-6c-0.317,-0.189 -0.713,-0.189 -1.03,-0l-10,6c-0.038,0.023 -0.068,0.055 -0.102,0.081c-0.031,0.025 -0.066,0.046 -0.094,0.074c-0.033,0.034 -0.059,0.074 -0.086,0.113c-0.023,0.031 -0.051,0.058 -0.07,0.092c-0.026,0.045 -0.041,0.095 -0.06,0.144c-0.012,0.031 -0.029,0.06 -0.039,0.094c-0.022,0.084 -0.034,0.171 -0.034,0.259l0,11c0,0.352 0.185,0.677 0.485,0.858l10,6c0.003,0.002 0.008,0.003 0.011,0.005c0.004,0.002 0.007,0.006 0.011,0.008c0.052,0.029 0.108,0.046 0.164,0.066c0.023,0.009 0.046,0.022 0.069,0.028c0.085,0.024 0.173,0.035 0.26,0.035c0.087,0 0.175,-0.011 0.26,-0.035c0.023,-0.006 0.046,-0.019 0.069,-0.028c0.056,-0.02 0.112,-0.037 0.164,-0.066c0.004,-0.002 0.007,-0.006 0.011,-0.008c0.003,-0.002 0.008,-0.003 0.011,-0.005l10,-6c0.3,-0.181 0.485,-0.506 0.485,-0.858l0,-11c0,-0.088 -0.012,-0.175 -0.035,-0.259" style="fill:#ccc;fill-rule:nonzero;"/></g></g><g id="Calculate" transform="matrix(1.00645,0,0,1.00361,183.644,-1232.19)"><g id="Shadow1" serif:id="Shadow" transform="matrix(20.8333,0,0,20.8333,1753.55,1725.16)"><path d="M0,-11c0,0.276 -0.224,0.5 -0.5,0.5l-12,0c-0.276,0 -0.5,-0.224 -0.5,-0.5l0,-3c0,-0.276 0.224,-0.5 0.5,-0.5l12,0c0.276,0 0.5,0.224 0.5,0.5l0,3Zm-1.5,5.5c-0.828,0 -1.5,-0.671 -1.5,-1.5c0,-0.829 0.672,-1.5 1.5,-1.5c0.828,0 1.5,0.671 1.5,1.5c0,0.829 -0.672,1.5 -1.5,1.5m0,5c-0.828,0 -1.5,-0.671 -1.5,-1.5c0,-0.829 0.672,-1.5 1.5,-1.5c0.828,0 1.5,0.671 1.5,1.5c0,0.829 -0.672,1.5 -1.5,1.5m0,5c-0.828,0 -1.5,-0.671 -1.5,-1.5c0,-0.829 0.672,-1.5 1.5,-1.5c0.828,0 1.5,0.671 1.5,1.5c0,0.829 -0.672,1.5 -1.5,1.5m-5,-10c-0.828,0 -1.5,-0.671 -1.5,-1.5c0,-0.829 0.672,-1.5 1.5,-1.5c0.828,0 1.5,0.671 1.5,1.5c0,0.829 -0.672,1.5 -1.5,1.5m0,5c-0.828,0 -1.5,-0.671 -1.5,-1.5c0,-0.829 0.672,-1.5 1.5,-1.5c0.828,0 1.5,0.671 1.5,1.5c0,0.829 -0.672,1.5 -1.5,1.5m0,5c-0.828,0 -1.5,-0.671 -1.5,-1.5c0,-0.829 0.672,-1.5 1.5,-1.5c0.828,0 1.5,0.671 1.5,1.5c0,0.829 -0.672,1.5 -1.5,1.5m-5,-10c-0.828,0 -1.5,-0.671 -1.5,-1.5c0,-0.829 0.672,-1.5 1.5,-1.5c0.828,0 1.5,0.671 1.5,1.5c0,0.829 -0.672,1.5 -1.5,1.5m0,5c-0.828,0 -1.5,-0.671 -1.5,-1.5c0,-0.829 0.672,-1.5 1.5,-1.5c0.828,0 1.5,0.671 1.5,1.5c0,0.829 -0.672,1.5 -1.5,1.5m0,5c-0.828,0 -1.5,-0.671 -1.5,-1.5c0,-0.829 0.672,-1.5 1.5,-1.5c0.828,0 1.5,0.671 1.5,1.5c0,0.829 -0.672,1.5 -1.5,1.5m12.5,-22l-15,0c-1.104,0 -2,0.896 -2,2l0,20c0,1.104 0.896,2 2,2l15,0c1.104,0 2,-0.896 2,-2l0,-20c0,-1.104 -0.896,-2 -2,-2" style="fill:#363636;fill-rule:nonzero;"/></g><g id="Icon" transform="matrix(20.8333,0,0,20.8333,1753.55,1685.14)"><path d="M0,-11c0,0.276 -0.224,0.5 -0.5,0.5l-12,0c-0.276,0 -0.5,-0.224 -0.5,-0.5l0,-3c0,-0.276 0.224,-0.5 0.5,-0.5l12,0c0.276,0 0.5,0.224 0.5,0.5l0,3Zm-1.5,5.5c-0.828,0 -1.5,-0.671 -1.5,-1.5c0,-0.829 0.672,-1.5 1.5,-1.5c0.828,0 1.5,0.671 1.5,1.5c0,0.829 -0.672,1.5 -1.5,1.5m0,5c-0.828,0 -1.5,-0.671 -1.5,-1.5c0,-0.829 0.672,-1.5 1.5,-1.5c0.828,0 1.5,0.671 1.5,1.5c0,0.829 -0.672,1.5 -1.5,1.5m0,5c-0.828,0 -1.5,-0.671 -1.5,-1.5c0,-0.829 0.672,-1.5 1.5,-1.5c0.828,0 1.5,0.671 1.5,1.5c0,0.829 -0.672,1.5 -1.5,1.5m-5,-10c-0.828,0 -1.5,-0.671 -1.5,-1.5c0,-0.829 0.672,-1.5 1.5,-1.5c0.828,0 1.5,0.671 1.5,1.5c0,0.829 -0.672,1.5 -1.5,1.5m0,5c-0.828,0 -1.5,-0.671 -1.5,-1.5c0,-0.829 0.672,-1.5 1.5,-1.5c0.828,0 1.5,0.671 1.5,1.5c0,0.829 -0.672,1.5 -1.5,1.5m0,5c-0.828,0 -1.5,-0.671 -1.5,-1.5c0,-0.829 0.672,-1.5 1.5,-1.5c0.828,0 1.5,0.671 1.5,1.5c0,0.829 -0.672,1.5 -1.5,1.5m-5,-10c-0.828,0 -1.5,-0.671 -1.5,-1.5c0,-0.829 0.672,-1.5 1.5,-1.5c0.828,0 1.5,0.671 1.5,1.5c0,0.829 -0.672,1.5 -1.5,1.5m0,5c-0.828,0 -1.5,-0.671 -1.5,-1.5c0,-0.829 0.672,-1.5 1.5,-1.5c0.828,0 1.5,0.671 1.5,1.5c0,0.829 -0.672,1.5 -1.5,1.5m0,5c-0.828,0 -1.5,-0.671 -1.5,-1.5c0,-0.829 0.672,-1.5 1.5,-1.5c0.828,0 1.5,0.671 1.5,1.5c0,0.829 -0.672,1.5 -1.5,1.5m12.5,-22l-15,0c-1.104,0 -2,0.896 -2,2l0,20c0,1.104 0.896,2 2,2l15,0c1.104,0 2,-0.896 2,-2l0,-20c0,-1.104 -0.896,-2 -2,-2" style="fill:#1c9aff;fill-rule:nonzero;"/></g></g></g></g></g></svg>