<?xml version="1.0" encoding="UTF-8" standalone="no"?><!DOCTYPE svg PUBLIC "-//W3C//DTD SVG 1.1//EN" "http://www.w3.org/Graphics/SVG/1.1/DTD/svg11.dtd"><svg width="8534px" height="8534px" version="1.1" xmlns="http://www.w3.org/2000/svg" xmlns:xlink="http://www.w3.org/1999/xlink" xml:space="preserve" xmlns:serif="http://www.serif.com/" style="fill-rule:evenodd;clip-rule:evenodd;stroke-linejoin:round;stroke-miterlimit:2;"><g transform="matrix(4.16667,0,0,4.16667,0,0)"><g id="UI"><g id="NCell"><g id="RemoveNCellActor"><g id="Shadow" transform="matrix(69.2308,0,0,72,1785.54,941.024)"><path d="M1.49,-1.413C1.805,-1.236 2,-0.903 2,-0.542L2,3.958C2,4.319 1.805,4.652 1.49,4.829L-2,6.792L-2,10.958C-2,11.319 -2.195,11.652 -2.51,11.829L-6.51,14.079C-6.662,14.165 -6.831,14.208 -7,14.208C-7.169,14.208 -7.338,14.165 -7.49,14.079L-11,12.104L-14.51,14.079C-14.662,14.165 -14.831,14.208 -15,14.208C-15.169,14.208 -15.338,14.165 -15.49,14.079L-19.49,11.829C-19.805,11.652 -20,11.319 -20,10.958L-20,6.792L-23.49,4.829C-23.805,4.652 -24,4.319 -24,3.958L-24,-0.542C-24,-0.903 -23.805,-1.236 -23.49,-1.413L-20,-3.376L-20,-7.542C-20,-7.903 -19.805,-8.236 -19.49,-8.413L-15.49,-10.663C-15.186,-10.835 -14.814,-10.835 -14.51,-10.663L-11,-8.689L-7.49,-10.663C-7.186,-10.835 -6.814,-10.835 -6.51,-10.663L-2.51,-8.413C-2.195,-8.236 -2,-7.903 -2,-7.542L-2,-3.376L1.49,-1.413ZM-3.651,0.53C-3.651,-0.12 -4.199,-0.648 -4.876,-0.648L-17.124,-0.648C-17.803,-0.648 -18.349,-0.12 -18.349,0.53L-18.349,2.886C-18.349,3.536 -17.803,4.064 -17.124,4.064L-4.876,4.064C-4.199,4.064 -3.651,3.536 -3.651,2.886L-3.651,0.53Z" style="fill:#363636;"/></g><g id="Icon" transform="matrix(69.2308,0,0,72,1785.54,901.024)"><path d="M1.49,-1.413C1.805,-1.236 2,-0.903 2,-0.542L2,3.958C2,4.319 1.805,4.652 1.49,4.829L-2,6.792L-2,10.958C-2,11.319 -2.195,11.652 -2.51,11.829L-6.51,14.079C-6.662,14.165 -6.831,14.208 -7,14.208C-7.169,14.208 -7.338,14.165 -7.49,14.079L-11,12.104L-14.51,14.079C-14.662,14.165 -14.831,14.208 -15,14.208C-15.169,14.208 -15.338,14.165 -15.49,14.079L-19.49,11.829C-19.805,11.652 -20,11.319 -20,10.958L-20,6.792L-23.49,4.829C-23.805,4.652 -24,4.319 -24,3.958L-24,-0.542C-24,-0.903 -23.805,-1.236 -23.49,-1.413L-20,-3.376L-20,-7.542C-20,-7.903 -19.805,-8.236 -19.49,-8.413L-15.49,-10.663C-15.186,-10.835 -14.814,-10.835 -14.51,-10.663L-11,-8.689L-7.49,-10.663C-7.186,-10.835 -6.814,-10.835 -6.51,-10.663L-2.51,-8.413C-2.195,-8.236 -2,-7.903 -2,-7.542L-2,-3.376L1.49,-1.413ZM-3.651,0.53C-3.651,-0.12 -4.199,-0.648 -4.876,-0.648L-17.124,-0.648C-17.803,-0.648 -18.349,-0.12 -18.349,0.53L-18.349,2.886C-18.349,3.536 -17.803,4.064 -17.124,4.064L-4.876,4.064C-4.199,4.064 -3.651,3.536 -3.651,2.886L-3.651,0.53Z" style="fill:#ccc;"/></g></g></g></g><g id="ProcGenEd"></g></g></svg>