<?xml version="1.0" encoding="UTF-8" standalone="no"?>
<!DOCTYPE svg PUBLIC "-//W3C//DTD SVG 1.1//EN" "http://www.w3.org/Graphics/SVG/1.1/DTD/svg11.dtd">
<svg width="100%" height="100%" viewBox="0 0 2048 2048" version="1.1" xmlns="http://www.w3.org/2000/svg" xmlns:xlink="http://www.w3.org/1999/xlink" xml:space="preserve" xmlns:serif="http://www.serif.com/" style="fill-rule:evenodd;clip-rule:evenodd;stroke-linejoin:round;stroke-miterlimit:2;">
    <g id="Command_ToggleOn">
        <g id="Shadow" transform="matrix(75.7543,0,0,75.7543,1024,497.963)">
            <path d="M0,16C-4.411,16 -8,12.411 -8,8C-8,3.589 -4.411,0 0,0C4.411,0 8,3.589 8,8C8,12.411 4.411,16 0,16M0,-3C-6.065,-3 -11,1.935 -11,8C-11,14.065 -6.065,19 0,19C6.065,19 11,14.065 11,8C11,1.935 6.065,-3 0,-3" style="fill:rgb(54,54,54);fill-opacity:0.25;fill-rule:nonzero;"/>
        </g>
        <g id="Icon" transform="matrix(75.7543,0,0,75.7543,1024,417.965)">
            <path d="M0,16C-4.411,16 -8,12.411 -8,8C-8,3.589 -4.411,0 0,0C4.411,0 8,3.589 8,8C8,12.411 4.411,16 0,16M0,-3C-6.065,-3 -11,1.935 -11,8C-11,14.065 -6.065,19 0,19C6.065,19 11,14.065 11,8C11,1.935 6.065,-3 0,-3" style="fill:white;fill-rule:nonzero;"/>
        </g>
    </g>
</svg>
