<?xml version="1.0" encoding="UTF-8" standalone="no"?><!DOCTYPE svg PUBLIC "-//W3C//DTD SVG 1.1//EN" "http://www.w3.org/Graphics/SVG/1.1/DTD/svg11.dtd"><svg width="100%" height="100%" viewBox="0 0 8534 8534" version="1.1" xmlns="http://www.w3.org/2000/svg" xmlns:xlink="http://www.w3.org/1999/xlink" xml:space="preserve" xmlns:serif="http://www.serif.com/" style="fill-rule:evenodd;clip-rule:evenodd;stroke-linejoin:round;stroke-miterlimit:2;"><g transform="matrix(4.16667,0,0,4.16667,0,0)"><g id="NGuardian"><g id="Highlight" transform="matrix(68.1024,0,0,68.1024,1452.84,1169.49)"><path d="M3.249,-13.374C4.133,-12.968 4.703,-12.076 4.703,-11.103L4.703,-3.724C4.703,4.092 -5.178,9.382 -5.599,9.603C-5.817,9.718 -6.057,9.776 -6.297,9.776C-6.537,9.776 -6.776,9.718 -6.995,9.603C-7.416,9.382 -17.297,4.092 -17.297,-3.724L-17.297,-11.103C-17.297,-12.076 -16.727,-12.968 -15.843,-13.374C-14.898,-13.808 -11.421,-15.224 -6.297,-15.224C-1.173,-15.224 2.305,-13.808 3.249,-13.374ZM-11.942,-6.648L-11.942,2.876L-9.197,1.222L-9.197,-3.873L-11.887,-6.648L-11.942,-6.648ZM-11.913,-7.714L-3.566,1.504L-0.653,2.567L-0.655,-0.429L-8.634,-9.234L-11.886,-10.428L-11.942,-10.43L-11.913,-7.714ZM-0.653,-1.493L-0.652,-10.82L-3.343,-9.164L-3.343,-4.294L-0.709,-1.493L-0.653,-1.493Z" style="fill:#fff;"/></g><g id="Shadow" transform="matrix(68.1024,0,0,68.1024,1452.84,1249.49)"><path d="M3.249,-13.374C4.133,-12.968 4.703,-12.076 4.703,-11.103L4.703,-3.724C4.703,4.092 -5.178,9.382 -5.599,9.603C-5.817,9.718 -6.057,9.776 -6.297,9.776C-6.537,9.776 -6.776,9.718 -6.995,9.603C-7.416,9.382 -17.297,4.092 -17.297,-3.724L-17.297,-11.103C-17.297,-12.076 -16.727,-12.968 -15.843,-13.374C-14.898,-13.808 -11.421,-15.224 -6.297,-15.224C-1.173,-15.224 2.305,-13.808 3.249,-13.374ZM-11.942,-6.648L-11.942,2.876L-9.197,1.222L-9.197,-3.873L-11.887,-6.648L-11.942,-6.648ZM-11.913,-7.714L-3.566,1.504L-0.653,2.567L-0.655,-0.429L-8.634,-9.234L-11.886,-10.428L-11.942,-10.43L-11.913,-7.714ZM-0.653,-1.493L-0.652,-10.82L-3.343,-9.164L-3.343,-4.294L-0.709,-1.493L-0.653,-1.493Z" style="fill:#363636;"/></g><g id="Icon" transform="matrix(68.1024,0,0,68.1024,1452.84,1209.51)"><path d="M3.249,-13.374C4.133,-12.968 4.703,-12.076 4.703,-11.103L4.703,-3.724C4.703,4.092 -5.178,9.382 -5.599,9.603C-5.817,9.718 -6.057,9.776 -6.297,9.776C-6.537,9.776 -6.776,9.718 -6.995,9.603C-7.416,9.382 -17.297,4.092 -17.297,-3.724L-17.297,-11.103C-17.297,-12.076 -16.727,-12.968 -15.843,-13.374C-14.898,-13.808 -11.421,-15.224 -6.297,-15.224C-1.173,-15.224 2.305,-13.808 3.249,-13.374ZM-11.942,-6.648L-11.942,2.876L-9.197,1.222L-9.197,-3.873L-11.887,-6.648L-11.942,-6.648ZM-11.913,-7.714L-3.566,1.504L-0.653,2.567L-0.655,-0.429L-8.634,-9.234L-11.886,-10.428L-11.942,-10.43L-11.913,-7.714ZM-0.653,-1.493L-0.652,-10.82L-3.343,-9.164L-3.343,-4.294L-0.709,-1.493L-0.653,-1.493Z" style="fill:url(#_Linear1);"/></g></g><g id="Sprite"></g></g><defs><linearGradient id="_Linear1" x1="0" y1="0" x2="1" y2="0" gradientUnits="userSpaceOnUse" gradientTransform="matrix(22,0,0,25,-17.297,-2.724)"><stop offset="0" style="stop-color:#25e2f5;stop-opacity:1"/><stop offset="0.5" style="stop-color:#1c9aff;stop-opacity:1"/><stop offset="1" style="stop-color:#e062e9;stop-opacity:1"/></linearGradient></defs></svg>