<?xml version="1.0" encoding="UTF-8" standalone="no"?><!DOCTYPE svg PUBLIC "-//W3C//DTD SVG 1.1//EN" "http://www.w3.org/Graphics/SVG/1.1/DTD/svg11.dtd"><svg width="2048px" height="2048px" version="1.1" xmlns="http://www.w3.org/2000/svg" xmlns:xlink="http://www.w3.org/1999/xlink" xml:space="preserve" xmlns:serif="http://www.serif.com/" style="fill-rule:evenodd;clip-rule:evenodd;stroke-linejoin:round;stroke-miterlimit:2;"><g id="Actor"></g><g id="ActorComponent"></g><g id="StartMultiplayerTest_On" transform="matrix(62.5,0,0,62.5,1506.44,789.75)"><g id="NexusMultiplayer"><path id="StartMultiplayerTest_On1" serif:id="StartMultiplayerTest_On" d="M0,7.496l0.165,-1.317c0.418,-0.139 0.799,-0.479 0.933,-0.88l0.367,-1.102c0.106,-0.32 0.016,-0.591 -0.184,-0.763l-0,-2.186c-0,-2.209 -1.791,-4 -4,-4c-0.347,-0 -0.678,0.058 -1,0.142l0,1.529c0.754,0.883 0.977,2.147 0.509,3.401l-0.278,0.75c-0.273,0.733 -0.756,1.401 -1.395,1.941l-0.504,2.303c-0.012,0.059 -0.038,0.112 -0.052,0.17l0.002,0.012c0.125,1.001 0.975,1.752 1.984,1.752l1.469,-0c1.008,-0 1.859,-0.751 1.984,-1.752m-17.074,-5.122c0.22,0.593 0.72,1.118 1.31,1.462l0.666,3.052c0.301,1.378 1.521,2.36 2.932,2.36l1.895,-0c1.411,-0 2.63,-0.982 2.931,-2.36l0.666,-3.052c0.59,-0.344 1.09,-0.869 1.311,-1.462l0.279,-0.752c0.296,-0.794 0.013,-1.473 -0.635,-1.744l0,-2.63c0,-3 -2,-5 -5.5,-5c-3.5,0 -5.5,2 -5.5,5l0,2.63c-0.647,0.271 -0.93,0.95 -0.635,1.744l0.28,0.752Zm20.928,8.075l-2.212,-1.549c-0.563,1.231 -1.718,2.119 -3.084,2.307c0.546,0.708 0.691,1.406 0.716,2.041l4.507,-0c0.277,-0 0.5,-0.224 0.5,-0.5l0,-1.48c0,-0.326 -0.159,-0.631 -0.427,-0.819m-6.573,3.036l0,1.263c0,0.276 -0.223,0.5 -0.5,0.5l-16,0c-0.276,0 -0.5,-0.224 -0.5,-0.5l0,-1.263c0,-0.551 0.18,-1.035 0.829,-1.559c0.373,-0.3 1.798,-1.473 2.947,-2.42c0.929,1.071 2.295,1.742 3.777,1.742l1.895,0c1.479,0 2.841,-0.668 3.771,-1.734c1.123,0.933 2.517,2.083 2.952,2.412c0.766,0.581 0.829,1.008 0.829,1.559" style="fill:url(#_Linear1);fill-rule:nonzero;"/></g></g><defs><linearGradient id="_Linear1" x1="0" y1="0" x2="1" y2="0" gradientUnits="userSpaceOnUse" gradientTransform="matrix(24,0,0,23,-19.719,3.748)"><stop offset="0" style="stop-color:#25e2f5;stop-opacity:1"/><stop offset="0.5" style="stop-color:#1c9aff;stop-opacity:1"/><stop offset="1" style="stop-color:#e062e9;stop-opacity:1"/></linearGradient></defs></svg>