<?xml version="1.0" encoding="UTF-8" standalone="no"?><!DOCTYPE svg PUBLIC "-//W3C//DTD SVG 1.1//EN" "http://www.w3.org/Graphics/SVG/1.1/DTD/svg11.dtd"><svg width="2048px" height="2048px" version="1.1" xmlns="http://www.w3.org/2000/svg" xmlns:xlink="http://www.w3.org/1999/xlink" xml:space="preserve" xmlns:serif="http://www.serif.com/" style="fill-rule:evenodd;clip-rule:evenodd;stroke-linejoin:round;stroke-miterlimit:2;"><g id="Fixers"><g id="LeakCheck"><g id="Highlight" transform="matrix(75.9494,0,0,75.9494,1441.72,888.196)"><path d="M0,2.522l0,2.053c1.543,1.859 1,2.877 1,4.186c0,2 1.583,3 3,3c1.417,0 3,-1 3,-3c0,-1.51 -2.231,-5.232 -7,-6.239m-8,-9.761l-10,0l0,12l10,0c0.553,0 1,-0.447 1,-1l0,-10c0,-0.552 -0.447,-1 -1,-1m6,-1l0,14c0,0.553 -0.447,1 -1,1l-1,0c-0.553,0 -1,-0.447 -1,-1l0,-14c0,-0.552 0.447,-1 1,-1l1,0c0.553,0 1,0.448 1,1" style="fill:#fff;fill-rule:nonzero;"/></g><g id="Shadow" transform="matrix(75.9494,0,0,75.9494,1441.72,968.196)"><path d="M0,2.522l0,2.053c1.543,1.859 1,2.877 1,4.186c0,2 1.583,3 3,3c1.417,0 3,-1 3,-3c0,-1.51 -2.231,-5.232 -7,-6.239m-8,-9.761l-10,0l0,12l10,0c0.553,0 1,-0.447 1,-1l0,-10c0,-0.552 -0.447,-1 -1,-1m6,-1l0,14c0,0.553 -0.447,1 -1,1l-1,0c-0.553,0 -1,-0.447 -1,-1l0,-14c0,-0.552 0.447,-1 1,-1l1,0c0.553,0 1,0.448 1,1" style="fill:#363636;fill-rule:nonzero;"/></g><g id="Icon" transform="matrix(75.9494,0,0,75.9494,1441.72,928.228)"><path d="M0,2.522l0,2.053c1.543,1.859 1,2.877 1,4.186c0,2 1.583,3 3,3c1.417,0 3,-1 3,-3c0,-1.51 -2.231,-5.232 -7,-6.239m-8,-9.761l-10,0l0,12l10,0c0.553,0 1,-0.447 1,-1l0,-10c0,-0.552 -0.447,-1 -1,-1m6,-1l0,14c0,0.553 -0.447,1 -1,1l-1,0c-0.553,0 -1,-0.447 -1,-1l0,-14c0,-0.552 0.447,-1 1,-1l1,0c0.553,0 1,0.448 1,1" style="fill:url(#_Linear1);fill-rule:nonzero;"/></g></g></g><defs><linearGradient id="_Linear1" x1="0" y1="0" x2="1" y2="0" gradientUnits="userSpaceOnUse" gradientTransform="matrix(25,0,0,21,-18,1.261)"><stop offset="0" style="stop-color:#25e2f5;stop-opacity:1"/><stop offset="0.5" style="stop-color:#1c9aff;stop-opacity:1"/><stop offset="1" style="stop-color:#e062e9;stop-opacity:1"/></linearGradient></defs></svg>