<?xml version="1.0" encoding="UTF-8" standalone="no"?><!DOCTYPE svg PUBLIC "-//W3C//DTD SVG 1.1//EN" "http://www.w3.org/Graphics/SVG/1.1/DTD/svg11.dtd"><svg width="2048px" height="2048px" version="1.1" xmlns="http://www.w3.org/2000/svg" xmlns:xlink="http://www.w3.org/1999/xlink" xml:space="preserve" xmlns:serif="http://www.serif.com/" style="fill-rule:evenodd;clip-rule:evenodd;stroke-linejoin:round;stroke-miterlimit:2;"><g id="Actor"></g><g id="ActorComponent"></g><g id="FindAndFix_Item" transform="matrix(1.2987,0,0,1.2987,-305.87,-331.844)"><g id="Shadow" transform="matrix(60,0,0,60,394,1154)"><path d="M0,-3l4,0c0.276,0 0.5,-0.224 0.5,-0.5l0,-2.5l16,0c0.552,0 1,-0.358 1,-0.8l0,-2.4c0,-0.442 -0.447,-0.8 -1,-0.8l-16,0l0,-3.5c0,-0.276 -0.224,-0.5 -0.5,-0.5l-1.25,0c-0.157,0 -0.306,0.074 -0.4,0.2l-2.85,3.8l0,6.5c0,0.276 0.224,0.5 0.5,0.5m21.5,0.5l0,1.569c0,0.5 -0.371,0.923 -0.868,0.984c-3.456,0.427 -6.132,3.375 -6.132,6.947l0,1l2,0c0.553,0 1,0.448 1,1l0,2l-14,0l0,-2c0,-0.552 0.447,-1 1,-1l2,0l0,-3c0,-0.552 -0.447,-1 -1,-1l-1,0c-2.566,0 -4.682,-1.934 -4.967,-4.424c-0.035,-0.304 0.191,-0.576 0.497,-0.576l6.97,0c0.276,0 0.5,-0.224 0.5,-0.5l0,-1c0,-0.276 0.224,-0.5 0.5,-0.5l13,0c0.276,0 0.5,0.224 0.5,0.5" style="fill:#363636;fill-rule:nonzero;"/></g><g id="Icon" transform="matrix(60,0,0,60,394,1114)"><path d="M0,-3l4,0c0.276,0 0.5,-0.224 0.5,-0.5l0,-2.5l16,0c0.552,0 1,-0.358 1,-0.8l0,-2.4c0,-0.442 -0.447,-0.8 -1,-0.8l-16,0l0,-3.5c0,-0.276 -0.224,-0.5 -0.5,-0.5l-1.25,0c-0.157,0 -0.306,0.074 -0.4,0.2l-2.85,3.8l0,6.5c0,0.276 0.224,0.5 0.5,0.5m21.5,0.5l0,1.569c0,0.5 -0.371,0.923 -0.868,0.984c-3.456,0.427 -6.132,3.375 -6.132,6.947l0,1l2,0c0.553,0 1,0.448 1,1l0,2l-14,0l0,-2c0,-0.552 0.447,-1 1,-1l2,0l0,-3c0,-0.552 -0.447,-1 -1,-1l-1,0c-2.566,0 -4.682,-1.934 -4.967,-4.424c-0.035,-0.304 0.191,-0.576 0.497,-0.576l6.97,0c0.276,0 0.5,-0.224 0.5,-0.5l0,-1c0,-0.276 0.224,-0.5 0.5,-0.5l13,0c0.276,0 0.5,0.224 0.5,0.5" style="fill:#ccc;fill-rule:nonzero;"/></g></g></svg>