<?xml version="1.0" encoding="UTF-8" standalone="no"?><!DOCTYPE svg PUBLIC "-//W3C//DTD SVG 1.1//EN" "http://www.w3.org/Graphics/SVG/1.1/DTD/svg11.dtd"><svg width="2048px" height="2048px" version="1.1" xmlns="http://www.w3.org/2000/svg" xmlns:xlink="http://www.w3.org/1999/xlink" xml:space="preserve" xmlns:serif="http://www.serif.com/" style="fill-rule:evenodd;clip-rule:evenodd;stroke-linejoin:round;stroke-miterlimit:2;"><g id="Actor"></g><g id="ActorComponent"></g><g id="StopMultiplayerTest_Off" transform="matrix(62.5,0,0,62.5,1355.5,869.312)"><g id="NexusMultiplayer"><path id="StopMultiplayerTest_Off1" serif:id="StopMultiplayerTest_Off" d="M0,4.95c0.194,0.195 0.194,0.512 0,0.707l-2.122,2.121c-0.195,0.195 -0.512,0.195 -0.707,-0l-2.475,-2.474l-2.474,2.474c-0.196,0.195 -0.512,0.195 -0.707,-0l-2.122,-2.121c-0.195,-0.195 -0.195,-0.512 0,-0.707l2.475,-2.475l-2.475,-2.474c-0.195,-0.196 -0.195,-0.512 0,-0.707l2.122,-2.121c0.195,-0.196 0.511,-0.196 0.707,-0l2.474,2.474l2.475,-2.474c0.195,-0.196 0.512,-0.196 0.707,-0l2.122,2.121c0.194,0.195 0.194,0.511 0,0.707l-2.476,2.474l2.476,2.475Zm6.11,-8.031l-5.857,-5.858c-0.375,-0.375 -0.884,-0.586 -1.414,-0.586l-8.285,-0c-0.531,-0 -1.039,0.211 -1.414,0.586l-5.858,5.858c-0.375,0.375 -0.586,0.884 -0.586,1.414l0,8.284c0,0.53 0.211,1.04 0.586,1.415l5.858,5.857c0.375,0.375 0.883,0.586 1.414,0.586l8.285,0c0.53,0 1.039,-0.211 1.414,-0.586l5.857,-5.857c0.375,-0.375 0.586,-0.885 0.586,-1.415l0,-8.284c0,-0.53 -0.211,-1.039 -0.586,-1.414" style="fill:#ccc;fill-rule:nonzero;"/></g></g></svg>