<?xml version="1.0" encoding="UTF-8" standalone="no"?><!DOCTYPE svg PUBLIC "-//W3C//DTD SVG 1.1//EN" "http://www.w3.org/Graphics/SVG/1.1/DTD/svg11.dtd"><svg width="100%" height="100%" viewBox="0 0 8534 8534" version="1.1" xmlns="http://www.w3.org/2000/svg" xmlns:xlink="http://www.w3.org/1999/xlink" xml:space="preserve" xmlns:serif="http://www.serif.com/" style="fill-rule:evenodd;clip-rule:evenodd;stroke-linejoin:round;stroke-miterlimit:2;"><g transform="matrix(4.16667,0,0,4.16667,0,0)"><g id="Logs"><g id="CleanupLogsFolder"><g id="Highlight" transform="matrix(60.7982,0,0,60.7982,1717.52,679.988)"><path d="M0,10l-14,0l-2.701,6.303c-0.142,0.33 0.1,0.697 0.459,0.697l1.439,0c0.401,0 0.762,-0.238 0.92,-0.606l1.883,-4.394l0,4c0,0.552 0.447,1 1,1l11.424,0c0.304,0 0.538,-0.27 0.494,-0.571l-0.918,-6.429Zm-16.564,-3.915l-1.795,-0.726l-0.726,-1.795c-0.223,-0.549 -0.587,-0.549 -0.809,0l-0.726,1.795l-1.795,0.726c-0.55,0.223 -0.55,0.586 0,0.809l1.795,0.726l0.726,1.795c0.222,0.549 0.586,0.549 0.809,0l0.726,-1.795l1.795,-0.726c0.549,-0.223 0.549,-0.586 0,-0.809m16.564,0.915c0,-1.65 -1.35,-3 -3,-3l-2,0l0,-11l-4,0l0,11l-2,0c-1.65,0 -3,1.35 -3,3l0,1l14,0l0,-1Zm-19.448,5.721l-1.227,0.604l-0.604,1.226c-0.122,0.248 -0.32,0.248 -0.442,0l-0.604,-1.226l-1.227,-0.604c-0.247,-0.122 -0.247,-0.32 0,-0.442l1.227,-0.604l0.604,-1.226c0.122,-0.248 0.32,-0.248 0.442,-0l0.604,1.226l1.227,0.604c0.247,0.122 0.247,0.32 0,0.442" style="fill:#fff;fill-rule:nonzero;"/></g><g id="Shadow" transform="matrix(60.7982,0,0,60.7982,1717.52,759.988)"><path d="M0,10l-14,0l-2.701,6.303c-0.142,0.33 0.1,0.697 0.459,0.697l1.439,0c0.401,0 0.762,-0.238 0.92,-0.606l1.883,-4.394l0,4c0,0.552 0.447,1 1,1l11.424,0c0.304,0 0.538,-0.27 0.494,-0.571l-0.918,-6.429Zm-16.564,-3.915l-1.795,-0.726l-0.726,-1.795c-0.223,-0.549 -0.587,-0.549 -0.809,0l-0.726,1.795l-1.795,0.726c-0.55,0.223 -0.55,0.586 0,0.809l1.795,0.726l0.726,1.795c0.222,0.549 0.586,0.549 0.809,0l0.726,-1.795l1.795,-0.726c0.549,-0.223 0.549,-0.586 0,-0.809m16.564,0.915c0,-1.65 -1.35,-3 -3,-3l-2,0l0,-11l-4,0l0,11l-2,0c-1.65,0 -3,1.35 -3,3l0,1l14,0l0,-1Zm-19.448,5.721l-1.227,0.604l-0.604,1.226c-0.122,0.248 -0.32,0.248 -0.442,0l-0.604,-1.226l-1.227,-0.604c-0.247,-0.122 -0.247,-0.32 0,-0.442l1.227,-0.604l0.604,-1.226c0.122,-0.248 0.32,-0.248 0.442,-0l0.604,1.226l1.227,0.604c0.247,0.122 0.247,0.32 0,0.442" style="fill:#363636;fill-rule:nonzero;"/></g><g id="Icon" transform="matrix(60.7982,0,0,60.7982,1717.52,720.009)"><path d="M0,10l-14,0l-2.701,6.303c-0.142,0.33 0.1,0.697 0.459,0.697l1.439,0c0.401,0 0.762,-0.238 0.92,-0.606l1.883,-4.394l0,4c0,0.552 0.447,1 1,1l11.424,0c0.304,0 0.538,-0.27 0.494,-0.571l-0.918,-6.429Zm-16.564,-3.915l-1.795,-0.726l-0.726,-1.795c-0.223,-0.549 -0.587,-0.549 -0.809,0l-0.726,1.795l-1.795,0.726c-0.55,0.223 -0.55,0.586 0,0.809l1.795,0.726l0.726,1.795c0.222,0.549 0.586,0.549 0.809,0l0.726,-1.795l1.795,-0.726c0.549,-0.223 0.549,-0.586 0,-0.809m16.564,0.915c0,-1.65 -1.35,-3 -3,-3l-2,0l0,-11l-4,0l0,11l-2,0c-1.65,0 -3,1.35 -3,3l0,1l14,0l0,-1Zm-19.448,5.721l-1.227,0.604l-0.604,1.226c-0.122,0.248 -0.32,0.248 -0.442,0l-0.604,-1.226l-1.227,-0.604c-0.247,-0.122 -0.247,-0.32 0,-0.442l1.227,-0.604l0.604,-1.226c0.122,-0.248 0.32,-0.248 0.442,-0l0.604,1.226l1.227,0.604c0.247,0.122 0.247,0.32 0,0.442" style="fill:url(#_Linear1);fill-rule:nonzero;"/></g></g></g></g><defs><linearGradient id="_Linear1" x1="0" y1="0" x2="1" y2="0" gradientUnits="userSpaceOnUse" gradientTransform="matrix(24.6606,0,0,24,-23.7372,5)"><stop offset="0" style="stop-color:#25e2f5;stop-opacity:1"/><stop offset="0.5" style="stop-color:#1c9aff;stop-opacity:1"/><stop offset="1" style="stop-color:#e062e9;stop-opacity:1"/></linearGradient></defs></svg>